<svg width="834" height="388" viewBox="0 0 834 388" fill="none" xmlns="http://www.w3.org/2000/svg">
<g clip-path="url(#clip0_2060_445)">
<rect width="834" height="387.955" fill="url(#paint0_linear_2060_445)"/>
<path d="M519 -57H656.153H791L721.386 217H592.071L519 -57Z" fill="url(#paint1_linear_2060_445)" fill-opacity="0.48"/>
<g clip-path="url(#clip1_2060_445)">
<g clip-path="url(#clip2_2060_445)">
<path d="M643.326 130.767C644.45 131.434 645.575 132.1 646.699 132.765C647.286 133.113 647.873 133.46 648.477 133.818C651.442 135.569 654.432 137.277 657.42 138.988C658.033 139.339 658.645 139.69 659.258 140.041C660.494 140.749 661.731 141.457 662.968 142.165C666.034 143.921 669.099 145.678 672.164 147.436C672.465 147.609 672.767 147.782 673.078 147.961C677.988 150.778 682.888 153.612 687.784 156.455C691.387 158.546 694.997 160.622 698.612 162.69C701.555 164.374 704.494 166.065 707.432 167.759C707.884 168.019 708.336 168.279 708.801 168.547C709.917 169.193 711.03 169.844 712.141 170.499C713.002 171.004 713.002 171.004 713.88 171.518C715.196 172.436 715.971 173.167 716.784 174.544C717.07 176.467 716.935 177.399 716.005 179.111C714.245 180.702 712.863 180.903 710.549 181.329C710.378 182.018 710.206 182.707 710.03 183.417C716.203 187.173 722.433 190.827 728.671 194.473C731.237 195.973 733.802 197.475 736.367 198.977C736.874 199.274 737.382 199.571 737.904 199.877C740.758 201.55 743.61 203.225 746.46 204.904C746.775 205.089 747.09 205.274 747.414 205.465C749.012 206.406 750.609 207.348 752.206 208.29C755.281 210.104 758.361 211.91 761.452 213.697C762.02 214.026 762.588 214.356 763.173 214.695C764.234 215.31 765.297 215.922 766.362 216.532C773.061 220.419 773.061 220.419 773.817 222.727C773.713 225.879 773.713 225.879 772.317 227.487C770.823 228.303 770.823 228.303 769.246 228.637C767.534 229.217 767.534 229.217 766.964 231.069C766.797 231.764 766.644 232.463 766.504 233.163C766.383 233.684 766.383 233.684 766.259 234.214C766.033 235.198 765.83 236.187 765.627 237.176C765.475 237.79 765.475 237.79 765.32 238.417C764.072 246.432 765.208 255.109 767.238 262.903C767.705 264.838 767.705 264.838 767.705 266.926C768.262 266.883 768.82 266.84 769.394 266.795C771.342 266.926 771.342 266.926 772.609 267.709C773.525 269.18 773.69 270.369 773.748 272.094C773.236 273.81 772.278 274.831 770.823 275.798C768.915 276.41 766.979 276.683 765 276.967C764.438 277.056 763.877 277.145 763.298 277.236C761.51 277.517 759.721 277.783 757.93 278.049C756.715 278.238 755.501 278.427 754.286 278.617C751.313 279.081 748.339 279.532 745.362 279.974C745.355 280.358 745.347 280.741 745.339 281.137C745.3 282.902 745.25 284.667 745.2 286.433C745.188 287.036 745.177 287.64 745.165 288.262C745.002 293.511 744.59 298.073 740.686 301.895C739.4 302.935 738.06 303.871 736.692 304.798C735.899 305.347 735.107 305.897 734.315 306.448C733.705 306.87 733.705 306.87 733.082 307.3C731.093 308.689 729.136 310.12 727.176 311.551C723.799 314.01 720.402 316.437 716.989 318.847C714.308 320.744 711.646 322.666 708.99 324.599C705.613 327.057 702.216 329.486 698.803 331.896C696.122 333.792 693.46 335.714 690.804 337.647C687.427 340.106 684.03 342.534 680.617 344.944C677.936 346.841 675.274 348.763 672.618 350.695C669.245 353.151 665.854 355.581 662.442 357.982C660.484 359.363 658.544 360.764 656.623 362.196C656.208 362.503 655.793 362.81 655.366 363.127C654.574 363.715 653.784 364.308 652.997 364.905C648.456 368.267 645.457 368.922 639.884 368.18C636.708 367.69 633.548 367.103 630.387 366.527C629.435 366.355 628.482 366.183 627.529 366.012C624.948 365.547 622.366 365.079 619.785 364.61C617.051 364.114 614.316 363.621 611.581 363.128C606.965 362.294 602.349 361.459 597.733 360.623C593.053 359.775 588.373 358.928 583.693 358.082C583.123 357.979 582.553 357.876 581.965 357.77C579.678 357.357 577.39 356.944 575.103 356.531C568.97 355.423 562.838 354.314 556.707 353.199C554.577 352.812 552.447 352.424 550.317 352.037C549.803 351.944 549.289 351.85 548.76 351.754C542.548 350.626 536.334 349.516 530.113 348.44C527.743 348.029 525.374 347.611 523.005 347.194C521.245 346.888 519.483 346.593 517.72 346.298C516.699 346.119 515.678 345.939 514.658 345.758C514.212 345.688 513.765 345.617 513.306 345.544C510.592 345.048 509.161 344.342 507.386 342.084C506.914 340.504 507.144 339.605 507.386 337.908C508.23 336.636 508.23 336.636 509.464 335.82C510.499 335.623 511.539 335.446 512.582 335.298C513.093 333.201 513.601 331.102 514.108 329.003C514.252 328.411 514.397 327.819 514.545 327.21C517.106 316.579 516.257 307.573 513.907 296.997C513.557 295.328 513.308 293.67 513.101 291.978C512.448 291.935 511.794 291.892 511.12 291.848C509.679 291.656 509.07 291.555 507.905 290.641C507.174 288.849 506.917 287.09 507.386 285.193C508.734 283.691 510.134 282.589 511.839 281.523C512.299 281.233 512.76 280.942 513.234 280.643C513.726 280.336 514.218 280.029 514.725 279.713C515.771 279.052 516.816 278.391 517.861 277.729C518.379 277.401 518.897 277.073 519.43 276.735C521.421 275.462 523.386 274.153 525.344 272.83C529.372 270.112 533.428 267.439 537.49 264.773C544.806 259.969 552.082 255.107 559.346 250.224C558.049 248.791 556.602 247.836 554.976 246.807C554.418 246.452 553.861 246.096 553.286 245.73C552.697 245.358 552.108 244.985 551.519 244.613C537.38 235.652 537.38 235.652 536.167 231.081C535.694 228.255 535.828 225.363 535.844 222.507C535.845 221.791 535.845 221.076 535.845 220.361C535.846 218.868 535.85 217.375 535.857 215.882C535.866 213.971 535.868 212.06 535.867 210.149C535.867 208.674 535.87 207.2 535.874 205.725C535.876 204.679 535.877 203.632 535.878 202.586C535.882 201.95 535.885 201.314 535.888 200.659C535.891 199.82 535.891 199.82 535.894 198.964C535.955 197.694 536.119 196.632 536.483 195.421C536.105 195.279 535.727 195.137 535.338 194.99C532.947 193.981 530.837 192.548 528.657 191.148C528.19 190.86 527.724 190.571 527.243 190.274C526.793 189.985 526.342 189.695 525.878 189.397C525.266 189.009 525.266 189.009 524.642 188.613C522.599 186.797 521.571 185.155 521.224 182.456C521.14 180.638 521.127 178.831 521.139 177.011C521.137 176.344 521.135 175.677 521.133 174.989C521.13 173.581 521.134 172.173 521.144 170.765C521.156 168.972 521.149 167.179 521.137 165.387C521.127 163.661 521.134 161.936 521.139 160.211C521.135 159.574 521.13 158.936 521.126 158.278C521.175 153.797 522.063 150.756 524.403 146.98C527.096 144.35 530.447 143.424 534.074 142.869C534.491 142.799 534.908 142.729 535.338 142.658C536.724 142.428 538.112 142.208 539.5 141.988C540.499 141.825 541.498 141.661 542.496 141.496C545.201 141.052 547.906 140.617 550.612 140.183C553.446 139.727 556.279 139.263 559.112 138.8C564.477 137.925 569.844 137.057 575.21 136.191C581.308 135.206 587.405 134.214 593.502 133.222C603.922 131.525 614.343 129.834 624.765 128.15C625.205 128.079 625.645 128.008 626.097 127.935C626.905 127.804 627.713 127.674 628.522 127.543C630.119 127.285 631.713 127.022 633.304 126.727C636.966 126.197 640.317 128.962 643.326 130.767Z" fill="#E53531"/>
<path d="M562.464 250.746C563.804 251.439 563.804 251.439 565.153 252.33C565.663 252.662 566.172 252.994 566.697 253.337C567.24 253.698 567.782 254.059 568.342 254.432C569.211 255.001 570.08 255.57 570.949 256.138C571.851 256.729 572.752 257.322 573.653 257.915C576.489 259.78 579.35 261.605 582.209 263.435C585.798 265.741 589.383 268.053 592.958 270.383C596.683 272.811 600.427 275.207 604.175 277.599C612.078 282.645 619.975 287.702 627.823 292.834C628.724 293.422 629.628 294.005 630.531 294.588C630.936 294.866 631.341 295.144 631.759 295.43C635.771 297.547 641.53 295.93 645.795 295.175C646.947 294.98 648.1 294.786 649.253 294.592C650.067 294.453 650.067 294.453 650.897 294.311C652.571 294.029 654.246 293.778 655.927 293.544C667.832 291.918 667.832 291.918 679.641 289.73C681.281 289.403 682.905 289.148 684.562 288.926C689.395 288.247 694.203 287.424 699.016 286.61C701.786 286.142 704.558 285.677 707.329 285.211C707.875 285.12 708.422 285.028 708.985 284.933C713.596 284.159 718.21 283.398 722.825 282.649C723.435 282.549 724.046 282.45 724.674 282.347C728.26 281.768 731.851 281.235 735.449 280.736C736.433 280.588 737.414 280.417 738.386 280.206C739.754 279.954 741.018 279.922 742.408 279.941C743.096 279.948 743.096 279.948 743.798 279.955C744.315 279.964 744.315 279.964 744.843 279.974C744.889 282.127 744.916 284.279 744.941 286.433C744.96 287.338 744.96 287.338 744.98 288.261C745.019 292.806 744.709 296.638 742.138 300.474C740.437 302.139 738.657 303.466 736.692 304.798C735.899 305.347 735.107 305.897 734.315 306.447C733.909 306.729 733.502 307.01 733.083 307.3C731.094 308.688 729.136 310.12 727.177 311.55C723.8 314.01 720.402 316.437 716.99 318.847C714.309 320.744 711.646 322.666 708.991 324.599C705.613 327.057 702.216 329.486 698.804 331.896C696.123 333.792 693.46 335.714 690.805 337.647C687.427 340.105 684.03 342.534 680.618 344.944C677.937 346.841 675.274 348.762 672.619 350.695C669.245 353.151 665.855 355.581 662.442 357.982C660.484 359.363 658.545 360.764 656.623 362.196C656.208 362.503 655.794 362.81 655.367 363.127C654.574 363.715 653.784 364.308 652.998 364.905C648.457 368.267 645.458 368.922 639.884 368.18C636.708 367.69 633.549 367.103 630.388 366.527C629.435 366.355 628.482 366.183 627.53 366.012C624.948 365.547 622.367 365.079 619.786 364.61C617.051 364.114 614.316 363.621 611.581 363.127C606.965 362.294 602.349 361.459 597.733 360.622C593.054 359.774 588.374 358.928 583.694 358.082C583.123 357.979 582.553 357.876 581.966 357.77C579.678 357.357 577.391 356.944 575.103 356.531C568.971 355.423 562.839 354.314 556.708 353.199C554.578 352.811 552.447 352.424 550.317 352.037C549.804 351.944 549.29 351.85 548.761 351.754C542.549 350.625 536.334 349.516 530.113 348.439C527.743 348.028 525.375 347.611 523.006 347.194C521.245 346.888 519.483 346.593 517.721 346.298C516.7 346.119 515.679 345.939 514.658 345.758C514.212 345.687 513.766 345.617 513.306 345.544C510.593 345.048 509.162 344.342 507.386 342.083C506.915 340.504 507.145 339.604 507.386 337.908C508.231 336.636 508.231 336.636 509.465 335.82C510.5 335.623 511.539 335.446 512.582 335.298C513.094 333.2 513.602 331.102 514.109 329.002C514.253 328.411 514.397 327.819 514.546 327.209C517.107 316.579 516.257 307.573 513.908 296.997C513.558 295.328 513.309 293.67 513.102 291.978C512.448 291.935 511.794 291.892 511.121 291.848C509.679 291.655 509.071 291.555 507.906 290.641C507.174 288.849 506.918 287.09 507.386 285.193C508.735 283.691 510.134 282.589 511.839 281.523C512.53 281.088 512.53 281.088 513.235 280.643C513.727 280.336 514.219 280.029 514.726 279.713C515.771 279.052 516.817 278.391 517.861 277.729C518.379 277.401 518.897 277.073 519.431 276.735C521.422 275.462 523.387 274.153 525.345 272.83C528.115 270.961 530.894 269.105 533.687 267.27C533.993 267.069 534.3 266.867 534.615 266.66C536.216 265.608 537.819 264.558 539.422 263.51C542.741 261.336 546.035 259.135 549.295 256.874C550.25 256.217 551.205 255.561 552.16 254.905C552.768 254.484 553.373 254.06 553.977 253.633C554.813 253.04 555.658 252.459 556.503 251.879C556.978 251.546 557.454 251.213 557.944 250.87C559.737 250.044 560.589 250.185 562.464 250.746Z" fill="#FBAC0F"/>
<path d="M643.326 130.767C644.45 131.434 645.575 132.1 646.699 132.765C647.286 133.113 647.873 133.46 648.477 133.818C651.442 135.569 654.432 137.277 657.42 138.988C658.033 139.339 658.646 139.69 659.258 140.041C660.495 140.749 661.731 141.457 662.968 142.165C666.034 143.921 669.099 145.678 672.164 147.436C672.465 147.609 672.767 147.782 673.078 147.961C677.988 150.778 682.888 153.612 687.784 156.455C691.387 158.546 694.997 160.622 698.612 162.69C701.555 164.374 704.494 166.065 707.432 167.759C707.884 168.019 708.336 168.279 708.801 168.547C709.917 169.193 711.03 169.844 712.141 170.499C713.002 171.004 713.002 171.004 713.88 171.518C715.196 172.436 715.971 173.167 716.785 174.544C717.075 176.504 716.982 177.369 715.906 179.045C714.491 180.508 713.898 180.657 711.909 180.856C711.306 180.929 710.702 181.001 710.08 181.076C709.742 181.115 709.403 181.153 709.055 181.193C706.947 181.453 704.855 181.816 702.759 182.161C701.768 182.321 700.776 182.481 699.784 182.64C699.265 182.724 698.746 182.808 698.211 182.894C690.059 184.208 681.906 185.517 673.751 186.811C659.409 189.089 645.074 191.397 630.755 193.816C626.711 194.498 622.662 195.15 618.612 195.795C615.012 196.367 611.416 196.963 607.824 197.581C605.181 198.031 605.181 198.031 604.031 198.031C603.508 199.607 603.432 200.711 603.405 202.362C603.395 202.926 603.384 203.49 603.374 204.071C603.365 204.68 603.356 205.288 603.347 205.915C603.331 206.85 603.331 206.85 603.315 207.804C603.281 209.798 603.25 211.792 603.219 213.787C603.197 215.137 603.174 216.488 603.152 217.839C603.096 221.153 603.043 224.467 602.992 227.781C603.504 227.694 604.017 227.608 604.544 227.518C621.764 224.608 621.764 224.608 628.435 223.627C633.303 222.911 638.158 222.116 643.015 221.329C644.634 221.067 646.254 220.808 647.875 220.548C653.696 219.616 659.517 218.674 665.334 217.713C665.94 217.613 666.547 217.513 667.172 217.41C669.649 217.001 672.126 216.592 674.603 216.182C686.699 214.179 686.699 214.179 692.277 213.407C694.188 213.128 696.089 212.805 697.992 212.476C698.681 212.358 699.37 212.24 700.059 212.122C701.105 211.943 702.15 211.762 703.195 211.575C707.127 210.876 710.744 210.272 714.706 211.079C716.237 212.291 716.25 213.046 716.492 214.994C716.223 217.158 715.836 217.562 714.187 218.908C710.118 220.45 705.471 220.791 701.179 221.382C697.039 221.953 692.915 222.606 688.791 223.279C688.446 223.336 688.101 223.392 687.745 223.45C685.98 223.738 684.215 224.026 682.45 224.315C679.368 224.82 676.286 225.323 673.203 225.824C672.565 225.927 671.927 226.031 671.269 226.138C666.751 226.87 662.23 227.589 657.708 228.303C656.816 228.444 656.816 228.444 655.905 228.588C653.395 228.985 650.885 229.381 648.375 229.777C641.113 230.922 633.855 232.088 626.604 233.304C625.624 233.468 625.624 233.468 624.624 233.635C621.49 234.159 618.356 234.687 615.224 235.222C614.092 235.412 612.96 235.602 611.827 235.791C611.071 235.923 611.071 235.923 610.299 236.057C601.547 237.507 601.547 237.507 598.367 235.39C597.942 235.116 597.517 234.842 597.079 234.56C596.421 234.111 596.421 234.111 595.75 233.653C595.279 233.346 594.809 233.038 594.324 232.722C593.351 232.087 592.381 231.448 591.414 230.804C589.298 229.402 587.149 228.056 585.001 226.704C584.183 226.185 583.366 225.665 582.549 225.145C580.959 224.133 579.368 223.123 577.775 222.115C571.486 218.136 565.224 214.114 558.966 210.085C557.247 208.978 555.527 207.873 553.807 206.767C553.243 206.405 552.679 206.042 552.097 205.668C550.986 204.955 549.875 204.241 548.764 203.527C546.52 202.086 544.277 200.644 542.047 199.183C539.469 197.496 536.9 195.855 534.178 194.41C531.773 193.116 529.457 191.715 527.163 190.235C526.831 190.028 526.499 189.822 526.156 189.61C525.841 189.402 525.525 189.195 525.2 188.981C524.921 188.801 524.642 188.622 524.354 188.436C521.969 186.098 521.293 184.052 521.146 180.772C521.132 179.518 521.131 178.265 521.139 177.011C521.137 176.344 521.135 175.677 521.133 174.989C521.13 173.581 521.134 172.173 521.144 170.765C521.156 168.972 521.149 167.179 521.137 165.387C521.127 163.661 521.134 161.936 521.139 160.211C521.135 159.574 521.131 158.936 521.126 158.278C521.175 153.797 522.063 150.756 524.403 146.98C527.096 144.35 530.447 143.424 534.074 142.869C534.491 142.799 534.908 142.729 535.338 142.658C536.724 142.428 538.112 142.208 539.5 141.988C540.499 141.825 541.498 141.661 542.496 141.496C545.201 141.052 547.906 140.617 550.612 140.183C553.446 139.727 556.279 139.263 559.112 138.8C564.478 137.925 569.844 137.057 575.21 136.191C581.308 135.206 587.405 134.214 593.502 133.222C603.922 131.525 614.343 129.834 624.765 128.15C625.205 128.079 625.645 128.008 626.098 127.935C626.906 127.804 627.714 127.674 628.522 127.543C630.119 127.285 631.713 127.022 633.304 126.727C636.966 126.197 640.317 128.962 643.326 130.767Z" fill="#02A8F3"/>
<path d="M513.102 291.978C519.348 292.766 525.514 293.952 531.697 295.122C540.933 296.869 550.174 298.573 559.443 300.133C566.955 301.399 574.443 302.76 581.927 304.178C590.5 305.799 599.092 307.303 607.69 308.784C615.339 310.102 622.977 311.457 630.597 312.933C634.086 313.606 637.566 314.184 641.09 314.641C643.059 315.068 643.95 315.909 645.08 317.553C646.281 319.451 646.251 321.07 646.254 323.294C646.256 323.839 646.256 323.839 646.259 324.395C646.264 325.594 646.261 326.792 646.257 327.991C646.258 328.826 646.259 329.66 646.26 330.495C646.262 332.243 646.26 333.991 646.255 335.739C646.249 337.978 646.252 340.217 646.258 342.457C646.262 344.18 646.261 345.903 646.258 347.626C646.258 348.451 646.258 349.277 646.261 350.103C646.263 351.257 646.259 352.411 646.254 353.566C646.253 354.222 646.252 354.879 646.251 355.556C646.127 357.12 645.902 357.996 645.08 359.307C641.975 359.391 639.126 359.094 636.074 358.54C635.61 358.459 635.147 358.378 634.669 358.294C633.148 358.026 631.629 357.753 630.109 357.48C629.039 357.291 627.969 357.101 626.9 356.912C618.807 355.474 610.727 353.971 602.65 352.45C597.086 351.402 591.519 350.375 585.943 349.39C585.597 349.329 585.251 349.268 584.894 349.205C580.833 348.489 576.771 347.782 572.709 347.077C570.138 346.631 567.567 346.184 564.997 345.737C564.481 345.647 563.966 345.557 563.435 345.465C556.566 344.269 549.707 343.034 542.859 341.717C538.674 340.916 534.483 340.162 530.285 339.433C529.2 339.243 528.115 339.054 527.029 338.864C525.414 338.582 523.798 338.301 522.181 338.026C520.681 337.77 519.182 337.509 517.683 337.247C517.227 337.171 516.771 337.095 516.301 337.017C515.228 336.827 514.163 336.589 513.102 336.342C512.365 334.862 512.795 334.063 513.195 332.47C513.405 331.617 513.405 331.617 513.619 330.747C513.77 330.149 513.921 329.552 514.076 328.937C516.896 317.652 516.499 308.378 513.919 297.087C513.572 295.392 513.332 293.692 513.102 291.978Z" fill="#FEF2E3"/>
<path d="M530.248 144.794C531.126 145.28 531.985 145.799 532.832 146.337C533.337 146.656 533.842 146.976 534.363 147.305C534.902 147.65 535.441 147.994 535.996 148.349C536.554 148.703 537.112 149.057 537.687 149.421C539.366 150.486 541.042 151.554 542.719 152.623C543.609 153.187 544.499 153.751 545.39 154.315C547.396 155.585 549.401 156.858 551.406 158.133C552.601 158.892 553.798 159.651 554.994 160.409C559.395 163.197 563.79 165.995 568.179 168.803C581.494 177.332 581.494 177.332 594.911 185.698C596.237 186.548 596.237 186.548 597.29 187.376C600.467 189.797 603.352 189.103 607.149 188.636C610.404 188.177 613.642 187.616 616.881 187.06C617.818 186.901 618.754 186.743 619.691 186.586C622.147 186.171 624.603 185.753 627.058 185.334C630.952 184.671 634.846 184.012 638.741 183.354C639.693 183.193 640.645 183.032 641.597 182.87C647.46 181.878 653.324 180.921 659.203 180.033C664.204 179.271 669.191 178.432 674.179 177.59C674.613 177.517 675.047 177.443 675.494 177.368C679.527 176.687 683.561 176.005 687.594 175.319C689.829 174.939 692.065 174.561 694.301 174.185C695.137 174.044 695.972 173.902 696.807 173.759C699.099 173.367 701.393 172.989 703.691 172.634C704.478 172.511 705.264 172.385 706.05 172.256C707.254 172.061 708.459 171.883 709.666 171.709C710.03 171.648 710.394 171.586 710.769 171.523C712.682 171.266 713.529 171.325 715.183 172.372C716.455 173.698 716.745 174.187 716.947 176.012C716.743 178.099 716.153 178.798 714.706 180.285C713.425 180.704 713.425 180.704 711.909 180.856C711.306 180.928 710.702 181.001 710.08 181.076C709.742 181.114 709.403 181.153 709.055 181.192C706.947 181.453 704.855 181.816 702.759 182.161C701.768 182.321 700.776 182.48 699.784 182.64C699.265 182.724 698.746 182.807 698.211 182.893C690.059 184.208 681.906 185.517 673.751 186.811C659.409 189.088 645.074 191.396 630.755 193.816C626.711 194.498 622.662 195.15 618.612 195.794C615.012 196.367 611.416 196.962 607.824 197.581C605.181 198.031 605.181 198.031 604.031 198.031C603.508 199.607 603.432 200.711 603.405 202.361C603.395 202.925 603.384 203.49 603.374 204.071C603.365 204.679 603.356 205.288 603.347 205.915C603.331 206.85 603.331 206.85 603.315 207.804C603.281 209.798 603.25 211.792 603.219 213.786C603.197 215.137 603.174 216.488 603.152 217.838C603.096 221.152 603.043 224.466 602.992 227.781C603.504 227.694 604.017 227.607 604.544 227.518C621.764 224.607 621.764 224.607 628.435 223.627C633.303 222.91 638.158 222.116 643.015 221.329C644.634 221.067 646.254 220.807 647.875 220.548C653.696 219.616 659.517 218.673 665.334 217.713C665.94 217.613 666.547 217.513 667.172 217.41C669.649 217.001 672.126 216.592 674.603 216.181C686.699 214.179 686.699 214.179 692.277 213.407C694.188 213.128 696.089 212.805 697.992 212.475C698.681 212.357 699.37 212.24 700.059 212.122C701.105 211.943 702.15 211.762 703.195 211.575C707.127 210.875 710.744 210.272 714.706 211.079C716.237 212.29 716.25 213.045 716.492 214.993C716.223 217.158 715.836 217.561 714.187 218.908C710.118 220.449 705.471 220.791 701.179 221.381C697.039 221.952 692.915 222.605 688.791 223.279C688.446 223.335 688.101 223.391 687.745 223.449C685.98 223.737 684.215 224.026 682.45 224.315C679.368 224.82 676.286 225.323 673.203 225.823C672.565 225.927 671.927 226.031 671.269 226.138C666.751 226.87 662.23 227.588 657.708 228.303C656.816 228.444 656.816 228.444 655.905 228.588C653.395 228.984 650.885 229.381 648.375 229.776C641.113 230.921 633.855 232.087 626.604 233.304C625.624 233.467 625.624 233.467 624.624 233.635C621.49 234.158 618.356 234.686 615.224 235.222C614.092 235.412 612.96 235.601 611.827 235.791C611.071 235.923 611.071 235.923 610.299 236.057C601.547 237.507 601.547 237.507 598.367 235.389C597.942 235.115 597.517 234.842 597.079 234.559C596.421 234.11 596.421 234.11 595.75 233.652C595.279 233.345 594.809 233.038 594.324 232.722C593.351 232.087 592.381 231.447 591.414 230.803C589.298 229.402 587.149 228.056 585.001 226.704C584.183 226.185 583.366 225.665 582.549 225.144C580.959 224.132 579.368 223.122 577.775 222.115C571.486 218.135 565.224 214.114 558.966 210.085C557.247 208.978 555.527 207.872 553.807 206.767C553.243 206.404 552.679 206.042 552.097 205.668C550.986 204.954 549.875 204.24 548.764 203.527C546.52 202.086 544.277 200.644 542.047 199.182C539.469 197.495 536.9 195.855 534.178 194.41C531.773 193.116 529.457 191.714 527.163 190.234C526.831 190.028 526.499 189.822 526.156 189.609C525.841 189.402 525.525 189.194 525.2 188.98C524.921 188.801 524.642 188.621 524.354 188.436C521.969 186.097 521.293 184.051 521.146 180.771C521.132 179.518 521.131 178.264 521.139 177.011C521.137 176.343 521.135 175.676 521.133 174.989C521.13 173.581 521.134 172.173 521.144 170.764C521.156 168.971 521.149 167.179 521.137 165.386C521.127 163.661 521.134 161.936 521.139 160.211C521.135 159.573 521.131 158.935 521.126 158.278C521.179 153.404 522.104 149.426 525.572 145.838C527.365 144.487 528.139 144.051 530.248 144.794Z" fill="#016AB3"/>
<path d="M767.705 228.303C767.561 228.913 767.417 229.523 767.269 230.152C767.079 230.96 766.889 231.768 766.699 232.576C766.604 232.977 766.509 233.379 766.412 233.792C766.227 234.577 766.045 235.362 765.864 236.148C765.686 236.918 765.5 237.687 765.308 238.454C764.101 246.452 765.187 255.099 767.239 262.87C767.632 264.53 767.747 265.77 767.705 267.447C767.099 267.533 767.099 267.533 766.48 267.621C754.065 269.388 741.702 271.427 729.338 273.52C724.868 274.275 720.394 275.001 715.915 275.699C713.758 276.038 711.618 276.411 709.48 276.852C707.043 277.352 704.603 277.717 702.138 278.049C696.026 278.904 689.938 279.898 683.847 280.894C678.208 281.816 672.568 282.728 666.928 283.64C665.032 283.946 663.135 284.254 661.239 284.561C655.83 285.437 650.421 286.307 645.005 287.13C644.603 287.191 644.201 287.253 643.787 287.316C641.106 287.719 638.423 288.037 635.727 288.325C634.504 286.482 634.552 285.7 634.537 283.517C634.53 282.848 634.524 282.179 634.517 281.489C634.515 280.758 634.514 280.026 634.513 279.295C634.51 278.544 634.507 277.793 634.503 277.042C634.497 275.468 634.495 273.893 634.495 272.318C634.495 270.305 634.481 268.292 634.463 266.279C634.452 264.728 634.45 263.177 634.45 261.625C634.449 260.883 634.444 260.141 634.436 259.4C634.426 258.359 634.431 257.319 634.435 256.278C634.434 255.687 634.433 255.096 634.431 254.487C634.748 252.446 635.494 251.307 636.766 249.702C637.998 249.11 637.998 249.11 639.417 248.823C639.969 248.708 640.521 248.593 641.09 248.475C641.721 248.363 642.352 248.251 643.002 248.136C643.53 248.041 643.53 248.041 644.069 247.943C646.89 247.439 649.718 246.985 652.549 246.538C653.385 246.403 654.222 246.268 655.058 246.133C659.866 245.359 664.679 244.639 669.501 243.961C679.545 242.545 679.545 242.545 689.511 240.669C691.164 240.339 692.802 240.083 694.472 239.859C699.104 239.208 703.711 238.42 708.322 237.639C726.168 234.615 744.035 231.713 761.93 228.996C762.896 228.845 763.86 228.68 764.823 228.513C766.147 228.303 766.147 228.303 767.705 228.303Z" fill="#FEF2E3"/>
<path d="M710.55 180.807C710.324 181.281 710.099 181.754 709.868 182.242C706.15 191.169 707.082 199.419 709.51 208.469C709.688 209.338 709.862 210.208 710.03 211.079C696.017 213.352 682.001 215.606 667.983 217.846C660.836 218.987 653.69 220.131 646.545 221.282C644.987 221.533 643.429 221.783 641.871 222.033C641.33 222.12 640.788 222.207 640.231 222.297C639.139 222.472 638.048 222.648 636.957 222.823C634.264 223.255 631.571 223.689 628.879 224.127C623.059 225.072 617.234 225.989 611.403 226.867C610.802 226.959 610.201 227.05 609.581 227.145C609.022 227.228 608.462 227.311 607.886 227.397C607.145 227.509 607.145 227.509 606.388 227.622C605.071 227.781 605.071 227.781 602.992 227.781C602.94 223.805 602.903 219.83 602.878 215.854C602.868 214.501 602.854 213.148 602.836 211.796C602.81 209.852 602.799 207.909 602.789 205.966C602.779 205.36 602.768 204.754 602.757 204.13C602.757 203.566 602.757 203.002 602.756 202.421C602.749 201.677 602.749 201.677 602.742 200.918C603.067 199.203 603.738 198.591 605.071 197.509C606.245 197.113 606.245 197.113 607.545 196.922C608.033 196.845 608.521 196.769 609.024 196.69C609.552 196.615 610.08 196.541 610.624 196.465C611.185 196.379 611.746 196.292 612.324 196.203C613.497 196.023 614.671 195.846 615.845 195.673C618.319 195.306 620.788 194.907 623.257 194.508C623.773 194.425 624.289 194.343 624.82 194.258C628.539 193.663 632.253 193.046 635.967 192.42C647.947 190.399 659.932 188.433 671.936 186.558C677.736 185.652 683.533 184.734 689.327 183.792C689.928 183.694 690.529 183.597 691.148 183.496C694.659 182.926 694.659 182.926 698.169 182.352C699.761 182.091 701.354 181.832 702.946 181.574C703.417 181.496 703.888 181.417 704.373 181.337C706.451 181.001 708.436 180.704 710.55 180.807Z" fill="#FDF2E3"/>
<path d="M562.464 250.746C563.804 251.439 563.804 251.439 565.153 252.33C565.662 252.662 566.172 252.994 566.697 253.337C567.239 253.698 567.782 254.059 568.342 254.432C569.211 255.001 570.08 255.57 570.949 256.138C571.851 256.729 572.752 257.322 573.653 257.915C576.489 259.78 579.35 261.605 582.208 263.435C585.798 265.741 589.383 268.053 592.958 270.383C596.683 272.811 600.427 275.207 604.174 277.599C612.078 282.645 619.975 287.702 627.823 292.834C628.724 293.422 629.627 294.005 630.531 294.588C630.936 294.866 631.341 295.144 631.758 295.43C635.77 297.547 641.53 295.931 645.794 295.175C646.936 294.981 648.078 294.788 649.221 294.596C649.762 294.503 650.303 294.411 650.861 294.316C653.266 293.913 655.679 293.584 658.094 293.252C660.127 292.947 662.136 292.545 664.147 292.119C665.407 291.971 666.214 292.162 667.423 292.5C666.62 293.069 666.62 293.069 665.801 293.65C665.448 293.901 665.094 294.151 664.73 294.409C663.941 294.969 663.152 295.528 662.363 296.087C660.29 297.557 658.217 299.028 656.146 300.5C655.755 300.778 655.364 301.056 654.961 301.342C654.215 301.872 653.469 302.402 652.724 302.933C652.38 303.177 652.037 303.421 651.683 303.673C651.236 303.99 651.236 303.99 650.781 304.314C650.443 304.549 650.105 304.784 649.756 305.026C649.284 305.404 648.811 305.782 648.324 306.172C646.275 307.317 644.911 307.22 642.689 306.845C642.307 306.79 641.925 306.735 641.531 306.678C640.286 306.492 639.046 306.285 637.806 306.07C637.392 305.999 636.978 305.928 636.551 305.855C633.906 305.394 631.269 304.897 628.632 304.386C626.172 303.91 623.71 303.445 621.247 302.979C620.506 302.839 620.506 302.839 619.75 302.696C615.298 301.856 610.837 301.082 606.37 300.329C599.665 299.196 592.981 297.971 586.3 296.708C578.972 295.323 571.636 294.003 564.282 292.761C556.519 291.45 548.776 290.046 541.039 288.584C530.877 286.665 520.694 284.871 510.504 283.105C512.259 281.274 514.126 279.973 516.284 278.669C519.28 276.823 522.233 274.93 525.15 272.96C527.989 271.045 530.837 269.143 533.699 267.262C534.005 267.061 534.31 266.86 534.625 266.653C536.223 265.604 537.821 264.556 539.421 263.51C542.74 261.337 546.034 259.135 549.295 256.874C550.25 256.217 551.205 255.561 552.16 254.905C552.767 254.484 553.373 254.06 553.976 253.633C554.813 253.04 555.658 252.459 556.502 251.879C556.978 251.546 557.453 251.213 557.943 250.87C559.737 250.044 560.588 250.185 562.464 250.746Z" fill="#F4D076"/>
<path d="M709.51 183.417C721.878 190.487 734.18 197.673 746.457 204.901C746.772 205.087 747.087 205.273 747.411 205.464C749.008 206.404 750.604 207.344 752.2 208.286C755.315 210.123 758.434 211.953 761.562 213.77C762.144 214.109 762.726 214.448 763.325 214.797C764.428 215.438 765.531 216.077 766.636 216.715C767.121 216.997 767.606 217.28 768.105 217.571C768.532 217.817 768.958 218.064 769.398 218.319C769.697 218.513 769.996 218.708 770.303 218.908C770.303 219.08 770.303 219.252 770.303 219.43C769.226 219.607 768.149 219.783 767.072 219.96C766.09 220.121 765.109 220.282 764.128 220.443C761.313 220.904 758.498 221.366 755.682 221.828C749.92 222.772 744.158 223.718 738.397 224.666C736.313 225.008 734.229 225.351 732.145 225.693C731.628 225.778 731.11 225.863 730.577 225.951C724.529 226.944 718.479 227.929 712.427 228.898C711.56 229.037 711.56 229.037 710.676 229.179C707.916 229.621 705.156 230.061 702.395 230.501C697.407 231.296 692.426 232.118 687.452 232.996C681.283 234.085 675.102 235.083 668.917 236.066C666.644 236.428 664.371 236.79 662.099 237.153C661.258 237.287 661.258 237.287 660.4 237.424C656.811 237.999 653.225 238.594 649.641 239.204C648.751 239.354 647.862 239.504 646.973 239.654C645.732 239.863 644.492 240.074 643.253 240.291C642.134 240.486 641.014 240.676 639.894 240.864C638.963 241.025 638.963 241.025 638.012 241.189C634.891 241.475 632.591 241.056 629.981 239.312C629.524 239.01 629.067 238.708 628.596 238.397C627.898 237.921 627.898 237.921 627.186 237.436C626.707 237.12 626.228 236.803 625.734 236.476C623.221 234.798 623.221 234.798 622.218 234.044C622.218 233.872 622.218 233.699 622.218 233.522C626.939 232.741 631.66 231.961 636.381 231.18C638.575 230.818 640.769 230.455 642.963 230.092C659.714 227.321 659.714 227.321 667.636 226.046C668.402 225.922 668.402 225.922 669.184 225.796C671.798 225.377 674.413 224.98 677.035 224.617C680.328 224.159 683.59 223.573 686.859 222.969C689.402 222.518 691.957 222.166 694.513 221.804C697.698 221.349 700.879 220.871 704.059 220.381C704.801 220.268 705.544 220.155 706.286 220.044C707.379 219.881 708.471 219.713 709.563 219.544C710.202 219.447 710.842 219.35 711.501 219.249C712.947 218.95 713.991 218.661 715.226 217.864C716.01 216.289 715.836 214.903 715.745 213.167C714.912 211.511 714.912 211.511 713.637 211.385C713.229 211.349 712.821 211.312 712.401 211.275C710.221 210.84 710.221 210.84 709.431 209.668C709.014 208.409 708.739 207.159 708.471 205.86C708.328 205.401 708.186 204.942 708.039 204.469C706.125 198.097 706.083 190.722 708.471 184.461C708.814 184.116 709.157 183.772 709.51 183.417Z" fill="#FD6666"/>
</g>
</g>
<path d="M454.158 171.502C461.612 174.918 460.598 185.815 452.641 187.796V187.796C449.137 188.668 446.541 191.622 446.124 195.209V195.209C445.179 203.354 434.502 205.756 430.159 198.801V198.801C428.247 195.738 424.636 194.181 421.095 194.894V194.894C413.057 196.512 407.473 187.1 412.745 180.82V180.82C415.068 178.055 415.432 174.139 413.66 170.992V170.992C409.638 163.848 416.863 155.628 424.465 158.702V158.702C427.813 160.056 431.649 159.193 434.095 156.535V156.535C439.646 150.502 449.697 154.834 449.122 163.013V163.013C448.869 166.616 450.875 169.998 454.158 171.502V171.502Z" fill="#61B8FE"/>
<path d="M777.285 327.983C780.513 325.652 784.874 328.69 783.805 332.526V332.526C783.334 334.216 783.96 336.02 785.376 337.055V337.055C788.59 339.405 787.048 344.491 783.07 344.66V344.66C781.317 344.734 779.795 345.887 779.248 347.553V347.553C778.006 351.337 772.693 351.441 771.303 347.71V347.71C770.691 346.067 769.124 344.975 767.37 344.97V344.97C763.388 344.958 761.646 339.937 764.766 337.462V337.462C766.139 336.372 766.694 334.544 766.157 332.875V332.875C764.937 329.084 769.174 325.876 772.492 328.078V328.078C773.953 329.047 775.863 329.01 777.285 327.983V327.983Z" fill="#61B8FE"/>
<path d="M465.285 291.983C468.513 289.652 472.874 292.69 471.805 296.526V296.526C471.334 298.216 471.96 300.02 473.376 301.055V301.055C476.59 303.405 475.048 308.491 471.07 308.66V308.66C469.317 308.734 467.795 309.887 467.248 311.553V311.553C466.006 315.337 460.693 315.441 459.303 311.71V311.71C458.691 310.067 457.124 308.975 455.37 308.97V308.97C451.388 308.958 449.646 303.937 452.766 301.462V301.462C454.139 300.372 454.694 298.544 454.157 296.875V296.875C452.937 293.084 457.174 289.876 460.492 292.078V292.078C461.953 293.047 463.863 293.01 465.285 291.983V291.983Z" fill="#61B8FE"/>
<path d="M438.037 -52.1929C452.049 -66.5255 476.285 -55.1974 474.276 -35.2549V-35.2549C473.391 -26.4714 478.044 -18.0594 485.955 -14.141V-14.141C503.916 -5.24455 500.632 21.3062 481.044 25.5581V25.5581C472.417 27.4308 465.855 34.4555 464.573 43.1898V43.1898C461.662 63.0208 435.396 68.1019 425.299 50.7873V50.7873C420.852 43.1612 412.143 39.0907 403.44 40.5704V40.5704C383.681 43.9302 370.731 20.5198 384.079 5.56675V5.56675C389.957 -1.01916 391.137 -10.5595 387.041 -18.3793V-18.3793C377.739 -36.1339 396.002 -55.6834 414.348 -47.6102V-47.6102C422.428 -44.0544 431.866 -45.8802 438.037 -52.1929V-52.1929Z" fill="#61B8FE"/>
<path d="M865.558 98.5636C885.265 94.9056 898.567 118.118 885.447 133.271V133.271C879.669 139.945 878.633 149.502 882.847 157.259V157.259C892.416 174.871 874.45 194.694 855.985 186.899V186.899C847.852 183.466 838.442 185.434 832.367 191.839V191.839C818.574 206.382 794.17 195.422 795.877 175.451V175.451C796.629 166.655 791.849 158.315 783.88 154.516V154.516C765.787 145.892 768.669 119.295 788.19 114.747V114.747C796.788 112.744 803.243 105.621 804.393 96.8686V96.8686C807.004 76.9959 833.19 71.5183 843.548 88.6784V88.6784C848.109 96.2364 856.879 100.175 865.558 98.5636V98.5636Z" fill="#61B8FE"/>
</g>
<defs>
<linearGradient id="paint0_linear_2060_445" x1="417" y1="0" x2="417" y2="387.955" gradientUnits="userSpaceOnUse">
<stop stop-color="#8AC9FE"/>
<stop offset="0.336538" stop-color="#8AC9FE" stop-opacity="0.6"/>
<stop offset="0.913462" stop-color="#8AC9FE" stop-opacity="0.2"/>
</linearGradient>
<linearGradient id="paint1_linear_2060_445" x1="656.729" y1="-380.818" x2="656.729" y2="217" gradientUnits="userSpaceOnUse">
<stop offset="0.211538" stop-color="#BDDEFC" stop-opacity="0"/>
<stop offset="1" stop-color="#E6F3FF"/>
</linearGradient>
<clipPath id="clip0_2060_445">
<rect width="834" height="387.955" fill="white"/>
</clipPath>
<clipPath id="clip1_2060_445">
<rect width="272" height="261.263" fill="white" transform="translate(505 114)"/>
</clipPath>
<clipPath id="clip2_2060_445">
<rect width="266.035" height="267.228" fill="white" transform="translate(507.386 114)"/>
</clipPath>
</defs>
</svg>
