<svg width="834" height="388" viewBox="0 0 834 388" fill="none" xmlns="http://www.w3.org/2000/svg">
<g clip-path="url(#clip0_2043_745)">
<rect width="834" height="387.955" fill="url(#paint0_linear_2043_745)"/>
<circle cx="838.297" cy="82.2973" r="90.1716" transform="rotate(-31.4396 838.297 82.2973)" stroke="#61B8FE" stroke-width="37.3433"/>
<circle cx="531" cy="32.8806" r="64" fill="#61B8FE"/>
<circle cx="523.008" cy="213.888" r="8.5" fill="#61B8FE"/>
<circle cx="792.709" cy="346.664" r="8.5" fill="#61B8FE"/>
<circle cx="633.799" cy="142.112" r="19.709" fill="#61B8FE"/>
<g clip-path="url(#clip1_2043_745)">
<g clip-path="url(#clip2_2043_745)">
<path d="M626.354 222.801C626.7 222.802 627.046 222.803 627.402 222.804C632.378 222.822 637.236 222.925 642.085 224.157C642.383 224.232 642.681 224.306 642.989 224.383C657.429 228.104 668.989 236.495 676.718 249.249C680.779 256.139 683.944 263.48 686.767 270.951C686.881 271.252 686.995 271.553 687.113 271.864C687.679 273.362 688.24 274.862 688.794 276.365C691.96 285.795 691.96 285.795 698.555 292.581C703.615 294.61 709.076 295.007 714.217 293.019C717.416 291.549 719.949 289.811 722.298 287.182C721.767 285.641 721.158 284.684 720.022 283.524C712.706 275.519 708.69 264.968 709.133 254.172C709.421 250.208 710.742 246.593 712.451 243.034C712.649 242.613 712.649 242.613 712.852 242.185C713.474 240.973 713.975 240.205 715.138 239.475C716.384 239.261 716.759 239.423 717.797 240.118C718.206 240.941 718.206 240.941 718.497 241.948C718.61 242.317 718.723 242.685 718.839 243.065C718.951 243.451 719.063 243.838 719.178 244.236C720.563 249.021 722.658 252.75 726.8 255.669C727.751 256.159 728.697 256.626 729.665 257.076C735.037 259.621 737.143 263.56 739.487 268.766C739.715 268.578 739.943 268.39 740.178 268.196C745.677 263.774 750.148 263.312 757.096 263.549C761.493 263.627 765.12 262.746 768.953 260.555C769.308 260.356 769.662 260.157 770.027 259.952C771.006 259.376 771.006 259.376 771.852 258.67C773.044 257.842 774.093 258.019 775.501 258.125C775.911 258.534 775.911 258.534 776 259.955C775.971 261.969 775.483 263.757 774.887 265.671C774.778 266.026 774.668 266.382 774.555 266.748C771.531 276.209 766.246 285.134 757.197 289.82C754.287 291.202 751.385 292.154 748.137 292.133C747.775 292.132 747.412 292.13 747.038 292.129C746.665 292.125 746.292 292.122 745.907 292.119C745.526 292.117 745.145 292.115 744.752 292.113C743.816 292.108 742.879 292.101 741.943 292.093C741.963 292.767 741.963 292.767 741.984 293.455C741.981 295.6 741.649 297.658 741.278 299.766C741.169 300.382 741.169 300.382 741.058 301.011C738.247 316.197 731.051 330.288 720.401 341.436C719.864 342 719.333 342.571 718.802 343.142C706.422 356.085 688.416 363.267 670.733 364.531C670.863 364.887 670.992 365.244 671.126 365.611C671.616 366.959 672.103 368.309 672.589 369.659C672.797 370.238 673.007 370.817 673.218 371.396C677.219 382.369 677.219 382.369 676.053 386.221C675.246 387.68 674.681 388.148 673.163 388.83C666.681 389.859 661.08 386.599 656 382.947C649.111 377.871 642.917 371.247 638.811 363.712C638.751 364.424 638.751 364.424 638.689 365.151C638.215 370.286 637.715 375.679 633.721 379.366C631.166 381.111 628.733 381.205 625.715 380.901C622.85 380.153 620.848 378.416 618.758 376.399C618.528 376.199 618.297 375.999 618.061 375.793C610.714 369.116 606.166 357.683 602.797 348.57C602.797 348.3 602.797 348.03 602.797 347.751C602.369 347.606 602.369 347.606 601.932 347.459C600.538 346.838 599.408 346.004 598.218 345.066C597.986 344.884 597.753 344.703 597.514 344.517C595.698 343.087 593.967 341.578 592.268 340.011C591.404 339.217 590.519 338.457 589.624 337.699C587.984 336.261 586.58 334.704 585.199 333.018C584.857 332.605 584.515 332.192 584.163 331.766C581.322 328.278 578.863 324.629 576.605 320.741C576.366 320.33 576.366 320.33 576.122 319.911C571.073 311.114 567.181 300.621 566.373 290.456C566.34 290.059 566.34 290.059 566.306 289.654C565.287 275.685 571.885 259.821 579.469 248.303C579.624 248.066 579.778 247.829 579.937 247.585C587.922 235.458 599.582 226.797 613.846 223.748C614.18 223.675 614.513 223.603 614.856 223.528C618.681 222.784 622.473 222.784 626.354 222.801Z" fill="#8AC9FE"/>
<path d="M598.295 281.862C598.977 282.235 598.977 282.235 599.673 282.616C603.198 284.616 606.545 286.921 609.888 289.208C610.23 289.44 610.572 289.672 610.924 289.911C611.433 290.257 611.433 290.257 611.952 290.61C613.099 291.318 614.278 291.852 615.501 292.416C617.393 293.428 617.393 293.428 617.948 294.655C618.13 295.755 618.174 296.784 618.169 297.899C618.204 298.674 618.241 299.45 618.278 300.225C618.294 300.776 618.294 300.776 618.311 301.338C618.639 309.96 622.824 320.715 628.989 326.879C629.072 327.505 629.131 328.133 629.179 328.763C629.226 329.35 629.226 329.35 629.274 329.949C629.323 330.582 629.323 330.582 629.373 331.228C629.446 332.098 629.521 332.969 629.596 333.84C629.797 336.162 629.797 336.162 629.879 337.187C630.594 345.845 634.115 353.995 637.992 361.666C635.056 361.432 632.394 360.798 629.577 359.952C629.142 359.822 628.707 359.692 628.258 359.558C615.052 355.561 602.46 349.411 592.268 340.011C591.404 339.217 590.519 338.457 589.624 337.699C587.984 336.261 586.58 334.704 585.199 333.018C584.857 332.605 584.515 332.192 584.163 331.766C581.322 328.278 578.863 324.629 576.605 320.741C576.366 320.33 576.366 320.33 576.122 319.911C571.462 311.792 568.13 302.604 566.782 293.321C566.691 292.83 566.691 292.83 566.599 292.329C566.425 290.638 566.531 289.602 567.494 288.17C574.818 280.378 588.589 276.375 598.295 281.862Z" fill="#FEE8C8"/>
<path d="M630.626 341.613C631.854 342.022 631.854 342.022 632.546 343.278C632.803 343.83 633.059 344.384 633.312 344.938C635.546 349.599 638.404 353.731 641.573 357.804C641.752 358.033 641.93 358.262 642.113 358.498C643.044 359.667 644.01 360.739 645.084 361.779C646.177 362.894 646.177 362.894 646.177 363.712C646.42 363.818 646.662 363.924 646.911 364.034C647.883 364.568 648.428 365.118 649.17 365.938C654.343 371.216 662.207 376.774 669.786 376.936C671.636 376.929 673.093 376.642 674.825 375.99C677.172 384.198 677.172 384.198 675.388 387.423C673.585 388.988 671.766 389.171 669.454 389.06C659.416 387.842 650.353 379.268 644.278 371.72C642.263 369.142 640.378 366.589 638.811 363.712C638.771 364.187 638.731 364.662 638.689 365.151C638.215 370.286 637.715 375.679 633.721 379.366C631.166 381.111 628.733 381.205 625.715 380.901C622.85 380.153 620.848 378.416 618.757 376.399C618.527 376.199 618.297 375.999 618.06 375.793C610.548 368.965 606.21 357.457 602.797 348.161C604.318 348.737 605.727 349.424 607.158 350.197C616.516 355.197 626.872 360.255 637.583 361.257C637.278 360.683 637.278 360.683 636.968 360.098C635.356 357.003 633.926 353.893 632.723 350.616C632.606 350.299 632.489 349.981 632.369 349.654C630.457 344.314 630.457 344.314 630.626 341.613Z" fill="#23A7FE"/>
<path d="M568.829 288C568.89 288.216 568.952 288.432 569.015 288.654C572.237 299.876 576.728 310.555 584.38 319.513C584.75 319.962 585.119 320.412 585.488 320.862C596.416 334.07 611.521 342.355 627.696 347.468C628.243 347.649 628.243 347.649 628.802 347.834C629.418 348.034 630.039 348.221 630.666 348.386C631.806 348.743 632.534 349.164 633.165 350.185C633.621 351.21 633.998 352.24 634.36 353.302C634.633 354.042 634.907 354.783 635.182 355.522C635.311 355.877 635.441 356.231 635.574 356.596C636.245 358.357 637.104 360.008 637.992 361.666C635.056 361.432 632.394 360.799 629.577 359.952C629.142 359.822 628.707 359.692 628.258 359.558C615.052 355.561 602.46 349.411 592.268 340.011C591.404 339.218 590.519 338.457 589.624 337.699C587.984 336.261 586.58 334.704 585.199 333.018C584.857 332.605 584.515 332.192 584.163 331.767C581.322 328.279 578.863 324.629 576.605 320.741C576.366 320.33 576.366 320.33 576.122 319.911C571.327 311.557 566.862 300.953 566.68 291.198C566.67 290.854 566.659 290.511 566.648 290.157C566.782 289.228 566.782 289.228 567.352 288.491C568.01 288 568.01 288 568.829 288Z" fill="#FDDBA8"/>
<path d="M774.555 257.946C775.501 258.125 775.501 258.125 775.911 258.534C776.073 261.108 775.65 263.22 774.887 265.67C774.778 266.026 774.668 266.382 774.555 266.748C771.531 276.208 766.246 285.134 757.197 289.819C754.287 291.202 751.385 292.154 748.137 292.133C747.593 292.131 747.593 292.131 747.038 292.129C746.665 292.125 746.292 292.122 745.907 292.118C745.526 292.116 745.145 292.115 744.752 292.113C743.816 292.108 742.879 292.101 741.943 292.093C741.956 292.542 741.97 292.992 741.984 293.455C741.981 295.599 741.649 297.658 741.278 299.766C741.205 300.177 741.133 300.588 741.058 301.011C738.716 313.667 733.23 326.553 724.88 336.447C724.32 337.118 724.32 337.118 723.812 337.931C721.606 341.012 718.449 341.422 714.957 342.149C714.375 342.281 713.793 342.413 713.211 342.547C711.47 342.941 709.724 343.303 707.975 343.659C707.672 343.721 707.368 343.784 707.056 343.849C706.16 344.035 705.264 344.214 704.366 344.392C703.841 344.497 703.315 344.602 702.773 344.711C701.58 344.866 700.899 344.889 699.79 344.477C700.355 344.194 700.355 344.194 700.931 343.905C704.763 341.946 708.24 339.72 711.658 337.11C712.03 336.83 712.403 336.55 712.787 336.262C718.124 332.079 722.921 327.118 726.8 321.559C727.1 321.129 727.4 320.7 727.708 320.258C734.112 310.675 738.639 300.026 740.715 288.673C741.003 287.194 741.349 286.056 742.224 284.803C742.411 284.522 742.598 284.241 742.791 283.951C744.868 281.681 747.049 280.715 750 280.02C754.75 278.789 758.642 277.314 762.405 274.086C762.736 273.835 763.068 273.584 763.409 273.326C766.971 270.327 769.151 266.215 771.086 262.065C772.926 258.211 772.926 258.211 774.555 257.946Z" fill="#61B8FE"/>
<path d="M721.071 340.794C708.907 353.652 691.446 363.406 673.401 364.248C672.229 364.249 671.081 364.226 669.914 364.121C669.365 362.213 668.82 360.303 668.277 358.392C668.156 357.969 668.034 357.546 667.909 357.11C666.784 353.11 666.597 349.444 666.64 345.296C667.309 345.382 667.309 345.382 667.991 345.47C672.482 346.026 676.901 346.263 681.424 346.242C681.752 346.242 682.079 346.241 682.416 346.24C688.012 346.222 693.448 345.823 698.971 344.887C699.331 344.83 699.691 344.773 700.062 344.714C705.436 343.862 710.706 342.636 715.973 341.284C716.458 341.162 716.943 341.04 717.443 340.914C717.877 340.802 718.31 340.69 718.757 340.575C719.843 340.385 719.843 340.385 721.071 340.794Z" fill="#FCDBA9"/>
<path d="M599.113 275.314C599.499 275.488 599.499 275.488 599.893 275.667C603.839 277.506 607.411 279.856 611.007 282.297C617.48 286.688 624.836 291.648 633.005 290.175C633.58 290.008 634.151 289.827 634.718 289.638C635.085 289.517 635.451 289.396 635.828 289.271C639.886 287.764 643.444 285.248 646.331 282.015C647.405 281.043 647.405 281.043 648.889 280.787C650.27 281.043 650.27 281.043 651.268 281.657C651.986 282.807 652.245 283.718 652.16 285.081C651.057 288.893 645.034 292.092 641.74 293.992C635.82 297.025 629.281 298.211 622.825 296.186C616.758 294.109 611.609 290.807 606.309 287.273C598.21 281.876 591.088 278.517 581.073 280.49C579.792 280.86 578.632 281.3 577.423 281.862C576.976 282.065 576.529 282.269 576.069 282.479C572.14 284.432 569.055 286.99 566.373 290.456C566.351 289.211 566.335 287.967 566.322 286.722C566.312 286.196 566.312 286.196 566.301 285.66C566.267 281.176 566.267 281.176 567.937 279.459C576.87 273.387 588.973 270.672 599.113 275.314Z" fill="#24A7FE"/>
<path d="M630.626 341.613C631.853 342.022 631.853 342.022 632.546 343.278C632.803 343.83 633.058 344.384 633.311 344.938C635.546 349.599 638.404 353.731 641.573 357.804C641.841 358.147 641.841 358.147 642.113 358.498C643.044 359.667 644.01 360.739 645.084 361.779C646.177 362.894 646.177 362.894 646.177 363.712C646.419 363.818 646.662 363.924 646.911 364.034C647.883 364.568 648.428 365.118 649.17 365.938C654.343 371.216 662.206 376.774 669.786 376.936C671.636 376.929 673.093 376.642 674.825 375.99C677.172 384.198 677.172 384.198 675.388 387.423C673.585 388.988 671.766 389.171 669.454 389.06C659.053 387.797 649.82 378.751 643.617 370.901C641.357 367.958 639.282 364.973 637.583 361.666C637.442 361.393 637.301 361.12 637.155 360.839C635.243 357.102 633.608 353.315 632.263 349.337C632.084 348.814 632.084 348.814 631.902 348.281C631.179 346.049 630.814 343.951 630.626 341.613Z" fill="#61B8FE"/>
<path d="M610.163 363.712C611.785 364.232 613.341 364.819 614.898 365.509C622.185 368.693 629.351 371.239 637.174 372.716C636.804 375.537 635.755 377.46 633.695 379.417C631.121 381.091 628.719 381.204 625.715 380.901C622.85 380.153 620.848 378.416 618.757 376.399C618.527 376.199 618.297 375.999 618.06 375.793C614.727 372.763 612.284 368.471 610.163 364.531C610.163 364.261 610.163 363.99 610.163 363.712Z" fill="#5FB8FF"/>
<path d="M623.771 259.02C625.469 260.14 626.598 261.562 627.352 263.445C627.696 266.594 627.872 269.651 625.865 272.265C624.341 273.88 623.137 274.426 620.906 274.649C618.904 274.612 617.678 273.87 616.302 272.449C614.541 270.246 614.411 267.881 614.51 265.133C614.812 262.637 615.689 260.953 617.632 259.353C619.685 258.052 621.5 258.191 623.771 259.02Z" fill="#444146"/>
<path d="M666.64 345.296C667.307 345.383 667.307 345.383 667.988 345.471C672.509 346.033 676.948 346.246 681.501 346.217C681.99 346.216 681.99 346.216 682.49 346.215C687.61 346.201 692.663 345.971 697.743 345.296C696.864 346.275 696.129 346.763 694.896 347.213C694.579 347.33 694.261 347.447 693.935 347.567C693.427 347.747 693.427 347.747 692.909 347.93C692.381 348.119 692.381 348.119 691.843 348.312C684.012 351.083 675.821 353.138 667.458 352.662C667.323 353.068 667.188 353.473 667.049 353.89C666.506 351.037 666.61 348.19 666.64 345.296Z" fill="#FDE8C8"/>
<circle cx="761.94" cy="214.239" r="13" fill="#61B8FE"/>
</g>
</g>
</g>
<defs>
<linearGradient id="paint0_linear_2043_745" x1="417" y1="0" x2="417" y2="387.955" gradientUnits="userSpaceOnUse">
<stop stop-color="#8AC9FE"/>
<stop offset="0.336538" stop-color="#8AC9FE" stop-opacity="0.6"/>
<stop offset="0.913462" stop-color="#8AC9FE" stop-opacity="0.2"/>
</linearGradient>
<clipPath id="clip0_2043_745">
<rect width="834" height="387.955" fill="white"/>
</clipPath>
<clipPath id="clip1_2043_745">
<rect width="209.537" height="201.239" fill="white" transform="translate(566.373 186.716)"/>
</clipPath>
<clipPath id="clip2_2043_745">
<rect width="209.537" height="209.537" fill="white" transform="translate(566.373 201.239)"/>
</clipPath>
</defs>
</svg>
