<svg width="835" height="388" viewBox="0 0 835 388" fill="none" xmlns="http://www.w3.org/2000/svg">
<g clip-path="url(#clip0_2043_818)">
<rect width="834.096" height="388" fill="url(#paint0_linear_2043_818)"/>
<circle cx="838.394" cy="82.3067" r="90.182" transform="rotate(-31.4396 838.394 82.3067)" stroke="#A4E883" stroke-width="37.3476"/>
<circle cx="531.061" cy="32.8843" r="64.0074" fill="#A4E883"/>
<circle cx="539.667" cy="323.881" r="8.50098" fill="#A4E883"/>
<path d="M792.801 265.381C792.801 270.076 788.995 273.882 784.3 273.882C779.605 273.882 775.799 270.076 775.799 265.381C775.799 260.686 779.605 256.88 784.3 256.88C788.995 256.88 792.801 260.686 792.801 265.381Z" fill="#A4E883"/>
<circle cx="633.872" cy="142.128" r="19.7112" fill="#A4E883"/>
<g clip-path="url(#clip1_2043_818)">
<g clip-path="url(#clip2_2043_818)">
<path d="M636.086 194.516C638.329 196.047 640.389 197.766 641.936 200.022C641.936 200.284 641.936 200.546 641.936 200.816C646.535 200.856 651.133 200.875 655.732 200.867C657.867 200.863 660.003 200.867 662.138 200.888C664.201 200.908 666.263 200.909 668.326 200.896C669.111 200.894 669.896 200.9 670.681 200.912C675.017 201.107 675.017 201.107 678.91 199.556C679.864 198.536 679.864 198.536 680.569 197.447C683.014 193.873 688.3 191.83 692.373 190.888C700.913 190.105 707.45 192.122 714.067 197.625C714.378 197.892 714.69 198.158 715.01 198.433C715.477 198.827 715.477 198.827 715.953 199.229C717.943 200.946 719.708 202.749 721.364 204.788C721.657 205.145 721.95 205.502 722.252 205.87C732.657 218.96 739.751 235.065 742.016 251.65C742.053 251.917 742.09 252.184 742.128 252.459C743.773 265.432 741.216 278.309 733.206 288.803C729.913 292.992 725.952 297.314 721.364 300.102C721.102 300.102 720.84 300.102 720.57 300.102C720.78 300.601 720.78 300.601 720.994 301.111C734.864 334.303 734.864 334.303 728.959 349.024C728.214 350.755 727.394 352.44 726.527 354.113C726.909 354.176 727.29 354.239 727.683 354.304C743.962 357.049 743.962 357.049 748.469 360.17C749.309 361.488 749.416 362.394 749.467 363.93C748.995 365.345 748.005 366.06 746.782 366.822C745.305 367.493 743.771 367.992 742.232 368.501C740.047 369.28 738.947 370.043 737.647 371.984C737.274 372.754 737.274 372.754 737.151 373.499C737.095 373.766 737.039 374.033 736.982 374.308C736.845 375.212 736.759 376.113 736.679 377.023C736.532 378.517 736.233 379.529 735.264 380.722C733.942 381.162 732.972 381.158 731.58 381.144C731.089 381.141 730.599 381.137 730.093 381.134C729.058 381.124 728.023 381.114 726.987 381.103C726.496 381.1 726.005 381.097 725.499 381.094C725.049 381.089 724.599 381.085 724.135 381.08C723.122 381.113 722.309 381.156 721.364 381.516C720.921 382.417 720.921 382.417 720.57 383.502C720.142 384.265 719.694 385.018 719.23 385.76C718.997 386.139 718.765 386.517 718.526 386.907C717.78 387.884 717.344 388.26 716.202 388.664C714.076 388.942 713.113 388.346 711.436 387.076C710.741 386.282 710.117 385.516 709.5 384.668C709.33 384.441 709.159 384.214 708.984 383.98C707.919 382.554 706.886 381.104 705.851 379.654C704.284 377.485 702.552 375.515 700.713 373.573C700.419 373.263 700.125 372.953 699.823 372.633C697.735 370.459 697.735 370.459 694.79 369.955C692.82 370.062 690.94 370.206 689.196 371.19C687.371 373.32 686.463 376.095 685.622 378.736C685.977 379.01 686.332 379.284 686.698 379.566C694.939 385.954 694.939 385.954 696.345 388.664C696.469 389.732 696.469 389.732 696.345 390.65C695.286 391.708 694.651 391.717 693.167 391.842C692.16 391.68 691.158 391.479 690.164 391.246C687.686 390.641 687.686 390.641 685.225 391.047C684.19 391.982 684.19 391.982 683.239 393.033C682.258 393.982 681.773 394.205 680.409 394.423C677.878 394.096 675.81 392.846 673.707 391.444C671.513 391.612 669.725 392.499 667.75 393.407C666.473 393.858 665.521 393.935 664.176 393.827C663.779 393.43 663.779 393.43 663.63 392.139C663.695 387.581 666.675 382.685 669.339 379.133C669.208 376.774 669.077 374.415 668.942 371.984C663.044 372.116 657.147 372.247 651.07 372.382C650.384 378.612 650.384 378.612 652.999 383.083C655.054 386.011 656.334 389.424 656.233 393.033C656.102 393.295 655.971 393.557 655.836 393.827C653.162 393.696 651.316 393.092 648.956 391.826C647.609 391.342 646.882 391.459 645.51 391.842C644.408 392.39 644.408 392.39 643.351 393.058C640.37 394.717 640.37 394.717 638.362 394.224C637.47 393.582 636.686 392.896 635.898 392.13C635.15 391.371 635.15 391.371 633.993 390.65C632.502 390.759 631.085 390.995 629.618 391.282C629.203 391.36 628.787 391.438 628.359 391.519C627.968 391.598 627.577 391.678 627.175 391.759C625.9 391.853 625.196 391.62 624.065 391.047C623.667 390.65 623.667 390.65 623.618 389.484C624.319 385.291 629.585 382.274 632.802 379.927C633.332 379.531 633.862 379.134 634.39 378.736C633.05 374.121 633.05 374.121 629.977 370.658C627.329 369.627 624.568 369.43 621.95 370.577C620.771 371.484 619.861 372.437 618.902 373.573C618.584 373.92 618.266 374.267 617.938 374.625C615.625 377.259 613.601 380.12 611.576 382.978C607.911 388.144 607.911 388.144 606.193 388.664C604.578 388.875 603.397 388.712 602.053 387.741C600.871 386.483 600.126 384.931 599.327 383.413C598.623 382.271 598.205 381.789 597.059 381.119C595.855 380.968 595.855 380.968 594.527 381.03C594.038 381.038 593.548 381.045 593.044 381.053C592.534 381.066 592.024 381.08 591.499 381.094C590.49 381.118 589.48 381.138 588.471 381.154C588.023 381.166 587.576 381.178 587.115 381.19C585.935 381.119 585.318 380.987 584.35 380.324C583.271 378.705 583.288 377.081 583.145 375.189C582.949 373.208 582.491 371.961 581.173 370.396C579.291 368.89 577.29 368.254 575.009 367.624C573.153 367.064 572.052 366.358 570.848 364.836C570.487 363.599 570.577 362.516 570.848 361.262C572.868 358.087 577.411 357.286 580.856 356.505C585.045 355.597 589.256 354.811 593.485 354.113C593.261 353.728 593.261 353.728 593.033 353.336C587.17 342.54 588.566 330.906 591.921 319.537C593.959 312.916 596.566 306.4 599.442 300.102C599.17 300.017 598.898 299.932 598.618 299.844C597.102 299.144 595.995 298.172 594.751 297.074C594.38 296.749 594.38 296.749 594.002 296.418C593.296 295.796 592.596 295.17 591.896 294.542C591.594 294.274 591.292 294.006 590.981 293.73C585.637 288.708 581.979 282.102 579.634 275.231C579.521 274.899 579.407 274.568 579.29 274.227C577.844 269.754 577.452 265.266 577.475 260.586C577.477 260.102 577.479 259.618 577.482 259.119C577.77 237.348 588.149 214.749 603.528 199.48C612.597 190.8 624.93 187.634 636.086 194.516Z" fill="#ADE194"/>
<path d="M730.102 331.873C732.128 334.913 731.156 340.64 730.467 344.103C729.643 347.664 728.204 350.878 726.527 354.113C726.909 354.176 727.29 354.239 727.683 354.304C743.962 357.049 743.962 357.049 748.47 360.17C749.309 361.488 749.416 362.395 749.467 363.93C748.995 365.345 748.006 366.06 746.782 366.822C745.305 367.493 743.771 367.993 742.232 368.501C740.047 369.28 738.948 370.043 737.647 371.985C737.274 372.754 737.274 372.754 737.151 373.499C737.095 373.766 737.039 374.033 736.982 374.309C736.845 375.213 736.76 376.113 736.679 377.024C736.532 378.517 736.233 379.53 735.265 380.722C733.943 381.163 732.972 381.158 731.58 381.144C731.089 381.141 730.599 381.138 730.093 381.135C729.058 381.124 728.023 381.114 726.987 381.104C726.496 381.1 726.005 381.097 725.499 381.094C725.049 381.09 724.599 381.085 724.135 381.08C723.122 381.114 722.309 381.156 721.365 381.516C720.921 382.417 720.921 382.417 720.57 383.502C720.142 384.265 719.694 385.018 719.23 385.761C718.998 386.139 718.765 386.517 718.526 386.907C717.78 387.884 717.344 388.26 716.202 388.665C714.076 388.942 713.113 388.347 711.436 387.076C710.741 386.282 710.117 385.517 709.5 384.669C709.33 384.442 709.16 384.215 708.984 383.981C707.919 382.554 706.886 381.104 705.851 379.655C704.284 377.485 702.552 375.515 700.713 373.573C700.419 373.263 700.125 372.953 699.823 372.633C698.301 370.989 698.301 370.989 696.345 369.999C695.535 370.016 695.535 370.016 694.665 370.134C694.186 370.19 694.186 370.19 693.699 370.247C693.368 370.288 693.037 370.329 692.696 370.371C692.36 370.411 692.025 370.451 691.679 370.492C690.851 370.59 690.024 370.691 689.196 370.793C689.447 368.65 690.155 366.819 690.958 364.836C691.747 362.864 692.522 360.904 693.167 358.879C693.439 358.827 693.711 358.775 693.991 358.722C708.516 356.233 708.516 356.233 720.874 348.645C721.365 348.156 721.365 348.156 722.159 348.156C722.268 347.917 722.378 347.677 722.491 347.43C722.953 346.568 722.953 346.568 723.996 345.476C727.285 341.71 728.966 336.657 730.102 331.873Z" fill="#98DB7B"/>
<path d="M589.513 331.873C589.644 331.873 589.775 331.873 589.91 331.873C590.021 332.301 590.133 332.728 590.247 333.169C592.387 341.089 596.085 347.519 603.358 351.765C607.928 354.304 612.625 356.14 617.796 356.979C618.58 357.114 619.364 357.25 620.149 357.386C620.923 357.512 621.702 357.613 622.48 357.714C626.048 358.319 626.048 358.319 627.186 359.914C627.702 361.145 628.082 362.358 628.433 363.645C628.662 364.224 628.899 364.801 629.148 365.371C629.349 365.863 629.549 366.355 629.749 366.847C629.853 367.099 629.958 367.352 630.066 367.612C630.523 368.741 630.816 369.562 630.816 370.793C630.322 370.695 629.828 370.596 629.319 370.494C625.569 369.796 625.569 369.796 621.936 370.575C620.791 371.496 619.857 372.456 618.902 373.573C618.425 374.093 618.425 374.093 617.938 374.624C615.627 377.26 613.601 380.12 611.576 382.978C607.911 388.144 607.911 388.144 606.193 388.665C604.578 388.875 603.397 388.712 602.053 387.742C600.871 386.484 600.126 384.932 599.327 383.413C598.623 382.271 598.205 381.789 597.059 381.119C595.855 380.968 595.855 380.968 594.527 381.031C593.793 381.042 593.793 381.042 593.044 381.053C592.534 381.067 592.024 381.08 591.499 381.094C590.49 381.118 589.48 381.138 588.471 381.155C588.023 381.166 587.576 381.178 587.115 381.19C585.935 381.119 585.318 380.987 584.35 380.325C583.271 378.706 583.288 377.081 583.145 375.189C582.949 373.208 582.491 371.961 581.173 370.396C579.291 368.89 577.29 368.255 575.009 367.625C573.153 367.064 572.052 366.358 570.848 364.836C570.487 363.599 570.577 362.517 570.848 361.262C572.868 358.087 577.411 357.286 580.856 356.505C585.045 355.597 589.256 354.812 593.485 354.113C593.336 353.857 593.187 353.6 593.033 353.336C589.452 346.742 588.402 339.73 589.116 332.271C589.247 332.139 589.378 332.008 589.513 331.873Z" fill="#98DB7B"/>
<path d="M730.102 331.873C732.124 334.907 731.153 340.618 730.488 344.081C728.836 351.325 724.826 357.931 718.611 362.121C712.204 365.958 705.572 368.051 698.269 369.443C697.45 369.607 697.45 369.607 696.345 369.999C695.786 370.082 695.226 370.152 694.665 370.212C694.346 370.246 694.027 370.281 693.699 370.316C693.368 370.351 693.037 370.385 692.696 370.421C692.192 370.475 692.192 370.475 691.679 370.53C690.851 370.619 690.024 370.706 689.196 370.793C689.447 368.65 690.155 366.819 690.958 364.836C691.747 362.864 692.522 360.904 693.167 358.879C693.439 358.827 693.711 358.775 693.991 358.722C708.516 356.233 708.516 356.233 720.874 348.645C721.365 348.156 721.365 348.156 722.159 348.156C722.268 347.917 722.378 347.677 722.491 347.43C722.953 346.568 722.953 346.568 723.996 345.476C727.285 341.71 728.966 336.657 730.102 331.873Z" fill="#98DB7C"/>
<path d="M589.513 331.873C589.644 331.873 589.775 331.873 589.91 331.873C590.022 332.301 590.133 332.728 590.247 333.169C592.387 341.089 596.085 347.519 603.358 351.765C607.928 354.304 612.625 356.14 617.796 356.979C618.58 357.114 619.364 357.25 620.149 357.386C620.923 357.512 621.702 357.613 622.48 357.714C626.048 358.319 626.048 358.319 627.186 359.914C627.702 361.145 628.082 362.358 628.433 363.645C628.662 364.224 628.899 364.801 629.148 365.371C629.349 365.863 629.549 366.355 629.749 366.847C629.854 367.099 629.958 367.352 630.066 367.612C630.523 368.741 630.816 369.562 630.816 370.793C618.826 369.905 604.747 366.888 596.265 357.688C590.126 350.326 588.757 342.429 589.04 333.071C589.116 332.271 589.116 332.271 589.513 331.873Z" fill="#98DB7C"/>
<path d="M728.414 354.436C729.792 354.653 731.136 354.948 732.485 355.305C731.205 362.426 727.043 368.435 721.326 372.804C717.067 375.647 710.685 379.133 705.479 379.133C704.849 378.446 704.849 378.446 704.139 377.47C702.046 374.739 699.6 372.393 697.139 369.999C697.27 369.737 697.401 369.475 697.536 369.205C698.679 368.931 699.807 368.698 700.961 368.485C709.304 366.82 719.162 363.645 724.145 356.223C725.438 354.455 726.243 354.282 728.414 354.436Z" fill="#82D361"/>
<path d="M593.351 354.362C594.758 354.587 595.123 355.365 595.942 356.496C602.571 364.997 613.256 367.383 623.27 369.602C622.227 370.664 621.203 371.679 620.019 372.58C617.827 374.414 616.219 376.847 614.533 379.133C606.167 377.967 598.185 373.613 592.69 367.219C589.955 363.542 588.498 359.631 587.13 355.305C587.949 355.171 588.768 355.039 589.588 354.908C590.044 354.834 590.5 354.76 590.97 354.684C591.764 354.58 592.558 354.473 593.351 354.362Z" fill="#82D361"/>
<path d="M646.702 219.085C647.793 219.927 648.233 220.438 648.563 221.787C648.604 222.19 648.645 222.592 648.687 223.007C648.973 224.997 649.247 226.321 650.673 227.822C653.628 229.667 656.212 229.901 659.634 229.932C660.258 229.949 660.258 229.949 660.894 229.967C664.28 229.994 666.887 229.289 669.736 227.45C670.812 225.802 670.9 224.264 671.066 222.324C671.373 220.838 671.83 220.137 672.913 219.085C674.009 218.74 674.973 218.851 676.09 219.085C677.083 219.606 677.083 219.606 677.679 220.673C678.209 224.361 677.42 227.869 675.271 230.9C672.254 234.495 667.923 236.029 663.382 236.559C657.188 236.904 651.289 236.471 646.247 232.496C643.982 230.336 642.519 227.655 642.2 224.53C642.195 224.093 642.19 223.656 642.184 223.205C642.173 222.766 642.162 222.327 642.15 221.874C642.554 219.225 644.249 218.734 646.702 219.085Z" fill="#FD4A56"/>
<path d="M651.865 360.865C657.238 360.865 662.611 360.865 668.147 360.865C668.344 362.257 668.541 363.65 668.743 365.084C668.805 365.519 668.868 365.953 668.932 366.401C668.98 366.75 669.028 367.099 669.078 367.458C669.128 367.811 669.178 368.165 669.23 368.529C669.346 369.676 669.339 370.832 669.339 371.985C663.179 372.116 657.02 372.247 650.673 372.382C650.796 370.629 650.919 368.876 651.046 367.07C651.102 366.241 651.102 366.241 651.16 365.396C651.192 364.962 651.223 364.529 651.255 364.082C651.286 363.637 651.317 363.192 651.35 362.734C651.468 361.659 651.468 361.659 651.865 360.865Z" fill="#98DB7C"/>
<path d="M624.164 204.862C625.581 205.796 626.484 206.847 627.242 208.362C627.566 211.845 627.521 214.71 625.256 217.496C623.512 219.35 621.697 220.275 619.175 220.5C617.195 220.457 616.144 219.625 614.771 218.259C613.353 216.554 613.133 214.66 613.194 212.504C613.666 209.415 615.416 207.235 617.763 205.295C619.728 203.951 622.022 204.079 624.164 204.862Z" fill="#444144"/>
<path d="M700.316 204.391C703.265 205.557 705.129 207.924 706.422 210.745C706.967 213.359 706.894 215.242 705.58 217.563C704.6 218.995 703.648 220.096 701.849 220.438C699.778 220.522 698.145 220.152 696.345 219.085C694.323 217.183 692.921 215.421 692.637 212.596C692.595 208.753 692.595 208.753 693.416 206.923C695.556 204.782 697.292 203.811 700.316 204.391Z" fill="#444144"/>
</g>
</g>
</g>
<defs>
<linearGradient id="paint0_linear_2043_818" x1="417.048" y1="0" x2="417.048" y2="388" gradientUnits="userSpaceOnUse">
<stop stop-color="#BEFFA0"/>
<stop offset="0.336538" stop-color="#BEFFA0" stop-opacity="0.6"/>
<stop offset="0.913462" stop-color="#BEFFA0" stop-opacity="0.2"/>
</linearGradient>
<clipPath id="clip0_2043_818">
<rect width="834.096" height="388" fill="white"/>
</clipPath>
<clipPath id="clip1_2043_818">
<rect width="201.262" height="205.412" fill="white" transform="translate(560.214 182.588)"/>
</clipPath>
<clipPath id="clip2_2043_818">
<rect width="203.337" height="203.337" fill="white" transform="translate(558.139 190.888)"/>
</clipPath>
</defs>
</svg>
