<svg width="834" height="388" viewBox="0 0 834 388" fill="none" xmlns="http://www.w3.org/2000/svg">
<g clip-path="url(#clip0_2043_685)">
<rect width="834" height="387.955" fill="url(#paint0_linear_2043_685)"/>
<circle cx="838.297" cy="82.2973" r="90.1716" transform="rotate(-31.4396 838.297 82.2973)" stroke="#FAE634" stroke-width="37.3433"/>
<circle cx="531" cy="32.8806" r="64" fill="#FAE634"/>
<circle cx="545.828" cy="238.784" r="8.5" fill="#FAE634"/>
<circle cx="790.985" cy="233.045" r="13" fill="#FAE634"/>
<circle cx="650.396" cy="152.485" r="19.709" fill="#FAE634"/>
<g clip-path="url(#clip1_2043_685)">
<g clip-path="url(#clip2_2043_685)">
<path d="M703.542 237.965C704.428 238.77 705.331 239.546 706.244 240.32C707.884 241.758 709.283 243.319 710.669 245.001C710.932 245.314 710.932 245.314 711.2 245.634C722.498 259.14 729.548 275.494 733.715 292.5C733.819 292.923 733.924 293.347 734.031 293.783C734.637 296.344 735.04 298.852 735.224 301.478C735.494 301.343 735.764 301.208 736.043 301.068C744.445 300.536 754.243 300.323 761.041 306.05C763.189 308.098 763.564 309.565 763.667 312.476C763.534 316.667 761.748 319.424 759.37 322.759C759.079 323.184 759.079 323.184 758.782 323.617C757.3 325.706 755.606 327.272 753.64 328.898C753.287 329.214 752.934 329.531 752.569 329.857C749.372 332.665 745.962 334.734 742.181 336.673C741.812 336.864 741.442 337.055 741.061 337.252C739.108 338.19 737.385 338.563 735.224 338.72C735.164 339.033 735.104 339.345 735.042 339.668C733.555 346.768 730.567 353.654 725.811 359.182C725.524 359.519 725.237 359.855 724.942 360.202C717.544 368.653 706.062 375.563 694.708 376.78C694.843 377.185 694.978 377.59 695.117 378.008C695.338 380.612 694.979 382.389 693.48 384.556C691.59 386.707 689.339 387.339 686.541 387.533C685.956 387.541 685.372 387.545 684.787 387.544C684.473 387.546 684.158 387.547 683.835 387.549C683.174 387.551 682.513 387.552 681.852 387.55C680.85 387.549 679.849 387.558 678.848 387.569C671.349 387.6 671.349 387.6 668.984 385.527C667.376 383.877 667.155 382.862 666.47 380.463C661.338 380.463 656.206 380.463 650.918 380.463C650.31 382.287 650.31 382.287 649.69 384.147C647.483 386.482 645.607 387.306 642.342 387.533C641.757 387.541 641.172 387.545 640.588 387.544C640.273 387.546 639.959 387.547 639.635 387.549C638.974 387.551 638.313 387.552 637.652 387.55C636.651 387.549 635.65 387.558 634.649 387.569C627.354 387.599 627.354 387.599 624.676 385.518C622.728 382.963 622.114 381.232 622.27 378.008C622.405 377.603 622.54 377.198 622.68 376.78C621.895 376.654 621.895 376.654 621.094 376.524C608.598 373.983 596.399 366.858 589.177 356.219C585.779 350.968 583.028 344.957 582.164 338.72C581.693 338.682 581.221 338.644 580.736 338.605C578.822 338.362 577.262 337.72 575.539 336.878C575.086 336.659 575.086 336.659 574.624 336.437C566.387 332.348 557.999 325.192 554.334 316.62C553.516 314.164 553.465 311.137 554.239 308.659C556.188 305.172 559.911 303.401 563.565 302.224C567.692 301.237 571.632 300.949 575.871 300.992C576.389 300.992 576.906 300.992 577.44 300.993C581.23 301.011 581.23 301.011 582.164 301.478C582.182 301.236 582.2 300.994 582.218 300.744C583.178 289.535 587.404 277.552 592.395 267.51C592.685 266.919 592.685 266.919 592.982 266.316C595.689 260.845 598.527 255.603 602.217 250.73C602.507 250.347 602.796 249.963 603.095 249.568C604.735 247.469 606.495 245.485 608.292 243.519C609.091 242.637 609.863 241.739 610.632 240.832C612.065 239.192 613.637 237.792 615.313 236.407C615.615 236.15 615.918 235.894 616.229 235.63C641.633 214.591 679.341 215.825 703.542 237.965Z" fill="#FEFEFE"/>
<path d="M703.542 237.965C704.428 238.77 705.331 239.546 706.244 240.32C707.884 241.758 709.283 243.319 710.669 245.001C710.932 245.314 710.932 245.314 711.2 245.634C722.498 259.14 729.548 275.494 733.715 292.5C733.819 292.923 733.924 293.347 734.031 293.783C734.637 296.344 735.04 298.852 735.224 301.478C735.494 301.343 735.764 301.208 736.043 301.068C744.445 300.536 754.243 300.323 761.041 306.05C763.189 308.098 763.564 309.565 763.667 312.476C763.534 316.667 761.748 319.424 759.37 322.759C759.079 323.184 759.079 323.184 758.782 323.617C757.3 325.706 755.606 327.272 753.64 328.898C753.287 329.214 752.934 329.531 752.569 329.857C749.372 332.665 745.962 334.734 742.181 336.673C741.812 336.864 741.442 337.055 741.061 337.252C739.108 338.19 737.385 338.563 735.224 338.72C735.164 339.033 735.104 339.345 735.042 339.668C733.555 346.768 730.567 353.654 725.811 359.182C725.524 359.519 725.237 359.855 724.942 360.202C722.4 363.106 719.769 365.85 716.398 367.777C715.986 365.874 715.609 363.982 715.367 362.05C713.719 349.177 709.737 336.678 704.509 324.84C704.305 324.379 704.102 323.918 703.892 323.443C703.618 322.83 703.618 322.83 703.338 322.204C702.18 319.39 701.952 316.379 703.123 313.525C704.299 311.169 705.982 309.191 707.692 307.206C713.921 299.711 715.801 290.536 715.171 281.015C714.222 273.325 709.401 265.407 703.493 260.485C699.868 257.786 696.134 255.821 691.843 254.414C691.482 254.283 691.121 254.152 690.748 254.017C681.981 251.277 673.038 253.629 665.164 257.686C664.187 258.228 663.298 258.863 662.403 259.529C660.859 260.598 659.645 260.963 657.762 260.847C655.859 260.344 654.319 259.242 652.697 258.164C645.27 253.363 636.451 251.871 627.797 253.608C619.217 255.677 611.784 261.066 607.051 268.456C602.322 276.44 600.889 285.194 602.994 294.253C604.816 300.295 607.849 305.397 612.137 310.03C614.144 312.426 615.086 315.167 615.041 318.265C614.585 322.312 612.446 326.177 610.789 329.856C605.467 341.732 602.791 354.943 600.989 367.777C591.53 362.331 585.776 352.141 582.778 341.956C582.498 340.888 582.315 339.813 582.164 338.72C581.693 338.682 581.221 338.644 580.736 338.605C578.822 338.362 577.262 337.72 575.539 336.878C575.086 336.66 575.086 336.66 574.624 336.437C566.387 332.348 557.999 325.192 554.334 316.62C553.516 314.164 553.465 311.137 554.239 308.659C556.188 305.172 559.911 303.401 563.565 302.224C567.692 301.237 571.632 300.949 575.871 300.992C576.389 300.992 576.906 300.992 577.44 300.993C581.23 301.011 581.23 301.011 582.164 301.478C582.182 301.236 582.2 300.994 582.218 300.744C583.178 289.535 587.404 277.552 592.395 267.51C592.685 266.919 592.685 266.919 592.982 266.316C595.689 260.845 598.527 255.603 602.217 250.73C602.507 250.347 602.796 249.963 603.095 249.568C604.735 247.469 606.495 245.485 608.292 243.519C609.091 242.637 609.863 241.739 610.632 240.832C612.065 239.192 613.637 237.792 615.313 236.407C615.615 236.15 615.918 235.894 616.229 235.63C641.633 214.591 679.341 215.825 703.542 237.965Z" fill="#434955"/>
<path d="M621.452 255.641C621.271 258.071 621.055 260.492 620.763 262.911C620.075 268.653 619.761 274.426 619.406 280.196C621.229 279.994 621.229 279.994 623.089 279.787C623.026 278.977 623.026 278.977 622.961 278.15C622.961 275.919 623.731 274.522 625.135 272.83C627.394 270.736 629.128 270.179 632.168 270.248C634.698 270.525 636.34 271.609 638.001 273.495C639.223 275.019 639.53 275.95 639.562 277.92C639.572 278.316 639.583 278.712 639.594 279.121C639.459 280.196 639.459 280.196 638.941 280.941C637.693 281.791 636.405 281.694 634.957 281.424C633.7 280.334 633.396 278.89 632.911 277.332C632.451 276.777 632.451 276.777 631.249 276.897C630.852 276.905 630.455 276.914 630.046 276.922C629.641 278.003 629.236 279.083 628.819 280.196C629.241 280.289 629.663 280.382 630.098 280.478C632.357 281.135 633.703 282.488 635.111 284.34C636.321 286.653 636.114 289.328 635.367 291.758C633.548 294.259 631.138 296.466 628 296.976C621.836 297.372 621.836 297.372 620.224 296.566C623.412 318.777 629.162 339.961 645.067 356.577C645.495 357.028 645.915 357.487 646.332 357.95C651.469 363.483 658.836 367.531 665.703 370.462C666.022 370.599 666.342 370.736 666.672 370.877C669.785 372.152 672.705 372.331 676.035 372.261C676.775 372.251 677.515 372.243 678.256 372.234C679.411 372.219 680.565 372.201 681.72 372.177C682.843 372.155 683.966 372.143 685.089 372.133C685.43 372.123 685.772 372.113 686.123 372.103C688.496 372.093 690.269 372.585 692.253 373.915C692.645 374.358 692.645 374.358 693.046 374.81C694.364 375.969 695.869 375.889 697.573 375.961C696.49 376.559 695.979 376.78 694.708 376.78C694.843 377.185 694.978 377.59 695.118 378.008C695.338 380.612 694.98 382.389 693.481 384.556C691.591 386.707 689.339 387.339 686.541 387.533C685.956 387.541 685.372 387.544 684.787 387.544C684.473 387.545 684.159 387.547 683.835 387.549C683.174 387.551 682.513 387.552 681.852 387.55C680.85 387.548 679.85 387.558 678.848 387.568C671.349 387.6 671.349 387.6 668.984 385.527C667.376 383.876 667.155 382.862 666.47 380.463C661.338 380.463 656.206 380.463 650.918 380.463C650.513 381.679 650.108 382.894 649.691 384.147C647.483 386.481 645.608 387.306 642.342 387.533C641.757 387.541 641.173 387.544 640.588 387.544C640.274 387.545 639.959 387.547 639.636 387.549C638.975 387.551 638.314 387.552 637.653 387.55C636.651 387.548 635.65 387.558 634.649 387.568C627.354 387.599 627.354 387.599 624.677 385.518C622.728 382.963 622.115 381.232 622.271 378.008C622.406 377.603 622.541 377.197 622.68 376.78C621.895 376.653 621.895 376.653 621.094 376.524C613.913 375.064 606.907 372.116 600.99 367.776C601.828 353.023 606.538 338.271 612.47 324.84C612.673 324.379 612.877 323.918 613.086 323.443C613.269 323.034 613.452 322.625 613.64 322.204C614.799 319.389 615.027 316.379 613.855 313.525C612.68 311.169 610.997 309.19 609.286 307.205C603.191 299.872 601.098 290.78 601.808 281.424C602.881 272.732 608.092 264.641 614.904 259.325C620.244 255.641 620.244 255.641 621.452 255.641Z" fill="#E4E4E4"/>
<path d="M629.712 372.153C630.045 372.146 630.379 372.14 630.722 372.133C631.258 372.13 631.258 372.13 631.805 372.126C632.176 372.123 632.548 372.119 632.931 372.115C633.716 372.109 634.502 372.106 635.288 372.104C636.482 372.099 637.676 372.079 638.871 372.059C639.636 372.055 640.401 372.052 641.167 372.05C641.521 372.042 641.875 372.034 642.239 372.026C644.798 372.044 646.475 372.707 648.463 374.325C650.389 376.448 650.509 377.006 650.509 380.054C655.911 380.054 661.313 380.054 666.879 380.054C666.879 379.109 666.879 378.163 666.879 377.189C668.106 374.871 669.797 373.318 672.199 372.278C673.011 372.169 673.011 372.169 673.874 372.159C674.199 372.154 674.524 372.149 674.859 372.144C675.382 372.142 675.382 372.142 675.915 372.141C676.277 372.138 676.639 372.135 677.013 372.133C677.779 372.128 678.546 372.127 679.312 372.127C680.477 372.125 681.642 372.11 682.806 372.094C683.553 372.092 684.3 372.09 685.046 372.09C685.391 372.084 685.736 372.078 686.092 372.072C688.468 372.09 690.264 372.583 692.253 373.915C692.515 374.211 692.776 374.506 693.046 374.811C694.364 375.969 695.869 375.889 697.573 375.962C696.49 376.559 695.979 376.78 694.708 376.78C694.843 377.185 694.978 377.59 695.118 378.008C695.338 380.612 694.98 382.389 693.481 384.556C691.591 386.707 689.339 387.339 686.541 387.533C685.957 387.541 685.372 387.545 684.787 387.544C684.473 387.546 684.159 387.547 683.835 387.549C683.174 387.551 682.513 387.552 681.852 387.55C680.85 387.549 679.85 387.558 678.848 387.569C671.349 387.6 671.349 387.6 668.984 385.527C667.376 383.877 667.155 382.862 666.47 380.463C661.338 380.463 656.206 380.463 650.918 380.463C650.513 381.679 650.108 382.894 649.691 384.147C647.483 386.482 645.608 387.306 642.342 387.533C641.757 387.541 641.173 387.545 640.588 387.544C640.274 387.546 639.959 387.547 639.636 387.549C638.975 387.551 638.314 387.552 637.653 387.55C636.651 387.549 635.65 387.558 634.649 387.569C627.354 387.599 627.354 387.599 624.677 385.518C622.728 382.963 622.115 381.232 622.271 378.008C622.406 377.603 622.541 377.198 622.68 376.78C622.275 376.645 621.87 376.51 621.452 376.371C622.127 376.371 622.803 376.371 623.498 376.371C623.591 376.135 623.684 375.898 623.78 375.655C625.033 373.507 627.248 372.19 629.712 372.153Z" fill="#F5D78C"/>
<path d="M755.222 302.641C758.284 303.719 761.742 305.74 763.221 308.759C764.064 311.911 763.864 315.333 762.344 318.225C761.4 319.774 760.424 321.281 759.37 322.759C759.176 323.042 758.982 323.325 758.782 323.617C757.301 325.706 755.606 327.271 753.641 328.897C753.11 329.372 753.11 329.372 752.569 329.857C749.371 332.665 745.96 334.729 742.181 336.673C741.634 336.96 741.634 336.96 741.075 337.252C739.56 337.988 738.234 338.392 736.553 338.553C736.226 338.586 735.899 338.618 735.562 338.652C735.316 338.674 735.069 338.696 734.815 338.719C734.868 338.377 734.868 338.377 734.921 338.028C735.633 333.351 736.286 328.719 736.452 323.986C736.474 323.474 736.495 322.961 736.517 322.432C736.651 317.591 736.15 312.797 735.661 307.986C735.633 307.708 735.605 307.429 735.576 307.141C735.497 306.375 735.417 305.608 735.337 304.841C735.24 303.71 735.202 302.611 735.224 301.477C740.242 298.969 749.976 301.096 755.222 302.641Z" fill="#3D424D"/>
<path d="M667.365 284.407C669.502 286.072 670.42 288.067 670.754 290.725C670.791 295.315 670.019 299.596 667.09 303.322C664.878 305.5 661.979 307.297 658.822 307.386C655.706 307.325 652.694 305.708 650.509 303.524C647.59 300.006 646.071 295.617 646.29 291.04C646.653 288.11 647.653 286.332 649.986 284.484C654.574 281.51 662.699 281.658 667.365 284.407Z" fill="#F7D88B"/>
<path d="M689.951 271.04C691.983 272.214 693.398 273.932 694.299 276.104C694.379 277.07 694.379 277.07 694.35 278.048C694.343 278.375 694.335 278.702 694.328 279.039C694.318 279.286 694.309 279.533 694.299 279.787C694.628 279.745 694.957 279.703 695.297 279.66C697.979 279.895 700.082 281.292 701.845 283.292C703.425 285.242 703.948 286.831 703.893 289.338C703.472 291.875 701.813 293.803 699.798 295.313C696.633 297.431 693.057 297.321 689.388 296.976C686.469 296.36 684.199 294.89 682.431 292.474C681.384 290.317 681.301 288.283 681.612 285.926C682.585 283.168 684.775 281.466 687.342 280.197C687.747 280.197 688.152 280.197 688.57 280.197C688.164 279.116 687.759 278.036 687.342 276.923C686.531 276.923 685.721 276.923 684.886 276.923C684.743 277.213 684.6 277.504 684.453 277.804C684.267 278.18 684.081 278.556 683.889 278.943C683.704 279.318 683.518 279.694 683.328 280.08C682.84 281.015 682.84 281.015 682.431 281.424C679.439 281.617 679.439 281.617 678.449 280.94C677.382 279.414 677.705 277.467 677.929 275.695C678.91 273.616 680.57 272.109 682.431 270.784C684.859 269.974 687.603 269.962 689.951 271.04Z" fill="#F17382"/>
<path d="M634.256 270.641C636.557 271.674 638.33 273.436 639.459 275.695C639.519 276.435 639.55 277.177 639.561 277.92C639.572 278.316 639.583 278.712 639.593 279.12C639.459 280.196 639.459 280.196 638.941 280.941C637.692 281.791 636.405 281.694 634.957 281.424C633.7 280.334 633.396 278.89 632.911 277.332C632.451 276.776 632.451 276.776 631.249 276.897C630.653 276.909 630.653 276.909 630.046 276.922C629.641 278.003 629.236 279.083 628.819 280.196C629.241 280.289 629.663 280.382 630.097 280.478C632.357 281.135 633.703 282.488 635.111 284.34C636.321 286.653 636.114 289.328 635.367 291.758C633.539 294.271 631.143 296.44 628 296.976C624.009 297.328 620.275 297.502 616.95 294.929C615.335 293.413 613.887 291.73 613.524 289.488C613.452 286.8 613.974 285.116 615.722 283.061C617.476 281.256 619.459 279.852 622.015 279.71C622.547 279.748 622.547 279.748 623.089 279.787C623.065 279.559 623.042 279.331 623.017 279.096C622.861 276.458 623.45 274.86 625.135 272.83C627.824 270.338 630.671 269.618 634.256 270.641Z" fill="#F17281"/>
<path d="M653.373 283.47C653.276 283.958 653.276 283.958 653.177 284.455C652.274 290.703 652.528 297.489 656.38 302.744C657.635 304.191 659.017 305.527 660.74 306.389C660.74 306.659 660.74 306.929 660.74 307.207C656.946 307.57 654.577 306.448 651.429 304.445C648.123 301.139 646.386 296.812 646.237 292.141C646.354 289.696 646.702 287.736 648.426 285.921C651.165 283.47 651.165 283.47 653.373 283.47Z" fill="#F4D07C"/>
<path d="M689.951 271.04C691.991 272.219 693.379 273.933 694.299 276.104C694.523 277.757 694.498 279.277 693.89 280.836C692.783 281.632 691.927 281.604 690.59 281.602C689.56 281.371 689.216 281.023 688.57 280.197C688.181 279.361 688.181 279.361 687.879 278.483C687.776 278.19 687.673 277.897 687.567 277.596C687.493 277.374 687.418 277.152 687.342 276.923C686.531 276.923 685.721 276.923 684.886 276.923C684.743 277.213 684.6 277.504 684.453 277.804C684.267 278.18 684.081 278.556 683.889 278.943C683.704 279.318 683.518 279.694 683.328 280.08C682.84 281.015 682.84 281.015 682.431 281.424C679.439 281.617 679.439 281.617 678.449 280.94C677.382 279.414 677.705 277.467 677.929 275.695C678.91 273.616 680.57 272.109 682.431 270.784C684.859 269.974 687.603 269.962 689.951 271.04Z" fill="#484F5B"/>
<path d="M634.255 270.641C636.557 271.674 638.33 273.436 639.459 275.695C639.519 276.435 639.549 277.177 639.561 277.92C639.572 278.316 639.582 278.712 639.593 279.12C639.459 280.196 639.459 280.196 638.941 280.941C637.692 281.791 636.405 281.694 634.957 281.424C633.7 280.334 633.396 278.89 632.911 277.332C632.45 276.777 632.45 276.777 631.248 276.897C630.653 276.909 630.653 276.909 630.046 276.922C629.937 277.179 629.829 277.435 629.717 277.699C629.572 278.034 629.428 278.368 629.279 278.713C629.136 279.045 628.994 279.377 628.847 279.72C628.409 280.606 628.409 280.606 627.591 281.424C624.7 281.699 624.7 281.699 623.498 280.836C622.755 278.931 622.665 277.096 623.477 275.194C625.904 271.098 629.573 269.304 634.255 270.641Z" fill="#484F5A"/>
<path d="M619.406 281.015C619.676 286.012 619.946 291.009 620.224 296.157C617.497 295.612 615.86 294.274 614.315 291.962C613.392 290.143 613.318 288.323 613.676 286.335C614.636 283.99 616.678 281.015 619.406 281.015Z" fill="#D96875"/>
</g>
</g>
</g>
<defs>
<linearGradient id="paint0_linear_2043_685" x1="417" y1="0" x2="417" y2="387.955" gradientUnits="userSpaceOnUse">
<stop stop-color="#FFEF5F"/>
<stop offset="0.177885" stop-color="#FFEF5F" stop-opacity="0.6"/>
<stop offset="0.913462" stop-color="#FFEF5F" stop-opacity="0.2"/>
</linearGradient>
<clipPath id="clip0_2043_685">
<rect width="834" height="387.955" fill="white"/>
</clipPath>
<clipPath id="clip1_2043_685">
<rect width="209.537" height="201.239" fill="white" transform="translate(553.925 186.716)"/>
</clipPath>
<clipPath id="clip2_2043_685">
<rect width="209.537" height="209.537" fill="white" transform="translate(553.925 199.164)"/>
</clipPath>
</defs>
</svg>
