<svg width="834" height="311" viewBox="0 0 834 311" fill="none" xmlns="http://www.w3.org/2000/svg">
<g clip-path="url(#clip0_242_265)">
<rect width="834" height="311" fill="white"/>
<rect width="834" height="311" fill="url(#paint0_linear_242_265)"/>
<mask id="mask0_242_265" style="mask-type:alpha" maskUnits="userSpaceOnUse" x="0" y="0" width="834" height="311">
<rect width="834" height="311" fill="url(#paint1_linear_242_265)"/>
</mask>
<g mask="url(#mask0_242_265)">
</g>
<g clip-path="url(#clip1_242_265)">
<path d="M661.924 311.41C642.984 311.41 624.044 311.41 604.906 311.218C604.707 304.741 604.707 298.456 604.708 292.172C604.708 291.625 604.61 291.055 604.736 290.536C606.907 281.598 614.373 274.388 624.885 274.487C630.249 274.538 635.615 274.499 640.979 274.491C641.584 274.491 642.188 274.426 642.851 274.387C642.851 261.443 642.868 248.673 642.796 235.904C642.793 235.363 642.09 234.564 641.519 234.328C633.959 231.203 626.941 227.316 621.261 221.426C620.068 220.189 618.734 219.079 617.446 217.762C616.81 216.637 616.255 215.619 615.567 214.693C611.15 208.746 607.825 202.269 606.336 195.092C605.415 190.652 604.812 186.072 604.777 181.549C604.606 159.205 604.673 136.86 604.678 114.325C604.703 109.894 604.705 105.652 604.707 101.41C623.647 101.41 642.587 101.41 661.725 101.602C661.923 109.053 661.923 116.311 661.906 123.653C661.89 123.736 661.86 123.903 661.746 123.991C661.269 124.66 660.866 125.221 660.548 125.824C657.269 132.023 653.972 138.214 650.76 144.445C650.124 145.678 649.292 146.349 647.899 146.518C644.691 146.906 641.487 147.328 638.287 147.772C633.303 148.463 628.322 149.184 623.058 149.933C623.504 150.474 623.722 150.805 624.006 151.071C629.467 156.209 634.856 161.424 640.459 166.413C641.902 167.697 642.203 168.944 641.924 170.535C641.172 174.833 640.346 179.118 639.566 183.411C638.985 186.603 638.429 189.799 637.816 193.258C638.578 193.065 639.062 193.025 639.463 192.828C644.431 190.383 649.381 187.905 654.347 185.458C656.853 184.223 659.383 183.033 661.908 182.013C661.917 225.273 661.92 268.341 661.924 311.41Z" fill="#FFDA2D"/>
<path d="M662.122 311.41C661.92 268.342 661.917 225.273 661.923 181.999C661.933 181.793 661.964 181.765 662.11 181.801C670.031 185.648 677.806 189.459 685.798 193.375C685.798 192.757 685.836 192.494 685.792 192.246C684.452 184.663 683.09 177.083 681.781 169.495C681.679 168.903 681.692 168.016 682.059 167.669C685.179 164.715 688.478 161.935 691.557 158.942C694.565 156.018 697.376 152.905 700.225 149.926C700.413 149.997 700.179 149.857 699.93 149.822C692.069 148.718 684.213 147.577 676.339 146.569C674.861 146.38 673.882 145.988 673.195 144.639C671.23 140.784 669.152 136.983 667.106 133.167C665.387 129.963 663.651 126.769 661.922 123.57C661.923 116.311 661.923 109.053 661.924 101.602C680.864 101.41 699.803 101.41 718.942 101.602C719.16 106.037 719.178 110.279 719.179 114.712C719.155 137.716 719.184 160.529 719.099 183.342C719.087 186.52 718.79 189.751 718.135 192.862C716.589 200.204 713.837 207.111 709.324 213.29C708.247 214.765 707.354 216.366 706.244 217.952C699.566 225.03 692.032 230.744 682.748 233.997C681.214 234.535 680.968 235.278 680.972 236.634C681.013 248.592 680.996 260.551 680.996 272.509C680.996 273.156 680.996 273.802 680.996 274.496C687.319 274.496 693.321 274.419 699.319 274.538C701.36 274.579 703.461 274.888 705.412 275.462C713.325 277.789 719.48 285.925 719.182 293.987C718.969 299.788 719.141 305.602 719.141 311.41C700.201 311.41 681.261 311.41 662.122 311.41Z" fill="#FDBF00"/>
<path d="M770.424 166.023C770.142 166.472 769.676 166.689 769.605 166.993C767.567 175.713 763.328 183.308 756.447 189.231C752.99 192.207 748.771 194.354 744.742 196.74C744.598 191.803 744.608 187 744.751 182.157C745.381 181.635 745.83 181.094 746.383 180.684C751.21 177.097 754.048 172.209 755.996 166.783C757.563 162.418 757.636 157.828 757.685 153.279C757.772 145.167 757.709 137.053 757.709 128.94C757.709 128.283 757.709 127.627 757.709 126.851C753.189 126.851 748.905 126.851 744.606 126.659C744.585 122.512 744.58 118.558 744.77 114.573C753.452 114.541 761.938 114.538 770.424 114.535C770.424 131.634 770.424 148.732 770.424 166.023Z" fill="#FDBF00"/>
<path d="M579.234 196.992C574.435 194.838 570.112 191.999 566.379 188.373C560.203 182.373 556.148 175.228 554.255 166.944C554.173 166.586 553.88 166.274 553.555 166.077C553.424 149.116 553.424 132.018 553.622 114.727C562.305 114.558 570.788 114.58 579.273 114.791C579.261 118.938 579.248 122.897 579.039 126.849C574.638 126.842 570.431 126.842 566.139 126.842C566.139 136.873 566.064 146.641 566.187 156.407C566.222 159.134 566.584 161.914 567.24 164.568C569.03 171.806 572.951 177.775 579.248 182.387C579.251 187.384 579.243 192.188 579.234 196.992Z" fill="#FFDA2D"/>
<path d="M579.273 114.791C587.604 114.579 595.936 114.556 604.461 114.524C604.673 136.86 604.606 159.205 604.777 181.549C604.812 186.072 605.415 190.652 606.336 195.092C607.825 202.269 611.15 208.746 615.567 214.693C616.255 215.619 616.81 216.637 617.446 217.762C617.465 231.478 617.465 245.046 617.465 258.532C611.13 252.392 604.837 246.294 598.255 239.915C591.793 246.182 585.696 252.094 579.272 258.324C579.272 237.811 579.272 217.593 579.253 197.184C579.243 192.188 579.251 187.384 579.266 182.195C579.259 163.493 579.247 145.174 579.234 126.856C579.248 122.897 579.261 118.938 579.273 114.791Z" fill="#FF9100"/>
<path d="M661.918 181.808C659.383 183.033 656.853 184.223 654.347 185.458C649.381 187.905 644.431 190.383 639.463 192.828C639.062 193.025 638.578 193.065 637.816 193.258C638.429 189.799 638.985 186.603 639.566 183.411C640.346 179.118 641.172 174.833 641.924 170.535C642.203 168.944 641.902 167.697 640.459 166.413C634.856 161.424 629.467 156.209 624.006 151.071C623.722 150.805 623.504 150.474 623.058 149.933C628.322 149.184 633.303 148.463 638.287 147.772C641.487 147.328 644.691 146.906 647.899 146.518C649.292 146.349 650.124 145.679 650.76 144.445C653.972 138.214 657.268 132.023 660.547 125.824C660.866 125.221 661.269 124.66 661.766 124.19C661.907 126.345 661.921 128.39 661.923 130.435C661.938 147.545 661.951 164.655 661.964 181.765C661.964 181.765 661.933 181.793 661.918 181.808Z" fill="#FDBF00"/>
<path d="M662.11 181.801C661.951 164.655 661.938 147.545 661.923 130.435C661.921 128.39 661.907 126.345 661.88 124.102C661.86 123.904 661.89 123.736 661.906 123.653C663.651 126.769 665.387 129.963 667.106 133.167C669.152 136.983 671.23 140.784 673.195 144.639C673.882 145.988 674.861 146.38 676.339 146.569C684.213 147.577 692.069 148.718 699.93 149.822C700.179 149.858 700.413 149.997 700.225 149.926C697.376 152.905 694.565 156.018 691.557 158.942C688.478 161.935 685.179 164.715 682.059 167.669C681.692 168.016 681.679 168.903 681.781 169.495C683.09 177.083 684.452 184.663 685.792 192.246C685.836 192.495 685.798 192.757 685.798 193.375C677.806 189.459 670.031 185.648 662.11 181.801Z" fill="#FF9100"/>
<path d="M719.179 114.712C727.525 114.529 735.853 114.537 744.378 114.574C744.58 118.558 744.585 122.512 744.584 126.851C744.591 145.556 744.605 163.877 744.618 182.198C744.608 187 744.598 191.803 744.604 196.797C744.604 216.806 744.587 236.624 744.57 256.442C744.57 257.172 744.57 257.902 744.57 258.698C738.153 252.474 731.856 246.366 724.785 239.508C718.404 245.698 712.318 251.601 706.419 257.324C706.419 244.632 706.419 231.462 706.397 218.1C707.354 216.366 708.247 214.765 709.324 213.29C713.837 207.111 716.589 200.204 718.135 192.862C718.79 189.751 719.087 186.52 719.099 183.342C719.184 160.529 719.155 137.717 719.179 114.712Z" fill="#FF641A"/>
</g>
<path d="M528.832 83.6935C527.282 82.8004 527.293 80.5591 528.853 79.6819L533.986 76.7948C534.347 76.5915 534.647 76.2946 534.854 75.9352L537.794 70.8321C538.687 69.2816 540.928 69.2932 541.806 70.8527L544.693 75.9858C544.896 76.3473 545.193 76.6473 545.552 76.8543L550.655 79.794C552.206 80.6872 552.194 82.9285 550.635 83.8056L545.502 86.6927C545.14 86.896 544.84 87.193 544.633 87.5523L541.694 92.6555C540.8 94.2059 538.559 94.1944 537.682 92.6349L534.795 87.5017C534.592 87.1403 534.295 86.8403 533.935 86.6333L528.832 83.6935Z" fill="#FDBD31"/>
<path d="M407.386 -59.2059C413.615 -70.1473 429.385 -70.1473 435.614 -59.2059L456.113 -23.193C457.557 -20.657 459.657 -18.5569 462.193 -17.1133L498.206 3.38639C509.147 9.61461 509.147 25.3854 498.206 31.6136L462.193 52.1133C459.657 53.5569 457.557 55.657 456.113 58.193L435.614 94.2059C429.385 105.147 413.615 105.147 407.386 94.2059L386.887 58.193C385.443 55.657 383.343 53.5569 380.807 52.1133L344.794 31.6136C333.853 25.3854 333.853 9.61462 344.794 3.3864L380.807 -17.1133C383.343 -18.5569 385.443 -20.657 386.887 -23.193L407.386 -59.2059Z" fill="#FDBD31"/>
<path d="M526.46 226.198C528.722 224.9 531.537 226.558 531.498 229.165L531.371 237.748C531.362 238.352 531.516 238.948 531.817 239.472L536.089 246.917C537.387 249.178 535.729 251.993 533.121 251.954L524.539 251.827C523.934 251.818 523.339 251.972 522.815 252.273L515.37 256.545C513.108 257.843 510.294 256.185 510.332 253.577L510.46 244.995C510.469 244.391 510.315 243.795 510.014 243.271L505.742 235.826C504.444 233.564 506.102 230.75 508.709 230.788L517.292 230.916C517.896 230.925 518.492 230.771 519.016 230.47L526.46 226.198Z" fill="#FDBD31"/>
<path d="M782.906 202.536C783.373 200.808 785.542 200.245 786.79 201.528L790.895 205.751C791.184 206.049 791.547 206.263 791.948 206.371L797.633 207.906C799.361 208.373 799.924 210.542 798.641 211.79L794.418 215.894C794.12 216.184 793.906 216.547 793.798 216.948L792.263 222.633C791.796 224.361 789.627 224.924 788.379 223.64L784.275 219.418C783.985 219.12 783.622 218.906 783.221 218.798L777.536 217.263C775.808 216.796 775.246 214.627 776.529 213.379L780.752 209.274C781.049 208.985 781.263 208.622 781.371 208.221L782.906 202.536Z" fill="#FDBD31"/>
<path d="M817.92 38.2559C820.644 33.0851 827.961 32.846 831.016 37.8281L841.073 54.226C841.781 55.3807 842.788 56.3233 843.986 56.9546L861.005 65.9199C866.176 68.6438 866.415 75.9608 861.433 79.0163L845.035 89.0732C843.881 89.7814 842.938 90.7877 842.307 91.9861L833.341 109.005C830.618 114.176 823.301 114.415 820.245 109.433L810.188 93.0353C809.48 91.8806 808.474 90.9381 807.275 90.3067L790.256 81.3415C785.085 78.6176 784.846 71.3006 789.828 68.2451L806.226 58.1881C807.381 57.4799 808.323 56.4737 808.955 55.2752L817.92 38.2559Z" fill="#FDBD31"/>
<path d="M543.5 -13.5H662.5H779.5L719.1 102H606.9L543.5 -13.5Z" fill="url(#paint2_linear_242_265)" fill-opacity="0.48"/>
</g>
<defs>
<linearGradient id="paint0_linear_242_265" x1="417" y1="0" x2="417" y2="311" gradientUnits="userSpaceOnUse">
<stop stop-color="#FFC850"/>
<stop offset="0.399471" stop-color="#FFC850" stop-opacity="0.6"/>
<stop offset="1" stop-color="#FFC850" stop-opacity="0.2"/>
</linearGradient>
<linearGradient id="paint1_linear_242_265" x1="417" y1="0" x2="417" y2="311" gradientUnits="userSpaceOnUse">
<stop stop-color="#FFC850"/>
<stop offset="0.399471" stop-color="#FFC850" stop-opacity="0.6"/>
<stop offset="1" stop-color="#FFC850" stop-opacity="0.2"/>
</linearGradient>
<linearGradient id="paint2_linear_242_265" x1="663" y1="-150" x2="663" y2="102" gradientUnits="userSpaceOnUse">
<stop offset="0.211538" stop-color="#BDDEFC" stop-opacity="0"/>
<stop offset="1" stop-color="#E6F3FF"/>
</linearGradient>
<clipPath id="clip0_242_265">
<rect width="834" height="311" fill="white"/>
</clipPath>
<clipPath id="clip1_242_265">
<rect width="217" height="210" fill="white" transform="translate(553 101)"/>
</clipPath>
</defs>
</svg>
