<svg width="244" height="222" viewBox="0 0 244 222" fill="none" xmlns="http://www.w3.org/2000/svg">
<g clip-path="url(#clip0_2062_525)">
<path d="M111.273 210.471C100.32 210.471 89.6033 208.661 79.4239 205.087C73.2539 202.929 67.3168 200.144 61.7803 196.804C59.9964 195.725 58.2297 194.579 56.5211 193.4C54.6003 192.048 52.8609 190.745 51.2208 189.422H51.2174L50.6936 189.008C47.386 186.299 44.2291 183.33 41.3085 180.187C34.8304 173.213 29.513 165.364 25.5104 156.861C25.0516 155.899 24.6031 154.894 24.1443 153.791C19.3473 142.606 16.9129 130.702 16.9129 118.421C16.9129 93.8288 26.7259 70.7128 44.5476 53.3315C62.3692 35.9502 86.0663 26.3745 111.277 26.3745C136.487 26.3745 160.174 35.9469 177.999 53.3315C195.824 70.7161 205.641 93.8321 205.641 118.424C205.641 134.306 201.429 149.947 193.462 163.661C193.294 163.985 193.116 164.289 192.931 164.563C191.407 167.138 189.836 169.516 188.134 171.827C185.042 176.052 181.584 180.034 177.855 183.651C172.737 188.611 167.067 192.983 160.999 196.65C153.107 201.46 144.493 205.087 135.402 207.432C127.602 209.449 119.484 210.471 111.273 210.471Z" fill="white"/>
<path d="M111.273 28.1413C162.379 28.1413 203.823 68.5517 203.823 118.421C203.823 134.546 199.485 149.713 191.859 162.826C191.719 163.1 191.562 163.374 191.383 163.631C189.925 166.099 188.36 168.481 186.658 170.795C183.635 174.927 180.262 178.814 176.575 182.398C171.586 187.231 166.05 191.516 160.044 195.15C152.368 199.83 143.917 203.41 134.94 205.725C127.387 207.679 119.463 208.707 111.273 208.707C100.31 208.707 89.8053 206.857 80.0368 203.43C73.9593 201.306 68.1591 198.581 62.7321 195.307C60.9757 194.245 59.2534 193.13 57.5654 191.964C55.6138 190.591 53.7169 189.172 51.8748 187.662H51.8577C48.5707 184.97 45.5165 182.091 42.6507 179.008C36.3609 172.238 31.1086 164.526 27.1539 156.129C26.678 155.134 26.2397 154.142 25.8186 153.13C21.2339 142.435 18.7207 130.715 18.7207 118.428C18.7207 68.5584 60.1471 28.148 111.27 28.148M111.27 24.6143C98.2864 24.6143 85.6897 27.0959 73.8291 31.9856C62.376 36.7117 52.0905 43.4718 43.2602 52.0856C34.4298 60.6994 27.4963 70.7327 22.6549 81.9049C17.6388 93.4746 15.0982 105.762 15.0982 118.428C15.0982 131.093 17.5771 143.067 22.47 154.479C22.9356 155.598 23.3944 156.624 23.8669 157.612C27.9483 166.28 33.365 174.275 39.9663 181.383C42.9417 184.586 46.1568 187.612 49.526 190.371L50.536 191.199H50.5703C52.0939 192.408 53.6998 193.604 55.446 194.833L55.4597 194.843L55.4734 194.853C57.2127 196.055 59.0103 197.218 60.825 198.313C66.4745 201.72 72.5246 204.559 78.8178 206.76C89.189 210.401 100.111 212.244 111.277 212.244C119.642 212.244 127.917 211.202 135.871 209.145C145.133 206.757 153.915 203.059 161.968 198.153C168.138 194.422 173.918 189.963 179.133 184.913C182.933 181.223 186.46 177.168 189.613 172.856C191.336 170.518 192.928 168.107 194.475 165.495C194.677 165.187 194.872 164.857 195.057 164.506C203.165 150.535 207.449 134.607 207.449 118.434C207.449 105.769 204.905 93.4813 199.889 81.9116C195.044 70.7394 188.11 60.7061 179.276 52.0923C170.446 43.4785 160.161 36.715 148.707 31.9923C136.85 27.0992 124.254 24.6209 111.273 24.6209L111.27 24.6143Z" fill="#E2EFFA"/>
<path d="M186.662 170.795C183.639 174.927 180.266 178.814 176.578 182.398C171.59 187.231 166.053 191.516 160.048 195.15C152.371 199.83 143.921 203.41 134.943 205.725C127.39 207.679 119.467 208.707 111.277 208.707C100.313 208.707 89.8087 206.857 80.0402 203.43C73.9627 201.306 68.1625 198.58 62.7356 195.307C60.9791 194.245 59.2569 193.13 57.5688 191.964C55.6172 190.591 53.7203 189.172 51.8783 187.662H51.8611C48.5741 184.97 45.52 182.091 42.6541 179.008C36.3644 172.238 31.112 164.526 27.1574 156.129C26.6814 155.134 26.2432 154.142 25.822 153.13C26.7876 152.085 27.8422 151.056 28.8625 150.131C31.8139 147.475 34.536 145.522 34.536 145.522C35.7994 144.613 37.2066 143.688 38.7337 142.779C39.9458 142.041 41.1408 141.39 42.2809 140.809C42.8767 140.859 43.4759 140.896 44.0717 140.946C84.2345 143.858 124.411 146.791 164.591 149.703C165.505 150.251 167.56 151.503 170.124 153.354C173.586 155.855 177.979 159.456 181.79 163.895C183.601 166.002 185.285 168.317 186.655 170.802L186.662 170.795Z" fill="white"/>
<path d="M160.044 195.147C152.368 199.826 143.917 203.407 134.94 205.721C127.387 207.675 119.464 208.704 111.273 208.704C100.31 208.704 89.8053 206.854 80.0368 203.427C73.9593 201.303 68.1591 198.577 62.7322 195.304C60.9757 194.242 59.2534 193.126 57.5654 191.961C60.1642 184.987 64.0675 178.731 68.9329 173.487C71.4803 170.712 74.3085 168.227 77.349 166.066C79.3178 164.626 81.3892 163.34 83.5326 162.191C93.5819 156.827 105.319 154.583 117.282 156.52C125.452 157.839 132.865 160.976 139.227 165.465C143.743 168.634 147.711 172.509 151.015 176.894C153.316 179.927 155.302 183.217 156.918 186.697C158.181 189.406 159.236 192.231 160.044 195.147Z" fill="#D9E9F8"/>
<path d="M72.0103 62.5002C84.3865 49.8315 84.9222 30.733 73.2067 19.8424C61.4912 8.95194 41.9611 10.3935 29.5849 23.0622C17.2087 35.7309 16.673 54.8295 28.3885 65.72C40.104 76.6105 59.6341 75.1689 72.0103 62.5002Z" fill="white"/>
<path d="M219.322 85.9042C233.157 77.7147 236.828 58.9476 227.521 43.9867C218.215 29.0259 199.454 23.5366 185.619 31.7261C171.784 39.9155 168.113 58.6826 177.42 73.6435C186.727 88.6044 205.487 94.0937 219.322 85.9042Z" fill="white"/>
<path d="M61.8901 53.3785C68.7481 46.3584 69.135 35.8592 62.7543 29.9278C56.3737 23.9965 45.6416 24.879 38.7836 31.8991C31.9256 38.9192 31.5387 49.4184 37.9194 55.3498C44.3 61.2812 55.0321 60.3986 61.8901 53.3785Z" fill="#D9E9F8"/>
<path d="M212.359 73.7861C219.894 69.3258 221.822 58.9894 216.665 50.6992C211.508 42.409 201.219 39.3042 193.684 43.7645C186.149 48.2248 184.221 58.5611 189.378 66.8514C194.535 75.1416 204.824 78.2464 212.359 73.7861Z" fill="#D9E9F8"/>
<path d="M215.591 104.457C215.286 107.209 214.824 109.924 214.225 112.583C207.962 140.111 186.155 161.847 157.723 171.55C143.887 176.286 128.486 178.163 112.54 176.477C96.7286 174.807 82.211 169.827 69.8163 162.425C43.9929 147.045 27.3115 121.166 27.2293 92.8568C27.2293 90.1247 27.3765 87.3659 27.6847 84.6004C32.7076 39.3436 78.8453 7.0961 130.742 12.5803C182.625 18.0646 220.617 59.1998 215.591 104.457Z" fill="white"/>
<path d="M110.037 33.7524C110.048 35.6195 110.404 38.4485 112.28 40.9935C116.478 46.6782 125.914 47.7202 130.537 44.3101C133.515 42.1124 133.163 38.4652 130.057 36.5747C128.342 35.5293 123.901 34.7277 124.25 37.8907C124.654 41.5346 129.16 44.3769 132.307 45.5392C136.042 46.922 140.298 47.1591 144.181 46.2573C145.171 46.0269 146.143 45.7096 147.081 45.3288" stroke="#95B4CE" stroke-width="1.9284" stroke-miterlimit="10" stroke-linecap="round"/>
<path d="M114.584 62.7635C115.618 61.7649 114.05 58.455 112.739 56.6881C112.218 55.9901 110.239 53.3248 106.809 52.8538C105.442 52.6668 103.847 52.7703 102.563 53.2813C100.669 54.0362 100.827 55.7329 102.152 57.0522C104.381 59.2733 106.97 60.3821 109.918 61.8651C111.113 62.4663 112.787 63.4883 114.18 62.9973C114.331 62.9439 114.471 62.8771 114.588 62.7635H114.584Z" fill="#95B4CE"/>
<path d="M145.879 66.0733C145.088 64.8809 147.345 61.9751 149.016 60.5223C149.676 59.9478 152.196 57.7567 155.651 58.0173C157.028 58.1208 158.565 58.555 159.705 59.3232C161.39 60.4588 160.862 62.0787 159.281 63.094C156.802 64.6805 153.48 65.4354 150.639 66.1735C149.337 66.5108 147.478 67.1588 146.225 66.3873C146.088 66.3038 145.968 66.2069 145.879 66.0733Z" fill="#95B4CE"/>
<path d="M101.738 95.8962C101.806 99.4433 98.9096 102.376 95.2768 102.443C91.644 102.509 88.624 99.6838 88.5556 96.14C88.5145 93.9524 89.4458 90.9297 91.127 89.7373C94.8214 90.4454 98.5398 92.9904 101.656 95.0245C101.707 95.3084 101.734 95.6023 101.741 95.8996L101.738 95.8962Z" fill="#231F20" stroke="#231F20" stroke-width="0.723151" stroke-miterlimit="10" stroke-linecap="round"/>
<path d="M154.364 99.9975C153.658 103.478 155.976 106.861 159.544 107.549C163.122 108.241 166.591 105.976 167.299 102.496C167.734 100.348 167.029 98.2573 165.587 96.7944C161.821 96.8579 158.137 96.5874 154.706 98.0569C154.607 98.3275 154.425 99.7036 154.367 99.9941L154.364 99.9975Z" fill="#231F20" stroke="#231F20" stroke-width="0.723151" stroke-miterlimit="10" stroke-linecap="round"/>
<path d="M131.379 115.776C131.153 117.796 126.075 121.12 120.333 120.512C114.591 119.904 110.359 115.599 110.582 113.578C110.804 111.557 115.642 110.412 121.388 111.016C127.13 111.624 131.605 113.752 131.379 115.772V115.776Z" fill="#231F20" stroke="#231F20" stroke-width="0.723151" stroke-miterlimit="10" stroke-linecap="round"/>
<path d="M69.7034 164.172C43.88 148.792 27.1985 122.913 27.1163 94.6038C38.5592 94.9545 50.4334 99.6238 59.952 108.468C76.8971 124.223 80.6258 147.873 69.7068 164.172H69.7034Z" fill="#D9E9F8"/>
<path d="M214.112 114.329C207.849 141.858 186.042 163.594 157.61 173.297C150.652 155.131 159.486 132.906 179.437 121.093C190.531 114.523 202.967 112.426 214.112 114.329Z" fill="#D9E9F8"/>
<path d="M81.7248 88.4211C84.4229 88.1205 87.1757 88.2541 89.8704 88.7851C93.5648 89.4932 97.1428 90.9494 100.255 92.9835C101.039 93.5045 101.803 94.0489 102.522 94.6401" stroke="#231F20" stroke-width="1.9284" stroke-miterlimit="10" stroke-linecap="round"/>
<path d="M166.961 97.2623C164.358 96.5008 161.623 96.1635 158.877 96.2236C155.11 96.2871 151.33 97.1087 147.896 98.575C147.03 98.9557 146.181 99.3599 145.366 99.8174" stroke="#231F20" stroke-width="1.9284" stroke-miterlimit="10" stroke-linecap="round"/>
<path d="M165.221 70.2451C148.413 68.4682 133.324 80.3118 131.502 96.7077C131.355 98.0203 131.3 99.3196 131.334 100.605C131.362 102.152 131.523 103.678 131.8 105.175C131.803 105.228 131.821 105.285 131.838 105.342C132.122 106.871 132.519 108.368 133.057 109.807C136.83 120.321 146.523 128.324 158.63 129.603C175.438 131.38 190.531 119.526 192.349 103.141C194.171 86.7446 182.029 72.0253 165.221 70.2484V70.2451ZM159.202 124.463C149.519 123.441 141.719 117.222 138.377 108.975C137.812 107.589 137.384 106.163 137.097 104.687C137.08 104.63 137.063 104.587 137.059 104.533C136.778 103.08 136.624 101.587 136.614 100.064C136.607 99.1359 136.655 98.204 136.758 97.2655C138.264 83.7052 150.752 73.9057 164.653 75.3753C178.554 76.8449 188.59 89.0258 187.083 102.583C185.58 116.133 173.103 125.933 159.202 124.463Z" fill="#FFF099"/>
<path d="M88.583 62.1489C71.7748 60.372 56.6855 72.2156 54.8639 88.6115C53.0458 104.997 65.1837 119.727 81.9919 121.504C94.0784 122.78 105.292 116.998 111.304 107.539C112.133 106.237 112.872 104.857 113.475 103.421C113.533 103.297 113.591 103.164 113.639 103.04C114.225 101.647 114.708 100.188 115.074 98.6849C115.358 97.5059 115.574 96.2901 115.711 95.041C117.532 78.645 105.381 63.9224 88.583 62.1489ZM106.264 105.625C101.193 112.963 92.2089 117.385 82.5602 116.363C68.659 114.894 58.6132 102.713 60.1163 89.1626C61.6228 75.6023 74.1099 65.8028 88.0112 67.2724C101.902 68.7386 111.948 80.9229 110.441 94.4799C110.346 95.3316 110.209 96.1799 110.027 97.0016C109.695 98.4879 109.236 99.9274 108.644 101.287C108.586 101.42 108.524 101.554 108.466 101.688C107.87 103.08 107.127 104.393 106.261 105.619L106.264 105.625Z" fill="#FFF099"/>
<path d="M137.093 104.687C135.909 104.897 134.741 105.054 133.567 105.178C132.985 105.235 132.403 105.292 131.834 105.342C125.589 105.816 119.47 105.168 113.472 103.424C112.924 103.271 112.369 103.094 111.814 102.913C110.695 102.546 109.579 102.149 108.466 101.698C108.524 101.564 108.586 101.431 108.644 101.297C109.236 99.9375 109.695 98.4947 110.027 97.0117C111.393 97.5428 112.77 98.0137 114.15 98.4178C114.458 98.5147 114.759 98.6015 115.071 98.6884C120.484 100.221 125.907 100.869 131.331 100.612C131.653 100.592 131.988 100.572 132.31 100.555C133.735 100.459 135.179 100.298 136.611 100.071C136.618 101.594 136.775 103.087 137.056 104.54C137.059 104.593 137.076 104.64 137.093 104.694V104.687Z" fill="#FFF099"/>
<path d="M124.367 131.768C126.503 131.17 129.715 132.973 128.787 135.462C127.938 137.729 124.308 137.659 122.573 136.58" stroke="#231F20" stroke-width="1.9284" stroke-miterlimit="10" stroke-linecap="round"/>
<path d="M119.542 144.202C121.467 145.131 123.884 144.92 125.671 143.785C128.171 142.195 127.876 139.573 125.76 137.746" stroke="#231F20" stroke-width="1.9284" stroke-miterlimit="10" stroke-linecap="round"/>
<path d="M111.51 185.241C100.988 185.004 87.953 180.371 70.3197 173.998C64.3997 171.857 58.6337 169.309 53.0767 166.383C47.4374 163.411 42.2022 160.057 37.0526 156.353C34.649 154.626 32.2454 152.9 29.8418 151.173C28.9961 150.565 28.3729 149.793 28.9858 148.812C30.5403 146.327 32.8275 144.162 35.19 142.415C37.2272 140.909 39.5315 139.71 41.9831 138.992C42.1132 138.955 42.2536 138.915 42.3837 138.949C42.5515 138.992 42.6679 139.136 42.774 139.276C49.5671 148.257 58.7159 154.837 68.1249 160.996C68.4605 161.21 68.7892 161.437 69.1316 161.637C88.2303 172.843 103.063 175.107 111.794 175.685C112.181 177.378 111.116 183.547 111.503 185.241H111.51Z" fill="#95B4CE"/>
<path d="M191.387 163.631C189.928 166.099 188.364 168.481 186.662 170.795C183.639 174.927 180.266 178.815 176.578 182.398C174.363 183.083 172.134 183.718 169.867 184.266C166.95 184.987 164.016 185.585 161.082 186.082C159.695 186.306 158.305 186.51 156.918 186.7C155.353 186.907 153.792 187.094 152.21 187.231C150.207 187.418 148.238 187.555 146.324 187.659C140.23 188.02 134.553 188.003 129.407 187.729C126.736 187.575 124.189 187.352 121.799 187.061C117.95 186.617 114.489 185.982 111.503 185.244C111.133 185.157 110.784 185.057 110.431 184.97C110.661 184.526 111.027 183.925 111.431 183.203C111.448 183.203 111.448 183.187 111.448 183.187V183.153C112.486 181.353 113.872 179.042 114.471 177.91C118.248 178.731 123.36 179.556 129.828 179.536C130.16 179.536 130.495 179.536 130.828 179.519C136.539 179.449 143.25 178.748 151.015 176.898C152.878 176.433 154.792 175.922 156.778 175.338C157.147 175.234 157.497 175.114 157.866 174.977C166.389 171.721 174.435 168.705 181.796 163.888C183.502 162.773 185.152 161.574 186.785 160.238C186.908 160.134 187.066 160.014 187.223 160.031C187.347 160.031 187.47 160.101 187.576 160.168C189 161.126 190.264 162.308 191.387 163.628V163.631Z" fill="#95B4CE"/>
<path d="M115.06 164.469L117.084 171.313C117.351 172.212 118.049 172.923 118.96 173.217L125.887 175.468C128.174 176.213 128.595 179.192 126.599 180.508L120.552 184.499C119.758 185.024 119.282 185.892 119.275 186.827L119.22 193.948C119.203 196.299 116.426 197.609 114.526 196.166L108.764 191.79C108.007 191.216 107.011 191.042 106.1 191.323L99.139 193.47C96.8415 194.179 94.705 192.011 95.5267 189.8L98.0125 183.103C98.3378 182.225 98.2008 181.246 97.6427 180.488L93.397 174.693C91.9966 172.779 93.4518 170.131 95.8588 170.208L103.155 170.445C104.111 170.475 105.025 170.044 105.593 169.296L109.928 163.568C111.359 161.677 114.393 162.208 115.064 164.466L115.06 164.469Z" fill="#FFF099" stroke="#FCE264" stroke-width="2.0695" stroke-miterlimit="10"/>
<path d="M79.845 202.448C74.0243 200.378 68.4262 197.729 63.1944 194.576C61.4619 193.527 59.7396 192.412 58.0756 191.263C56.0246 189.823 54.1791 188.427 52.4398 187.004L52.1967 186.804H52.1796C49.0535 184.226 46.0712 181.41 43.3047 178.431C37.1416 171.797 32.0604 164.349 28.2017 156.287C29.3418 155.111 30.6155 154.015 31.9988 153.03C36.8163 149.577 42.6747 147.516 48.9405 147.075H48.9953C49.9061 147.005 50.8339 146.968 51.755 146.968C57.9078 146.968 64.1291 148.528 69.7512 151.48C74.9796 154.232 79.4992 158.107 82.8204 162.686C84.707 165.264 86.1965 168.03 87.2408 170.909C88.47 174.186 89.1239 177.532 89.1924 180.872C89.3157 185.942 88.1584 190.725 85.7479 195.084C84.19 197.889 82.2041 200.364 79.845 202.445V202.448Z" fill="white"/>
<path d="M51.755 147.826C57.764 147.826 63.8415 149.353 69.3301 152.235C74.4386 154.924 78.8555 158.711 82.1048 163.187C83.9435 165.699 85.3918 168.391 86.4121 171.196V171.203L86.419 171.209C87.6105 174.386 88.2508 177.642 88.3159 180.892C88.4357 185.809 87.3126 190.448 84.9775 194.67C83.5497 197.238 81.759 199.516 79.6464 201.456C74.062 199.432 68.6898 196.874 63.66 193.841C61.9412 192.802 60.2327 191.697 58.596 190.565C56.5622 189.135 54.7304 187.752 53.0047 186.34L52.5151 185.939H52.5014C49.4952 183.441 46.6225 180.722 43.9552 177.846C37.9873 171.423 33.0431 164.229 29.2562 156.447C30.2492 155.465 31.3448 154.55 32.5227 153.711C37.1963 150.361 42.8835 148.361 48.9747 147.926H48.9987L49.0672 147.92C49.9574 147.853 50.8613 147.82 51.7584 147.82M51.7584 146.106C50.81 146.106 49.8649 146.143 48.9302 146.213H48.9131C42.5 146.657 36.4568 148.768 31.4852 152.332C29.9205 153.444 28.4619 154.713 27.1642 156.119C31.1154 164.516 36.3712 172.228 42.661 178.998C45.5234 182.084 48.581 184.964 51.868 187.652H51.8851C53.7306 189.162 55.6274 190.581 57.5757 191.954C59.2637 193.12 60.9825 194.232 62.7424 195.297C68.1694 198.571 73.9695 201.296 80.047 203.42C82.6287 201.226 84.8269 198.554 86.5286 195.484C89.076 190.875 90.199 185.869 90.0758 180.849C90.0039 177.388 89.3191 173.942 88.0728 170.618C87.0011 167.669 85.474 164.827 83.5395 162.188C80.2182 157.612 75.7055 153.638 70.1689 150.722C64.2352 147.606 57.8941 146.106 51.7584 146.106Z" fill="#E2EFFA"/>
<path d="M69.5834 183.818C70.8708 189.87 65.9746 195.818 59.6163 195.775" stroke="#E2EFFA" stroke-width="1.50803" stroke-miterlimit="10" stroke-linecap="round"/>
<path d="M49.591 188.26C50.0121 188.21 50.8373 188.053 51.8577 187.659H51.8748C52.8746 187.265 54.0353 186.63 55.1241 185.552C57.3394 183.391 57.7777 180.872 57.9009 180.084" stroke="#E2EFFA" stroke-width="1.50803" stroke-miterlimit="10" stroke-linecap="round"/>
<path d="M48.2523 171.847C48.1667 172.572 47.7695 175.084 45.561 177.171C43.1882 179.416 40.3566 179.62 39.6547 179.65" stroke="#E2EFFA" stroke-width="1.50803" stroke-miterlimit="10" stroke-linecap="round"/>
<path d="M135.303 204.74C134.772 203.992 134.258 203.177 133.745 202.258C131.307 197.859 130.112 192.843 130.287 187.756C130.372 185.121 130.838 182.435 131.673 179.77C133.207 174.78 136.042 170.037 139.87 166.053C142.695 163.124 146.02 160.639 149.752 158.661C155.381 155.699 161.623 154.132 167.799 154.132C168.559 154.132 169.326 154.156 170.08 154.202C178.157 154.7 185.484 157.806 190.784 162.97C190.743 163.033 190.702 163.097 190.664 163.154L190.634 163.2C189.144 165.719 187.617 168.037 185.957 170.291C182.947 174.406 179.585 178.27 175.965 181.787C170.99 186.604 165.481 190.855 159.589 194.416C152.087 198.988 143.921 202.458 135.306 204.736L135.303 204.74Z" fill="white"/>
<path d="M167.796 154.991C168.535 154.991 169.285 155.014 170.021 155.061C177.636 155.528 184.563 158.377 189.668 163.114C188.257 165.478 186.806 167.669 185.234 169.804C182.255 173.875 178.927 177.706 175.342 181.186C170.415 185.959 164.957 190.167 159.116 193.698C151.868 198.117 143.986 201.497 135.679 203.754C135.289 203.17 134.905 202.545 134.519 201.861C132.153 197.589 130.992 192.723 131.163 187.783C131.245 185.224 131.697 182.612 132.512 180.014C134.005 175.154 136.772 170.532 140.507 166.644C143.27 163.782 146.523 161.35 150.163 159.42C155.668 156.524 161.763 154.994 167.796 154.994M167.796 153.281C161.65 153.281 155.285 154.78 149.331 157.913C145.448 159.971 142.058 162.539 139.23 165.472C135.258 169.603 132.396 174.436 130.831 179.523C129.989 182.215 129.496 184.974 129.407 187.733C129.232 192.856 130.372 197.98 132.974 202.676C133.57 203.738 134.221 204.766 134.943 205.725C143.921 203.41 152.371 199.83 160.048 195.151C166.057 191.517 171.59 187.232 176.578 182.399C180.269 178.818 183.642 174.927 186.662 170.796C188.367 168.481 189.928 166.1 191.387 163.631C191.562 163.374 191.719 163.1 191.863 162.826C186.292 157.155 178.492 153.862 170.131 153.351C169.357 153.301 168.577 153.277 167.796 153.277V153.281Z" fill="#E2EFFA"/>
<path d="M146.396 184.139C145.109 190.191 150.005 196.139 156.363 196.096" stroke="#E2EFFA" stroke-width="1.50803" stroke-miterlimit="10" stroke-linecap="round"/>
<path d="M158.082 180.411C158.192 181.206 158.637 183.721 160.849 185.882C163.026 188.013 165.563 188.467 166.382 188.581" stroke="#E2EFFA" stroke-width="1.50803" stroke-miterlimit="10" stroke-linecap="round"/>
<path d="M167.727 172.168C167.813 172.893 168.21 175.405 170.419 177.492C172.792 179.737 175.623 179.94 176.325 179.97" stroke="#E2EFFA" stroke-width="1.50803" stroke-miterlimit="10" stroke-linecap="round"/>
</g>
<defs>
<clipPath id="clip0_2062_525">
<rect width="244" height="222" fill="white"/>
</clipPath>
</defs>
</svg>
