<?xml version="1.0" encoding="UTF-8"?>
<svg version="1.1" xmlns="http://www.w3.org/2000/svg" width="512" height="512">
<path d="M0 0 C0.99422974 0.00215515 1.98845947 0.0043103 3.01281738 0.00653076 C17.48109955 0.05686686 31.66189071 0.35398296 45.875 3.3125 C46.85130371 3.51117676 47.82760742 3.70985352 48.83349609 3.91455078 C97.21339984 14.03634541 141.2005519 35.95291013 176.875 70.3125 C177.8640332 71.26068604 177.8640332 71.26068604 178.87304688 72.22802734 C188.36130305 81.37247479 197.1012044 90.66984009 204.875 101.3125 C205.73306152 102.46355017 206.59113451 103.61459177 207.44921875 104.765625 C213.48736829 112.95680614 218.84595521 121.47054105 223.875 130.3125 C224.23948242 130.94430176 224.60396484 131.57610352 224.97949219 132.22705078 C246.58534998 169.97532572 256.35198095 212.74189997 256.1875 255.9375 C256.18534485 256.95540619 256.1831897 257.97331238 256.18096924 259.02206421 C256.13129854 273.63113523 255.88040191 287.96325853 252.875 302.3125 C252.57698486 303.77478027 252.57698486 303.77478027 252.27294922 305.26660156 C242.15232806 353.6484774 220.2358123 397.63678269 185.875 433.3125 C185.24287598 433.97185547 184.61075195 434.63121094 183.95947266 435.31054688 C174.81502521 444.79880305 165.51765991 453.5387044 154.875 461.3125 C153.72394983 462.17056152 152.57290823 463.02863451 151.421875 463.88671875 C143.23224019 469.92427396 134.72961724 475.30707302 125.875 480.3125 C125.16778809 480.7146875 124.46057617 481.116875 123.73193359 481.53125 C100.59654164 494.5566741 75.42537591 503.30551461 49.4375 508.625 C48.71860596 508.77235596 47.99971191 508.91971191 47.2590332 509.0715332 C31.7805416 512.01349792 16.46897347 512.68487899 0.75 512.625 C-0.24323273 512.62317719 -1.23646545 512.62135437 -2.25979614 512.61947632 C-16.73317811 512.57474558 -30.89676256 512.20173753 -45.125 509.3125 C-46.02541016 509.13557617 -46.92582031 508.95865234 -47.85351562 508.77636719 C-54.32795153 507.4774419 -60.73374463 505.97111797 -67.125 504.3125 C-67.95563965 504.09754883 -68.7862793 503.88259766 -69.64208984 503.66113281 C-110.11050039 492.92838092 -147.04181601 471.28690378 -177.125 442.3125 C-177.78435547 441.68037598 -178.44371094 441.04825195 -179.12304688 440.39697266 C-188.61382 431.25009947 -197.33820776 421.94804306 -205.125 411.3125 C-205.94744754 410.21969886 -206.77036382 409.12725034 -207.59375 408.03515625 C-229.79450597 378.1912292 -244.63797571 343.68546844 -252.125 307.3125 C-252.33527832 306.31138184 -252.54555664 305.31026367 -252.76220703 304.27880859 C-259.11424225 272.55886711 -258.81108653 236.93875059 -252.125 205.3125 C-251.90537598 204.27061523 -251.68575195 203.22873047 -251.45947266 202.15527344 C-241.54735766 156.7124702 -219.72440838 113.4525054 -186.96972656 80.18798828 C-185.02498022 78.21081235 -183.10253414 76.21330796 -181.1796875 74.21484375 C-173.01124101 65.80260723 -164.57869229 58.24179512 -155.125 51.3125 C-154.55571777 50.88775391 -153.98643555 50.46300781 -153.39990234 50.02539062 C-144.65908179 43.50981985 -135.61413672 37.67661453 -126.125 32.3125 C-125.41778809 31.9103125 -124.71057617 31.508125 -123.98193359 31.09375 C-97.83310864 16.37173727 -68.81392291 6.67631153 -39.125 2.3125 C-37.32675781 2.04651001 -37.32675781 2.04651001 -35.4921875 1.77514648 C-23.66616559 0.14661384 -11.92341476 -0.04652724 0 0 Z " fill="#FEFEFE" transform="translate(256.125,-0.3125)"/>
<path d="M0 0 C0.99422974 0.00215515 1.98845947 0.0043103 3.01281738 0.00653076 C17.48109955 0.05686686 31.66189071 0.35398296 45.875 3.3125 C46.85130371 3.51117676 47.82760742 3.70985352 48.83349609 3.91455078 C97.21339984 14.03634541 141.2005519 35.95291013 176.875 70.3125 C177.8640332 71.26068604 177.8640332 71.26068604 178.87304688 72.22802734 C188.36130305 81.37247479 197.1012044 90.66984009 204.875 101.3125 C205.73306152 102.46355017 206.59113451 103.61459177 207.44921875 104.765625 C213.48736829 112.95680614 218.84595521 121.47054105 223.875 130.3125 C224.23948242 130.94430176 224.60396484 131.57610352 224.97949219 132.22705078 C246.58534998 169.97532572 256.35198095 212.74189997 256.1875 255.9375 C256.18534485 256.95540619 256.1831897 257.97331238 256.18096924 259.02206421 C256.13129854 273.63113523 255.88040191 287.96325853 252.875 302.3125 C252.57698486 303.77478027 252.57698486 303.77478027 252.27294922 305.26660156 C242.15232806 353.6484774 220.2358123 397.63678269 185.875 433.3125 C185.24287598 433.97185547 184.61075195 434.63121094 183.95947266 435.31054688 C174.81502521 444.79880305 165.51765991 453.5387044 154.875 461.3125 C153.72394983 462.17056152 152.57290823 463.02863451 151.421875 463.88671875 C143.23224019 469.92427396 134.72961724 475.30707302 125.875 480.3125 C125.16778809 480.7146875 124.46057617 481.116875 123.73193359 481.53125 C100.59654164 494.5566741 75.42537591 503.30551461 49.4375 508.625 C48.71860596 508.77235596 47.99971191 508.91971191 47.2590332 509.0715332 C31.7805416 512.01349792 16.46897347 512.68487899 0.75 512.625 C-0.24323273 512.62317719 -1.23646545 512.62135437 -2.25979614 512.61947632 C-16.73317811 512.57474558 -30.89676256 512.20173753 -45.125 509.3125 C-46.02541016 509.13557617 -46.92582031 508.95865234 -47.85351562 508.77636719 C-54.32795153 507.4774419 -60.73374463 505.97111797 -67.125 504.3125 C-67.95563965 504.09754883 -68.7862793 503.88259766 -69.64208984 503.66113281 C-110.11050039 492.92838092 -147.04181601 471.28690378 -177.125 442.3125 C-177.78435547 441.68037598 -178.44371094 441.04825195 -179.12304688 440.39697266 C-188.61382 431.25009947 -197.33820776 421.94804306 -205.125 411.3125 C-205.94744754 410.21969886 -206.77036382 409.12725034 -207.59375 408.03515625 C-229.79450597 378.1912292 -244.63797571 343.68546844 -252.125 307.3125 C-252.33527832 306.31138184 -252.54555664 305.31026367 -252.76220703 304.27880859 C-259.11424225 272.55886711 -258.81108653 236.93875059 -252.125 205.3125 C-251.90537598 204.27061523 -251.68575195 203.22873047 -251.45947266 202.15527344 C-241.54735766 156.7124702 -219.72440838 113.4525054 -186.96972656 80.18798828 C-185.02498022 78.21081235 -183.10253414 76.21330796 -181.1796875 74.21484375 C-173.01124101 65.80260723 -164.57869229 58.24179512 -155.125 51.3125 C-154.55571777 50.88775391 -153.98643555 50.46300781 -153.39990234 50.02539062 C-144.65908179 43.50981985 -135.61413672 37.67661453 -126.125 32.3125 C-125.41778809 31.9103125 -124.71057617 31.508125 -123.98193359 31.09375 C-97.83310864 16.37173727 -68.81392291 6.67631153 -39.125 2.3125 C-37.32675781 2.04651001 -37.32675781 2.04651001 -35.4921875 1.77514648 C-23.66616559 0.14661384 -11.92341476 -0.04652724 0 0 Z M-40.125 52.3125 C-41.35959961 52.56990967 -41.35959961 52.56990967 -42.61914062 52.83251953 C-61.6445206 56.85545985 -78.9618968 63.19830037 -96.125 72.3125 C-94.47952341 78.17111994 -91.53605234 82.72094813 -88.2265625 87.74609375 C-85.70174161 91.75465678 -84.51203492 94.42303435 -85.125 99.3125 C-86.125 101.6875 -86.125 101.6875 -88.125 103.3125 C-90.86510487 103.82056111 -93.40061131 103.92219182 -96.125 103.3125 C-98.48514349 101.2598951 -99.97512067 99.08536616 -101.5 96.37109375 C-101.92796875 95.62279297 -102.3559375 94.87449219 -102.796875 94.10351562 C-103.6839641 92.53154156 -104.56937546 90.95861958 -105.453125 89.38476562 C-105.88109375 88.63775391 -106.3090625 87.89074219 -106.75 87.12109375 C-107.13414062 86.43845459 -107.51828125 85.75581543 -107.9140625 85.05249023 C-109.17428846 83.01524903 -109.17428846 83.01524903 -112.125 81.3125 C-124.73067501 89.38629184 -135.87600317 98.73909874 -146.74316406 109.00976562 C-147.8595509 110.06224622 -148.98673409 111.10326776 -150.1171875 112.140625 C-158.82836752 120.39332186 -171.33522937 133.94318811 -175.125 145.3125 C-169.09698713 149.46817554 -162.91815396 153.21633793 -156.53125 156.796875 C-154.125 158.3125 -154.125 158.3125 -153.125 160.3125 C-152.54657953 167.60059789 -152.54657953 167.60059789 -154.75 170.3125 C-157.9470078 171.65860855 -159.63195258 171.72692935 -163.125 171.3125 C-166.50924671 169.70900459 -169.64400604 167.74030875 -172.8125 165.75 C-174.49821585 164.69785886 -176.18940246 163.65441671 -177.88671875 162.62109375 C-178.62881592 162.15501709 -179.37091309 161.68894043 -180.13549805 161.20874023 C-182.26052442 159.98102074 -182.26052442 159.98102074 -185.125 161.3125 C-186.51375122 163.65582522 -187.68183666 165.90827649 -188.8125 168.375 C-189.15627686 169.11580811 -189.50005371 169.85661621 -189.85424805 170.61987305 C-197.44298497 187.52527042 -203.10579035 205.84634632 -205.8125 224.1875 C-205.93987549 225.03666992 -206.06725098 225.88583984 -206.19848633 226.76074219 C-207.21560547 233.99995639 -207.38509599 241.00407351 -207.125 248.3125 C-205.97499512 248.32651855 -205.97499512 248.32651855 -204.80175781 248.34082031 C-201.32551897 248.39452773 -197.85062526 248.47817576 -194.375 248.5625 C-193.1684375 248.57667969 -191.961875 248.59085938 -190.71875 248.60546875 C-188.97851562 248.65380859 -188.97851562 248.65380859 -187.203125 248.703125 C-186.13481445 248.72407227 -185.06650391 248.74501953 -183.96582031 248.76660156 C-180.46374712 249.43956784 -179.22925036 250.46826553 -177.125 253.3125 C-177.18456195 256.70753129 -177.32216485 259.17218624 -179.30981445 261.99536133 C-181.9044897 263.87811492 -183.92224085 263.74657905 -187.10546875 263.82421875 C-188.26884766 263.85966797 -189.43222656 263.89511719 -190.63085938 263.93164062 C-191.84580078 263.95419922 -193.06074219 263.97675781 -194.3125 264 C-195.53904297 264.03416016 -196.76558594 264.06832031 -198.02929688 264.10351562 C-201.06110678 264.1860941 -204.09262379 264.25521369 -207.125 264.3125 C-207.92183521 281.99228115 -204.68012875 299.5371112 -199.125 316.3125 C-198.88410645 317.06063965 -198.64321289 317.8087793 -198.39501953 318.57958984 C-194.57716627 330.37448862 -189.99621268 341.3935694 -184.125 352.3125 C-178.26638006 350.66702341 -173.71655187 347.72355234 -168.69140625 344.4140625 C-164.68284322 341.88924161 -162.01446565 340.69953492 -157.125 341.3125 C-154.75 342.3125 -154.75 342.3125 -153.125 344.3125 C-152.25233375 351.1847467 -152.25233375 351.1847467 -154.6484375 354.28125 C-158.56689623 357.49512782 -162.99373872 359.67898185 -167.45703125 362.04492188 C-168.15441406 362.42326172 -168.85179687 362.80160156 -169.5703125 363.19140625 C-170.52188232 363.69522827 -170.52188232 363.69522827 -171.49267578 364.20922852 C-173.44072541 365.375788 -173.44072541 365.375788 -175.125 368.3125 C-166.96650532 381.05042221 -157.47591118 392.31267849 -147.125 403.3125 C-146.50882813 403.97121094 -145.89265625 404.62992187 -145.2578125 405.30859375 C-137.98195995 412.84554148 -129.52491334 419.09769925 -121.125 425.3125 C-120.15433594 426.03421387 -120.15433594 426.03421387 -119.1640625 426.77050781 C-116.50379246 428.71660199 -114.27220028 430.26343324 -111.125 431.3125 C-106.96932446 425.28448713 -103.22116207 419.10565396 -99.640625 412.71875 C-98.125 410.3125 -98.125 410.3125 -96.125 409.3125 C-88.72876159 408.84289756 -88.72876159 408.84289756 -86.50219727 410.57470703 C-84.76142269 412.77127384 -84.80634105 413.69324427 -85.1171875 416.4453125 C-85.91273543 421.79737743 -88.32305678 425.72131961 -91.25 430.1875 C-92.19913326 431.65827487 -93.13970782 433.13461959 -94.0703125 434.6171875 C-94.69703857 435.5760083 -94.69703857 435.5760083 -95.33642578 436.55419922 C-96.4422395 438.48870554 -96.4422395 438.48870554 -95.125 441.3125 C-92.63686694 442.72868253 -90.22520789 443.95024495 -87.625 445.125 C-86.85961914 445.4753833 -86.09423828 445.8257666 -85.30566406 446.18676758 C-70.68792682 452.75456902 -55.78172347 456.98990967 -40.125 460.3125 C-38.96339355 460.56241699 -38.96339355 460.56241699 -37.77832031 460.81738281 C-27.77542853 462.92440276 -18.35262659 463.71445912 -8.125 463.3125 C-8.11098145 462.16249512 -8.11098145 462.16249512 -8.09667969 460.98925781 C-8.04297227 457.51301897 -7.95932424 454.03812526 -7.875 450.5625 C-7.86082031 449.3559375 -7.84664062 448.149375 -7.83203125 446.90625 C-7.79980469 445.74609375 -7.76757812 444.5859375 -7.734375 443.390625 C-7.71342773 442.32231445 -7.69248047 441.25400391 -7.67089844 440.15332031 C-6.99958393 436.65984282 -5.91725219 435.45775146 -3.125 433.3125 C-0.125 432.8125 -0.125 432.8125 2.875 433.3125 C5.17775556 435.1795991 6.55323871 436.66897741 7.875 439.3125 C8.02806901 441.12421098 8.12446661 442.9408794 8.19140625 444.7578125 C8.25424805 446.37236328 8.25424805 446.37236328 8.31835938 448.01953125 C8.35767578 449.14746094 8.39699219 450.27539062 8.4375 451.4375 C8.48068359 452.57316406 8.52386719 453.70882813 8.56835938 454.87890625 C8.6746604 457.68997768 8.77669405 460.50113945 8.875 463.3125 C38.8504712 463.89484555 69.70767391 454.60182483 95.875 440.3125 C94.77092815 437.19440697 93.39599879 434.40343752 91.7109375 431.5703125 C91.31132812 430.89613281 90.91171875 430.22195313 90.5 429.52734375 C89.66803157 428.13639653 88.82687855 426.75090108 87.9765625 425.37109375 C85.33752693 420.87273767 84.18307812 417.67489456 84.875 412.3125 C87 409.8125 87 409.8125 89.875 408.3125 C93.27043015 408.3125 95.09475024 408.67619569 97.73828125 410.83203125 C100.6956097 414.26512734 102.78525581 418.06012124 105 422 C105.87275635 423.54831556 106.75013692 425.0940365 107.6328125 426.63671875 C108.0158252 427.31822998 108.39883789 427.99974121 108.79345703 428.7019043 C109.79355836 430.47729042 109.79355836 430.47729042 111.875 431.3125 C133.67123904 416.65461588 166.20597301 393.31958097 174.875 367.3125 C168.88117424 363.18039285 162.74353476 359.46168598 156.37890625 355.92578125 C153.875 354.3125 153.875 354.3125 151.875 351.3125 C152.05510028 347.95062807 152.29387954 345.31331858 154 342.375 C156.94161841 340.7080829 159.63249193 340.71840389 162.875 341.3125 C166.30643657 342.87908865 169.44333823 344.85634134 172.625 346.875 C174.30163809 347.92703316 175.98370969 348.97047172 177.671875 350.00390625 C178.77547363 350.70302124 178.77547363 350.70302124 179.90136719 351.41625977 C182.01215747 352.64466121 182.01215747 352.64466121 184.875 351.3125 C186.2774759 348.73926161 187.47564961 346.24788233 188.625 343.5625 C188.97208008 342.76408691 189.31916016 341.96567383 189.67675781 341.14306641 C197.12537414 323.61272416 202.48854954 305.34022773 205.625 286.5625 C205.81690918 285.44657471 205.81690918 285.44657471 206.01269531 284.30810547 C206.99812703 277.96942002 206.99737509 271.71679624 206.875 265.3125 C206.17415283 265.29791748 205.47330566 265.28333496 204.7512207 265.26831055 C201.56276991 265.19364513 198.37534487 265.09704525 195.1875 265 C193.53331055 264.96616211 193.53331055 264.96616211 191.84570312 264.93164062 C190.77900391 264.89619141 189.71230469 264.86074219 188.61328125 264.82421875 C187.14435425 264.78494263 187.14435425 264.78494263 185.64575195 264.74487305 C182.43114818 264.24323737 180.49898598 263.20919973 177.875 261.3125 C176.45458179 258.47166359 176.56047728 256.45772722 176.875 253.3125 C178.7420991 251.00974444 180.23147741 249.63426129 182.875 248.3125 C184.68671098 248.15943099 186.5033794 248.06303339 188.3203125 247.99609375 C189.93486328 247.93325195 189.93486328 247.93325195 191.58203125 247.86914062 C192.70996094 247.82982422 193.83789062 247.79050781 195 247.75 C196.13566406 247.70681641 197.27132813 247.66363281 198.44140625 247.61914062 C201.25247768 247.5128396 204.06363945 247.41080595 206.875 247.3125 C206.99909388 240.10356454 206.87096344 233.12698337 205.75 226 C205.61948242 225.16098145 205.48896484 224.32196289 205.35449219 223.45751953 C201.65255125 201.12685363 194.43645127 180.27974223 183.875 160.3125 C180.75690697 161.41657185 177.96593752 162.79150121 175.1328125 164.4765625 C174.45863281 164.87617188 173.78445313 165.27578125 173.08984375 165.6875 C171.69889653 166.51946843 170.31340108 167.36062145 168.93359375 168.2109375 C164.43361172 170.85092696 161.239168 171.99799541 155.875 171.3125 C153.375 169.25 153.375 169.25 151.875 166.3125 C151.90625 162.8828125 151.90625 162.8828125 152.875 159.3125 C155.5 157.08984375 155.5 157.08984375 158.875 155.25 C160.05683718 154.58353204 161.23782255 153.91555143 162.41796875 153.24609375 C163.55878906 152.60800781 164.69960938 151.96992188 165.875 151.3125 C167.65904374 150.16613629 169.43214776 149.00233206 171.1875 147.8125 C171.90550781 147.3278125 172.62351562 146.843125 173.36328125 146.34375 C173.86214844 146.0034375 174.36101562 145.663125 174.875 145.3125 C162.6673112 121.95866056 141.72311291 102.75489656 120.875 87.3125 C120.22764893 86.83111572 119.58029785 86.34973145 118.91333008 85.85375977 C116.25322842 83.90807137 114.02184658 82.36144886 110.875 81.3125 C106.74289285 87.30632576 103.02418598 93.44396524 99.48828125 99.80859375 C97.875 102.3125 97.875 102.3125 94.875 104.3125 C91.51312807 104.13239972 88.87581858 103.89362046 85.9375 102.1875 C84.2705829 99.24588159 84.28090389 96.55500807 84.875 93.3125 C86.44158865 89.88106343 88.41884134 86.74416177 90.4375 83.5625 C91.48953316 81.88586191 92.53297172 80.20379031 93.56640625 78.515625 C94.26552124 77.41202637 94.26552124 77.41202637 94.97875977 76.28613281 C96.20716121 74.17534253 96.20716121 74.17534253 94.875 71.3125 C69.66666094 57.11142212 37.805254 48.61060565 8.875 49.3125 C8.86041748 50.01334717 8.84583496 50.71419434 8.83081055 51.4362793 C8.75614513 54.62473009 8.65954525 57.81215513 8.5625 61 C8.52866211 62.65418945 8.52866211 62.65418945 8.49414062 64.34179688 C8.45869141 65.40849609 8.42324219 66.47519531 8.38671875 67.57421875 C8.36053467 68.55350342 8.33435059 69.53278809 8.30737305 70.54174805 C7.80573737 73.75635182 6.77169973 75.68851402 4.875 78.3125 C2.03416359 79.73291821 0.02022722 79.62702272 -3.125 79.3125 C-5.93122021 77.17956938 -6.99931846 75.96653864 -7.67089844 72.47167969 C-7.6918457 71.40336914 -7.71279297 70.33505859 -7.734375 69.234375 C-7.76660156 68.07421875 -7.79882812 66.9140625 -7.83203125 65.71875 C-7.84621094 64.5121875 -7.86039063 63.305625 -7.875 62.0625 C-7.90464844 60.84046875 -7.93429688 59.6184375 -7.96484375 58.359375 C-8.03552402 55.34368356 -8.08823175 52.3287645 -8.125 49.3125 C-19.21017006 48.87683829 -29.30394777 49.99596313 -40.125 52.3125 Z " fill="#3BAAFE" transform="translate(256.125,-0.3125)"/>
<path d="M0 0 C0 16.17 0 32.34 0 49 C-11.385 49.495 -11.385 49.495 -23 50 C-28.75520361 50.83408748 -34.34021216 51.75895015 -40 53 C-40.81146484 53.17015625 -41.62292969 53.3403125 -42.45898438 53.515625 C-60.96464492 57.42625515 -78.04805262 63.66339209 -95 72 C-93.35452341 77.85861994 -90.41105234 82.40844813 -87.1015625 87.43359375 C-84.58386014 91.43085496 -83.33958342 94.12415841 -84 99 C-85.5 101.875 -85.5 101.875 -88 104 C-90.78972816 104.65741545 -93.2360982 104.78274563 -96 104 C-100.25366136 100.7107315 -102.53543811 95.91915387 -105.125 91.3125 C-105.99775635 89.76418444 -106.87513692 88.2184635 -107.7578125 86.67578125 C-108.1408252 85.99427002 -108.52383789 85.31275879 -108.91845703 84.6105957 C-109.91855836 82.83520958 -109.91855836 82.83520958 -112 82 C-135.6254751 97.1318488 -161.88280823 118.97783406 -174 145 C-173.154375 145.51949219 -172.30875 146.03898438 -171.4375 146.57421875 C-169.09753299 148.01202149 -166.75931317 149.45262169 -164.421875 150.89453125 C-162.4168925 152.13078976 -160.40756333 153.35741314 -158.390625 154.57421875 C-153.10779817 157.78440367 -153.10779817 157.78440367 -152 160 C-151.71604419 162.93421006 -151.50451971 165.15098834 -152 168 C-154.3924731 170.81467423 -155.93369388 171.81850109 -159.5703125 172.4375 C-164.6982844 171.78336235 -168.40592425 169.19107889 -172.75 166.5 C-174.45096127 165.465185 -176.15398683 164.43375305 -177.859375 163.40625 C-178.60670898 162.94541016 -179.35404297 162.48457031 -180.12402344 162.00976562 C-181.93843608 160.84201229 -181.93843608 160.84201229 -184 161 C-188.87108816 170.53489596 -192.93780351 180.14383907 -196.3125 190.3125 C-196.79976562 191.77719727 -196.79976562 191.77719727 -197.296875 193.27148438 C-200.55389406 203.3195909 -203.13193804 213.41405631 -204.625 223.875 C-204.74979736 224.72416992 -204.87459473 225.57333984 -205.00317383 226.44824219 C-206.02165797 233.62020885 -206.61850242 240.7656259 -207 248 C-206.23856689 247.97381592 -205.47713379 247.94763184 -204.69262695 247.9206543 C-201.23279565 247.81652985 -197.77329415 247.75162271 -194.3125 247.6875 C-192.51522461 247.6246582 -192.51522461 247.6246582 -190.68164062 247.56054688 C-180.7601603 247.4223647 -180.7601603 247.4223647 -177.671875 250.296875 C-176 253 -176 253 -175.9375 256.5625 C-177.10121436 260.32745823 -177.93584944 261.60326256 -181 264 C-183.84082031 264.45410156 -183.84082031 264.45410156 -187.078125 264.390625 C-188.81835938 264.37128906 -188.81835938 264.37128906 -190.59375 264.3515625 C-191.8003125 264.31804687 -193.006875 264.28453125 -194.25 264.25 C-195.47203125 264.23195313 -196.6940625 264.21390625 -197.953125 264.1953125 C-200.96954078 264.148181 -203.98437491 264.08239413 -207 264 C-206.02394553 277.96035637 -204.30181981 291.39622896 -201 305 C-200.77570313 305.96421875 -200.55140625 306.9284375 -200.3203125 307.921875 C-196.56732762 322.84114821 -190.85132667 337.25569727 -184 351 C-178.14138006 349.35452341 -173.59155187 346.41105234 -168.56640625 343.1015625 C-164.56914504 340.58386014 -161.87584159 339.33958342 -157 340 C-154.125 341.5 -154.125 341.5 -152 344 C-151.15422886 349.32835821 -151.15422886 349.32835821 -152 352 C-155.72727188 356.53316851 -160.15386058 358.99736165 -165.25 361.6875 C-170.40329579 364.01402998 -170.40329579 364.01402998 -174 368 C-160.75077918 388.68611315 -144.16554305 406.75683567 -124.5625 421.5625 C-123.56923706 422.31370117 -123.56923706 422.31370117 -122.5559082 423.08007812 C-118.85567472 425.81411609 -115.20154621 428.07131495 -111 430 C-110.48050781 429.154375 -109.96101562 428.30875 -109.42578125 427.4375 C-107.98797851 425.09753299 -106.54737831 422.75931317 -105.10546875 420.421875 C-103.86921024 418.4168925 -102.64258686 416.40756333 -101.42578125 414.390625 C-98.21559633 409.10779817 -98.21559633 409.10779817 -96 408 C-89.00551809 407.43592888 -89.00551809 407.43592888 -85.4375 409.4375 C-83.24191948 413.35136093 -83.98061233 416.72295805 -85 421 C-86.41491792 424.16495685 -88.18549832 427.02776012 -90.0625 429.9375 C-90.99434339 431.42361859 -91.92290596 432.91180108 -92.84765625 434.40234375 C-93.26023682 435.04679443 -93.67281738 435.69124512 -94.09790039 436.35522461 C-95.16029475 437.9796083 -95.16029475 437.9796083 -95 440 C-77.11193386 448.8208987 -59.5111005 454.83543935 -40 459 C-39.26813477 459.16129395 -38.53626953 459.32258789 -37.78222656 459.48876953 C-25.06585534 462.24685941 -13.25243952 462.42380698 0 463 C0 479.17 0 495.34 0 512 C-25.57638889 512 -25.57638889 512 -33.5 510.8125 C-34.43884033 510.68012939 -35.37768066 510.54775879 -36.3449707 510.41137695 C-46.69950019 508.87189811 -56.87152179 506.62847829 -67 504 C-67.83063965 503.78504883 -68.6612793 503.57009766 -69.51708984 503.34863281 C-109.98550039 492.61588092 -146.91681601 470.97440378 -177 442 C-177.65935547 441.36787598 -178.31871094 440.73575195 -178.99804688 440.08447266 C-188.48882 430.93759947 -197.21320776 421.63554306 -205 411 C-205.82244754 409.90719886 -206.64536382 408.81475034 -207.46875 407.72265625 C-229.66950597 377.8787292 -244.51297571 343.37296844 -252 307 C-252.21027832 305.99888184 -252.42055664 304.99776367 -252.63720703 303.96630859 C-258.98924225 272.24636711 -258.68608653 236.62625059 -252 205 C-251.78037598 203.95811523 -251.56075195 202.91623047 -251.33447266 201.84277344 C-241.42235766 156.3999702 -219.59940838 113.1400054 -186.84472656 79.87548828 C-184.89998022 77.89831235 -182.97753414 75.90080796 -181.0546875 73.90234375 C-172.88624101 65.49010723 -164.45369229 57.92929512 -155 51 C-154.43071777 50.57525391 -153.86143555 50.15050781 -153.27490234 49.71289062 C-144.53408179 43.19731985 -135.48913672 37.36411453 -126 32 C-125.29278809 31.5978125 -124.58557617 31.195625 -123.85693359 30.78125 C-97.57880522 15.98643834 -68.74601958 6.67524529 -39 2 C-38.27296875 1.88285645 -37.5459375 1.76571289 -36.796875 1.64501953 C-24.3971388 -0.28669863 -12.71888703 0 0 0 Z " fill="#76E2F7" transform="translate(256,0)"/>
<path d="M0 0 C2.97212129 2.05107602 4.74783114 3.69697761 5.45070839 7.32892799 C5.61735598 10.33296929 5.61788379 13.29950419 5.56762695 16.30786133 C5.56835709 17.44975922 5.56908722 18.5916571 5.56983948 19.76815796 C5.56635798 23.53993337 5.5274669 27.31047173 5.48828125 31.08203125 C5.47895521 33.69804713 5.47183812 36.31407175 5.46684265 38.93009949 C5.45131727 45.11023214 5.41030721 51.28992126 5.3600952 57.46985883 C5.30416049 64.50726297 5.27670499 71.54468858 5.25161803 78.58225977 C5.19938971 93.05506839 5.11147326 107.52752799 5 122 C5.94472168 122.29874023 6.88944336 122.59748047 7.86279297 122.90527344 C14.64775845 125.27288318 19.51639123 130.86884857 23 137 C24 140 24 140 23.47265625 142.86328125 C22.97638021 147.03672643 22.89136856 150.32900503 25 154 C30.8965241 159.30890798 38.49594356 162.61893846 45.51269531 166.18945312 C51.22767135 169.15656754 56.75686402 172.4347461 62.3125 175.6875 C64.47551427 176.9380128 66.63956076 178.18674203 68.8046875 179.43359375 C69.84206055 180.03155762 70.87943359 180.62952148 71.94824219 181.24560547 C74.881233 182.93172323 77.8187297 184.60968536 80.7578125 186.28515625 C81.63783936 186.78893799 82.51786621 187.29271973 83.42456055 187.81176758 C85.04876373 188.74134894 86.67509231 189.66723085 88.30395508 190.58862305 C89.01704834 190.99765869 89.7301416 191.40669434 90.46484375 191.828125 C91.079646 192.1777832 91.69444824 192.52744141 92.32788086 192.88769531 C94.18526372 194.12323865 95.5914129 195.26368146 97 197 C97.75 203.75 97.75 203.75 95.5 207.5 C91.96970267 209.6181784 88.95905151 209.71053609 85 209 C81.15597572 207.33213822 77.67516264 205.15294676 74.125 202.9375 C71.99154913 201.64864029 69.85740986 200.36091956 67.72265625 199.07421875 C66.06967529 198.0675415 66.06967529 198.0675415 64.38330078 197.04052734 C58.82688354 193.68935579 53.19336645 190.47395517 47.5625 187.25 C41.58871399 183.82710786 35.62107312 180.40677745 29.7578125 176.796875 C28.97591553 176.31959961 28.19401855 175.84232422 27.38842773 175.35058594 C25.97130532 174.48097738 24.5612689 173.59965859 23.16040039 172.70410156 C20.40858242 171.02185541 18.57108929 169.9743795 15.30078125 170.12109375 C13.08809474 170.96634751 11.07842188 171.92992245 9 173.0625 C1.54001975 176.45114327 -6.71771447 176.12978761 -14.375 173.4375 C-21.04016712 170.33213805 -25.36145772 165.98976252 -28.4375 159.3125 C-31.40128897 150.85736178 -31.03866125 142.40453992 -27.33203125 134.2578125 C-23.91269298 128.461984 -19.27237068 124.47977445 -13 122 C-12.34 122 -11.68 122 -11 122 C-11.00368717 121.40070049 -11.00737434 120.80140099 -11.01117325 120.18394089 C-11.09949992 105.60353401 -11.1656977 91.02314294 -11.20724869 76.44253159 C-11.22787645 69.39144027 -11.2560008 62.3405275 -11.30175781 55.28955078 C-11.34587547 48.48795118 -11.36912228 41.68653742 -11.37950897 34.88480377 C-11.38691319 32.28678717 -11.40137141 29.68878099 -11.42292023 27.0908432 C-11.45185753 23.45844879 -11.4559599 19.82682663 -11.45410156 16.19433594 C-11.46848267 15.11468063 -11.48286377 14.03502533 -11.49768066 12.9226532 C-11.45719309 5.6334437 -11.45719309 5.6334437 -9.09661865 2.362854 C-5.83341654 0.24169188 -3.9220539 -0.54726333 0 0 Z " fill="#3C4B52" transform="translate(259,108)"/>
<path d="M0 0 C-0.99 0.33 -1.98 0.66 -3 1 C-3 58.42 -3 115.84 -3 175 C-12.91501504 174.0084985 -17.82479427 172.653415 -24.3125 165.6875 C-29.98420807 158.48582163 -31.02540346 151.03054185 -30 142 C-28.27070155 134.76370946 -24.86420627 129.55964203 -19 125 C-13.87096774 122 -13.87096774 122 -11 122 C-11.00368717 121.40070049 -11.00737434 120.80140099 -11.01117325 120.18394089 C-11.09949992 105.60353401 -11.1656977 91.02314294 -11.20724869 76.44253159 C-11.22787645 69.39144027 -11.2560008 62.3405275 -11.30175781 55.28955078 C-11.34587547 48.48795118 -11.36912228 41.68653742 -11.37950897 34.88480377 C-11.38691319 32.28678717 -11.40137141 29.68878099 -11.42292023 27.0908432 C-11.45185753 23.45844879 -11.4559599 19.82682663 -11.45410156 16.19433594 C-11.46848267 15.11468063 -11.48286377 14.03502533 -11.49768066 12.9226532 C-11.45719309 5.6334437 -11.45719309 5.6334437 -9.09661865 2.362854 C-5.79221731 0.21491136 -3.92767148 -0.10335978 0 0 Z " fill="#697C86" transform="translate(259,108)"/>
<path d="M0 0 C2.7126461 1.3759799 3.66526453 3.16980238 5.19921875 5.76953125 C5.99779297 7.07857422 5.99779297 7.07857422 6.8125 8.4140625 C8.04159868 11.32367429 8.04945286 12.09029624 6.88671875 14.95703125 C4.11628977 17.27901786 0.9013656 18.92696362 -2.23828125 20.70703125 C-3.08132813 21.21363281 -3.924375 21.72023437 -4.79296875 22.2421875 C-9.67699268 25.05580998 -13.31750101 26.87875203 -19.11328125 25.95703125 C-22.6427064 22.94231393 -23.96241435 21.14241405 -24.55078125 16.51953125 C-22.31445734 10.97733722 -18.13219629 8.91846096 -13.11328125 5.95703125 C-12.13359375 5.36019531 -11.15390625 4.76335937 -10.14453125 4.1484375 C-2.9146714 -0.05926319 -2.9146714 -0.05926319 0 0 Z " fill="#3F4E55" transform="translate(431.11328125,146.04296875)"/>
<path d="M0 0 C3.56908256 0.50642388 6.21836105 2.18767065 9.25 4.0625 C10.14203125 4.61035156 11.0340625 5.15820312 11.953125 5.72265625 C12.96632813 6.35494141 12.96632813 6.35494141 14 7 C13.4684989 12.23163826 10.82393508 16.20453946 8.1875 20.625 C7.52911133 21.7696875 7.52911133 21.7696875 6.85742188 22.9375 C2.59782116 30.1528712 2.59782116 30.1528712 -1 32 C-4.85899147 31.93108944 -7.21376738 31.52415508 -10.4375 29.375 C-12.68731778 25.95527697 -12.44974589 24.07983775 -12 20 C-10.47938728 16.52545628 -8.55167664 13.349093 -6.5625 10.125 C-6.04623047 9.25875 -5.52996094 8.3925 -4.99804688 7.5 C-1.25246147 1.25246147 -1.25246147 1.25246147 0 0 Z " fill="#3F4D54" transform="translate(352,73)"/>
<path d="M0 0 C3.47775595 1.44997463 6.64936437 3.31165932 9.875 5.25 C10.74125 5.74113281 11.6075 6.23226563 12.5 6.73828125 C18.75393011 10.41418061 18.75393011 10.41418061 19.84008789 13 C20.10009088 16.25182368 18.35003741 18.11573434 16.5625 20.75 C15.57443359 22.22726562 15.57443359 22.22726562 14.56640625 23.734375 C14.04949219 24.48203125 13.53257812 25.2296875 13 26 C7.76836174 25.4684989 3.79546054 22.82393508 -0.625 20.1875 C-1.388125 19.74857422 -2.15125 19.30964844 -2.9375 18.85742188 C-10.1528712 14.59782116 -10.1528712 14.59782116 -12 11 C-11.93108944 7.14100853 -11.52415508 4.78623262 -9.375 1.5625 C-5.96112812 -0.68346834 -4.07315162 -0.43698182 0 0 Z " fill="#3E4D54" transform="translate(419,340)"/>
<path d="M0 0 C6.49280825 2.48660741 9.58574742 8.3973897 12.8125 14.1875 C13.22757812 14.89455078 13.64265625 15.60160156 14.0703125 16.33007812 C14.45703125 17.01650391 14.84375 17.70292969 15.2421875 18.41015625 C15.59265137 19.02769775 15.94311523 19.64523926 16.30419922 20.28149414 C17.11304119 22.63599134 16.84279146 23.82936485 15.9375 26.125 C13.79296875 27.86328125 13.79296875 27.86328125 11.125 29.4375 C10.25230469 29.96988281 9.37960937 30.50226563 8.48046875 31.05078125 C5.57085696 32.27987993 4.80423501 32.28773411 1.9375 31.125 C-0.38448661 28.35457102 -2.03243237 25.13964685 -3.8125 22 C-4.31910156 21.15695312 -4.82570313 20.31390625 -5.34765625 19.4453125 C-8.15994805 14.56359843 -9.9911553 10.91804018 -9.0625 5.125 C-6.14327267 1.7887402 -4.49822598 0.18360106 0 0 Z " fill="#3E4D54" transform="translate(349.0625,406.875)"/>
<path d="M0 0 C1.26521484 0.02255859 2.53042969 0.04511719 3.83398438 0.06835938 C6.95232979 0.12719608 10.07006589 0.21687319 13.1875 0.3125 C13.1875 5.5925 13.1875 10.8725 13.1875 16.3125 C8.79064317 16.44737291 4.3979172 16.54658579 0 16.625 C-1.24587891 16.66689453 -2.49175781 16.70878906 -3.77539062 16.75195312 C-14.08197612 16.89011111 -14.08197612 16.89011111 -17.13671875 13.98046875 C-19.21397555 10.67332098 -19.61077906 9.14423951 -18.8125 5.3125 C-14.39832849 -1.7151903 -7.55633722 -0.25409308 0 0 Z " fill="#3D4C54" transform="translate(450.8125,247.6875)"/>
<path d="M0 0 C2.875 1.5 2.875 1.5 5 4 C5.84577114 9.32835821 5.84577114 9.32835821 5 12 C1.30456059 16.44729464 -3.08590851 19.10161079 -8.0625 21.875 C-8.76955078 22.29007812 -9.47660156 22.70515625 -10.20507812 23.1328125 C-10.89150391 23.51953125 -11.57792969 23.90625 -12.28515625 24.3046875 C-12.90269775 24.65515137 -13.52023926 25.00561523 -14.15649414 25.36669922 C-16.51634701 26.17738103 -17.70386273 25.92490775 -20 25 C-21.73828125 22.6015625 -21.73828125 22.6015625 -23.3125 19.625 C-24.11107422 18.15933594 -24.11107422 18.15933594 -24.92578125 16.6640625 C-26 14 -26 14 -25 11 C-22.13378284 8.80398294 -18.94170311 7.1075647 -15.8125 5.3125 C-14.96107422 4.80138672 -14.10964844 4.29027344 -13.23242188 3.76367188 C-5.2356747 -0.86862792 -5.2356747 -0.86862792 0 0 Z " fill="#6B7E88" transform="translate(99,340)"/>
<path d="M0 0 C3.63700958 0.5685321 6.25878841 1.51133987 9.390625 3.43359375 C10.18210937 3.91763672 10.97359375 4.40167969 11.7890625 4.90039062 C12.60117188 5.40763672 13.41328125 5.91488281 14.25 6.4375 C15.07757813 6.94087891 15.90515625 7.44425781 16.7578125 7.96289062 C22.86668272 11.73336544 22.86668272 11.73336544 24 14 C24.28395581 16.93421006 24.49548029 19.15098834 24 22 C21.62455937 24.79463604 20.06780271 25.80225876 16.46875 26.46875 C11.09518208 25.74259217 7.15123066 22.86682798 2.625 20 C1.69816406 19.42765625 0.77132812 18.8553125 -0.18359375 18.265625 C-2.46337688 16.85544987 -4.73480992 15.43345549 -7 14 C-5.8335158 10.19529921 -4.55623932 6.95426001 -2.375 3.625 C-1.70597656 2.59246094 -1.70597656 2.59246094 -1.0234375 1.5390625 C-0.68570313 1.03117188 -0.34796875 0.52328125 0 0 Z " fill="#6B7E88" transform="translate(80,146)"/>
<path d="M0 0 C2.5625 1.4375 2.5625 1.4375 4 4 C4.45735559 11.34817977 1.3579448 16.61575788 -2.5625 22.5625 C-3.08263672 23.38041016 -3.60277344 24.19832031 -4.13867188 25.04101562 C-5.41121708 27.03739388 -6.69810323 29.02269032 -8 31 C-11.80470079 29.8335158 -15.04573999 28.55623932 -18.375 26.375 C-19.06335938 25.92898438 -19.75171875 25.48296875 -20.4609375 25.0234375 C-20.96882812 24.68570312 -21.47671875 24.34796875 -22 24 C-21.4314679 20.36299042 -20.48866013 17.74121159 -18.56640625 14.609375 C-17.8403418 13.42214844 -17.8403418 13.42214844 -17.09960938 12.2109375 C-16.59236328 11.39882813 -16.08511719 10.58671875 -15.5625 9.75 C-15.05912109 8.92242187 -14.55574219 8.09484375 -14.03710938 7.2421875 C-10.13773166 0.92447062 -7.86391687 -1.05472652 0 0 Z " fill="#6B7E88" transform="translate(168,408)"/>
<path d="M0 0 C2.62868183 1.65110469 3.59350965 2.32706812 5 5 C5.62909235 9.61589808 5.46877863 14.16501384 5.3125 18.8125 C5.28994141 20.07771484 5.26738281 21.34292969 5.24414062 22.64648438 C5.18530392 25.76482979 5.09562681 28.88256589 5 32 C-0.28 31.67 -5.56 31.34 -11 31 C-11.13491171 26.76976845 -11.23410046 22.54383516 -11.3125 18.3125 C-11.35439453 17.11431641 -11.39628906 15.91613281 -11.43945312 14.68164062 C-11.5776128 4.76177566 -11.5776128 4.76177566 -8.66796875 1.70703125 C-5.36295012 -0.4076 -3.84817191 -0.80170248 0 0 Z " fill="#3C4C54" transform="translate(259,432)"/>
<path d="M0 0 C2.19601706 2.86621716 3.8924353 6.05829689 5.6875 9.1875 C6.19861328 10.03892578 6.70972656 10.89035156 7.23632812 11.76757812 C11.86862792 19.7643253 11.86862792 19.7643253 11 25 C9.5 27.875 9.5 27.875 7 30 C4.21027184 30.65741545 1.7639018 30.78274563 -1 30 C-5.19080514 26.71393079 -7.64484771 22.02157467 -10.3125 17.5 C-10.77978516 16.74074219 -11.24707031 15.98148438 -11.72851562 15.19921875 C-12.16486328 14.46316406 -12.60121094 13.72710937 -13.05078125 12.96875 C-13.64886597 11.97004883 -13.64886597 11.97004883 -14.2590332 10.95117188 C-15.18480407 8.51335944 -14.99084441 7.38887227 -14 5 C-11.6015625 3.26171875 -11.6015625 3.26171875 -8.625 1.6875 C-7.64789063 1.15511719 -6.67078125 0.62273437 -5.6640625 0.07421875 C-3 -1 -3 -1 0 0 Z " fill="#6B7E88" transform="translate(161,74)"/>
<path d="M0 0 C0.14536813 4.39548491 0.23409948 8.79035087 0.3125 13.1875 C0.35439453 14.43337891 0.39628906 15.67925781 0.43945312 16.96289062 C0.57761111 27.26947612 0.57761111 27.26947612 -2.33203125 30.32421875 C-5.63917902 32.40147555 -7.16826049 32.79827906 -11 32 C-13.59111432 30.34214208 -14.58942419 29.63789047 -16 27 C-16.62649087 22.54970187 -16.46924072 18.17028461 -16.3125 13.6875 C-16.28994141 12.46998047 -16.26738281 11.25246094 -16.24414062 9.99804688 C-16.1853053 6.99744518 -16.1031414 3.99935203 -16 1 C-10.59255982 0.22750855 -5.46137814 -0.09752461 0 0 Z " fill="#3D4C54" transform="translate(264,48)"/>
<path d="M0 0 C4.23023155 -0.13491171 8.45616484 -0.23410046 12.6875 -0.3125 C14.48477539 -0.3753418 14.48477539 -0.3753418 16.31835938 -0.43945312 C26.2398397 -0.5776353 26.2398397 -0.5776353 29.328125 2.296875 C31 5 31 5 31.0625 8.5625 C29.89878564 12.32745823 29.06415056 13.60326256 26 16 C23.15917969 16.45410156 23.15917969 16.45410156 19.921875 16.390625 C18.76171875 16.37773437 17.6015625 16.36484375 16.40625 16.3515625 C15.1996875 16.31804687 13.993125 16.28453125 12.75 16.25 C10.91695312 16.22292969 10.91695312 16.22292969 9.046875 16.1953125 C6.03091545 16.14818813 3.01535881 16.07644572 0 16 C0 10.72 0 5.44 0 0 Z " fill="#6A7D87" transform="translate(49,248)"/>
<path d="M0 0 C-0.66 0.66 -1.32 1.32 -2 2 C-2.37296556 5.00972657 -2.37296556 5.00972657 -2.4140625 8.5390625 C-2.45273437 9.84101563 -2.49140625 11.14296875 -2.53125 12.484375 C-2.56270763 13.86457862 -2.59395491 15.24478704 -2.625 16.625 C-2.66317934 18.01304541 -2.70223105 19.40106711 -2.7421875 20.7890625 C-2.83672943 24.19257185 -2.92227897 27.59607165 -3 31 C-5.64 31 -8.28 31 -11 31 C-11.14541967 26.77119589 -11.23411527 22.54303587 -11.3125 18.3125 C-11.35439453 17.11431641 -11.39628906 15.91613281 -11.43945312 14.68164062 C-11.57762524 4.76088285 -11.57762524 4.76088285 -8.6875 1.6875 C-5.51971566 -0.30157389 -3.67528331 -0.42735852 0 0 Z " fill="#6A7C86" transform="translate(259,432)"/>
<path d="M0 0 C2.64 0 5.28 0 8 0 C8 10.23 8 20.46 8 31 C3.76449034 29.94112258 2.58653927 29.37801743 0 26 C-0.45410156 23.15917969 -0.45410156 23.15917969 -0.390625 19.921875 C-0.37773437 18.76171875 -0.36484375 17.6015625 -0.3515625 16.40625 C-0.31804687 15.1996875 -0.28453125 13.993125 -0.25 12.75 C-0.22292969 10.91695312 -0.22292969 10.91695312 -0.1953125 9.046875 C-0.148181 6.03045922 -0.08239413 3.01562509 0 0 Z " fill="#6A7D87" transform="translate(248,49)"/>
</svg>
