<svg width="173" height="139" viewBox="0 0 173 139" fill="none" xmlns="http://www.w3.org/2000/svg">
<g clip-path="url(#clip0_88_109)">
<path d="M69.5927 39.031C70.1393 39.1011 70.6859 39.1713 71.249 39.2437C73.1791 39.5261 74.9969 39.7923 76.8159 40.5099C78.5064 40.916 79.1873 40.5675 80.6898 39.7288C81.4465 39.1368 82.1811 38.5157 82.8944 37.8721C91.7427 30.2697 104.074 27.785 115.504 28.1695C115.975 28.1827 116.447 28.1959 116.932 28.2095C118.436 28.2579 119.937 28.3232 121.44 28.3972C121.906 28.418 122.371 28.4388 122.851 28.4602C125.574 28.6347 127.502 29.0365 129.834 30.4763C130.885 31.7334 131.16 33.3125 131.614 34.8619C131.713 35.1963 131.813 35.5307 131.916 35.8753C132.162 36.7016 132.405 37.5286 132.648 38.3557C133.141 38.4034 133.141 38.4034 133.644 38.4521C134.08 38.5037 134.516 38.5553 134.966 38.6085C135.396 38.6555 135.826 38.7024 136.269 38.7508C137.894 39.1718 138.684 39.7641 139.907 40.911C140.459 42.2374 140.459 42.2374 140.831 43.8095C140.902 44.0993 140.973 44.3891 141.047 44.6877C141.282 45.6559 141.505 46.6265 141.727 47.5977C141.894 48.2938 142.061 48.9897 142.229 49.6854C142.682 51.5733 143.124 53.4636 143.564 55.3547C144.025 57.334 144.496 59.3111 144.966 61.2885C145.753 64.6094 146.532 67.9321 147.307 71.2558C148.204 75.0977 149.111 78.9368 150.025 82.7746C150.903 86.4675 151.775 90.1622 152.642 93.8577C153.011 95.43 153.383 97.0016 153.757 98.5728C154.197 100.423 154.63 102.275 155.059 104.128C155.217 104.808 155.377 105.487 155.54 106.166C155.762 107.093 155.976 108.021 156.188 108.95C156.37 109.729 156.37 109.729 156.556 110.523C156.729 112.109 156.513 113.052 155.893 114.511C154.25 116.287 152.13 116.623 149.804 116.901C147.604 116.875 145.435 116.66 143.247 116.434C132.244 115.429 118.607 114.667 109.024 121.326C107.494 122.68 106.184 124.147 105.029 125.832C103.324 128.172 101.339 128.688 98.541 129.227C96.6966 129.401 95.6533 129.052 94.0149 128.2C85.9306 124.772 77.6596 126.397 69.6351 129.495C62.7156 132.42 56.2547 136.599 49.8793 140.54C47.8488 141.213 46.0232 141.711 43.8949 141.363C42.2587 140.498 41.637 139.669 41.0538 137.907C40.9294 137.388 40.8051 136.869 40.677 136.334C40.6063 136.045 40.5357 135.755 40.4629 135.457C40.2275 134.487 39.9986 133.516 39.7696 132.545C39.6022 131.85 39.4344 131.154 39.2662 130.458C38.8109 128.569 38.3614 126.678 37.9134 124.787C37.5391 123.209 37.1623 121.631 36.7856 120.053C35.8972 116.33 35.014 112.607 34.1336 108.882C33.2251 105.04 32.3066 101.2 31.3834 97.3609C30.5912 94.0648 29.806 90.7672 29.0261 87.4682C28.5602 85.4979 28.0916 83.5283 27.6159 81.5602C27.1689 79.7094 26.7305 77.8568 26.2987 76.0024C26.1389 75.3224 25.9759 74.6431 25.8097 73.9646C25.583 73.0377 25.3677 72.1088 25.155 71.1786C25.0316 70.6593 24.9082 70.14 24.7811 69.605C24.656 67.8569 25.0487 66.9844 25.9471 65.4973C26.9626 64.6098 26.9626 64.6098 28.0643 63.8986C28.6145 63.5362 28.6145 63.5362 29.1759 63.1664C29.5951 62.903 29.5951 62.903 30.0228 62.6341C29.9138 62.1447 29.8047 61.6552 29.6923 61.1509C29.5597 60.4961 29.4277 59.8412 29.2962 59.1862C29.223 58.8651 29.1498 58.544 29.0744 58.2132C28.6914 56.2322 28.6422 54.7 29.7117 52.8809C31.1969 51.1651 33.1981 50.1298 35.1493 49.0189C35.618 48.7474 36.0866 48.4759 36.5695 48.1962C37.9671 47.3979 39.3733 46.6181 40.7856 45.846C41.3385 45.5401 41.3385 45.5401 41.9026 45.228C50.0071 40.842 60.3596 37.7303 69.5927 39.031Z" fill="#67B2F3"/>
<path d="M69.1996 43.3966C69.756 43.7397 69.756 43.7397 70.1631 45.3346C70.2744 45.8468 70.3858 46.359 70.5005 46.8867C68.694 47.1183 67.0955 47.3138 65.2747 47.1642C62.9809 47.1282 60.975 47.5535 58.7548 48.0929C58.3197 48.1981 57.8847 48.3034 57.4365 48.4118C50.7359 50.1105 43.2036 52.9797 37.8304 57.464C38.1545 58.1706 38.4785 58.8773 38.8123 59.6053C40.6395 58.9566 42.2938 58.1938 43.9819 57.2382C48.5059 54.6952 52.8554 52.6869 57.9254 51.4935C58.3742 51.3864 58.823 51.2792 59.2855 51.1689C63.3077 50.3105 67.6655 49.82 71.5641 51.3824C72.0244 52.3472 72.0244 52.3472 72.2033 53.4565C72.269 53.8247 72.3346 54.1928 72.4023 54.5721C72.4415 54.8548 72.4808 55.1374 72.5213 55.4285C70.8412 55.6109 69.3133 55.7272 67.6212 55.6309C64.791 55.588 62.101 56.2876 59.3623 56.9394C58.5222 57.1393 58.5222 57.1393 57.6651 57.3432C53.2595 58.4472 49.5067 59.9504 45.621 62.2672C45.0753 62.5803 44.529 62.8925 43.9822 63.2038C42.71 63.9377 41.4486 64.6847 40.195 65.4498C40.2219 66.2267 40.2489 67.0036 40.2766 67.8041C42.3884 67.911 43.5762 67.3159 45.3732 66.2424C54.3338 61.0388 62.9932 57.595 73.4785 59.4747C73.8295 60.9583 74.1805 62.4419 74.5421 63.9704C72.7418 64.1206 71.0339 64.1252 69.2339 64.0097C59.6924 63.9435 49.0829 68.4546 41.872 74.5477C42.0124 75.1411 42.1528 75.7346 42.2974 76.346C45.0309 75.5591 47.5211 74.4516 50.0307 73.122C58.3254 68.7595 66.0794 66.2491 75.4993 68.0166C78.4124 80.3303 81.3255 92.6441 84.3269 105.331C82.3258 105.491 80.3246 105.651 78.2628 105.816C67.0572 107.93 58.4121 111.675 48.7321 117.591C47.2101 118.476 45.6528 119.268 44.0866 120.073C42.0482 111.691 40.0227 103.306 38.0124 94.9177C37.0787 91.0228 36.1409 87.1289 35.193 83.2374C34.3669 79.8453 33.5486 76.4514 32.7399 73.0552C32.3114 71.2571 31.879 69.4601 31.4371 67.6653C31.0211 65.9751 30.6158 64.2828 30.2184 62.5881C30.0709 61.9673 29.9196 61.3475 29.7641 60.7287C28.4466 55.4714 28.4466 55.4714 29.4384 53.3802C30.3949 52.0895 31.1388 51.3715 32.515 50.5583C32.9353 50.3061 33.3557 50.0539 33.7888 49.7941C34.2378 49.5383 34.6867 49.2825 35.1493 49.019C35.6119 48.7492 36.0744 48.4795 36.5509 48.2016C39.4581 46.5329 42.4035 44.9581 45.4361 43.5293C45.7658 43.3714 46.0955 43.2134 46.4352 43.0507C53.6707 39.8071 61.8609 41.3291 69.1996 43.3966Z" fill="#F8F9F8"/>
<path d="M108.277 30.7695C108.85 30.7952 109.422 30.8209 110.013 30.8474C118.397 31.3004 118.397 31.3004 120.21 32.811C121.385 34.2402 121.661 35.3864 122.077 37.1864C122.191 37.667 122.191 37.667 122.307 38.1572C122.555 39.2109 122.794 40.2664 123.033 41.3222C123.203 42.0554 123.375 42.7885 123.547 43.5214C123.997 45.4465 124.439 47.3734 124.879 49.3008C125.33 51.2689 125.788 53.2352 126.246 55.2017C127.143 59.0573 128.032 62.9148 128.914 66.7736C126.317 66.9688 123.812 66.8667 121.214 66.7131C116.863 66.5761 112.929 67.0343 108.684 68.0287C107.883 68.216 107.883 68.216 107.066 68.407C102.526 69.5465 99.0959 71.2027 95.4999 74.2038C95.6754 74.9456 95.8508 75.6874 96.0316 76.4517C97.8679 75.7963 99.4812 75.0326 101.161 74.042C103.755 72.6214 106.336 71.8971 109.21 71.257C109.705 71.1438 110.199 71.0307 110.709 70.9141C114.399 70.1091 117.8 69.7385 121.582 69.9325C122.066 69.9429 122.55 69.9532 123.048 69.9638C125.297 70.0156 127.528 70.1339 129.765 70.3701C130.116 71.8537 130.467 73.3373 130.829 74.8659C128.403 75.2349 126.106 75.2603 123.652 75.1691C114.108 74.8475 104.924 76.2758 97.5206 82.7457C97.8447 83.4524 98.1687 84.159 98.5025 84.8871C100.312 84.1822 101.827 83.3408 103.437 82.2657C111.686 77.4127 122.587 77.461 131.786 78.912C132.137 80.3956 132.488 81.8792 132.85 83.4077C130.51 83.6597 128.223 83.7222 125.87 83.6644C121.242 83.5563 116.898 83.6728 112.373 84.7508C111.942 84.8528 111.512 84.9547 111.068 85.0597C107.467 85.9726 104.572 87.3391 101.473 89.4064C100.645 89.9208 99.8156 90.434 98.985 90.9445C99.4926 91.7644 100 92.5842 100.523 93.429C102.355 92.6213 104.041 91.6589 105.757 90.6331C114.045 86.0845 124.112 86.2912 133.25 87.1108C133.807 87.4539 133.807 87.4539 134.257 89.1592C134.422 89.8712 134.585 90.5837 134.746 91.2967C134.829 91.6597 134.913 92.0226 134.999 92.3966C135.207 93.2962 135.411 94.1963 135.615 95.0966C133.566 95.1386 131.525 95.1715 129.477 95.091C115.749 94.7485 105.358 99.3537 94.9492 108.04C89.5711 85.9699 84.193 63.8995 78.6519 41.1604C89.1872 32.7849 95.2661 30.185 108.277 30.7695Z" fill="#F8F9F8"/>
<path d="M51.6129 41.3856C57.6905 39.7392 63.2665 38.2663 69.5927 39.031C70.1293 39.0926 70.6658 39.1541 71.2187 39.2175C72.6851 39.4218 74.0895 39.6414 75.5258 40.0011C75.815 40.0486 76.1041 40.0962 76.402 40.1451C77.5531 40.4407 78.2716 40.7623 79.2084 41.5035C80.1893 43.4804 80.6236 45.5891 81.103 47.7309C81.2606 48.3815 81.4197 49.0318 81.58 49.6817C82.0106 51.4444 82.4218 53.2112 82.8297 54.9793C83.2594 56.8272 83.7069 58.6708 84.1526 60.515C84.9934 64.0065 85.8183 67.5016 86.6374 70.9983C87.5708 74.9795 88.5221 78.9564 89.4748 82.933C91.434 91.112 93.3708 99.2963 95.2929 107.484C95.7424 107.083 96.1918 106.683 96.6548 106.27C97.2557 105.738 97.8568 105.206 98.4579 104.674C98.7527 104.411 99.0476 104.147 99.3514 103.876C103.984 99.7892 108.838 97.7684 114.872 96.4434C115.188 96.3717 115.505 96.3001 115.831 96.2262C125.985 93.9461 135.563 94.9521 145.812 96.0074C146.073 97.0162 146.328 98.0265 146.581 99.0374C146.723 99.5999 146.866 100.162 147.013 100.742C147.396 102.818 147.235 103.65 146.138 105.425C144.423 107.128 142.725 107.16 140.393 107.259C138.869 107.223 137.358 107.1 135.84 106.971C123.604 106.13 111.655 107.992 101.998 115.986C101.728 116.223 101.457 116.461 101.179 116.705C99.4246 118.216 98.0777 119.006 95.7013 119.256C94.0218 118.976 94.0218 118.976 92.2826 118.492C89.4371 117.749 86.7773 117.322 83.8351 117.316C83.4966 117.299 83.1581 117.283 82.8094 117.265C73.0879 117.105 63.8096 121.839 55.6957 126.661C51.7433 128.99 51.7433 128.99 49.5772 129.218C47.7767 128.594 46.6347 127.944 45.5756 126.367C45.1204 124.835 45.1204 124.835 44.7483 123.121C44.622 122.551 44.4958 121.981 44.3657 121.394C44.2276 120.74 44.2276 120.74 44.0866 120.073C45.746 119.025 47.4082 117.983 49.0728 116.943C49.636 116.591 50.1985 116.237 50.7602 115.883C57.4819 111.639 64.1667 108.594 71.9127 106.725C72.4248 106.594 72.937 106.463 73.4647 106.328C74.2337 106.143 74.2337 106.143 75.0182 105.953C75.4728 105.841 75.9274 105.729 76.3957 105.614C79.0155 105.246 81.6816 105.346 84.3269 105.331C81.2653 93.0524 78.2036 80.7738 75.0492 68.1231C64.5256 66.8959 55.3297 70.0774 46.38 75.4896C45.0578 76.1811 43.8643 76.5162 42.4038 76.7956C42.0798 76.0889 41.7557 75.3823 41.4219 74.6542C42.7364 72.697 44.563 71.865 46.604 70.8172C46.9636 70.6307 47.3233 70.4443 47.6938 70.2521C48.768 69.6993 49.8456 69.1538 50.9236 68.6085C51.2097 68.4596 51.4957 68.3108 51.7905 68.1575C57.9367 64.9701 64.6801 63.0895 71.6287 63.7102C72.2274 63.7546 72.8261 63.799 73.4429 63.8447C73.8057 63.8862 74.1684 63.9277 74.5421 63.9704C74.1911 62.4868 73.8401 61.0033 73.4785 59.4747C62.6783 58.6523 54.3734 61.7574 45.0117 66.747C42.3623 68.1118 42.3623 68.1118 40.9395 68.5968C39.8265 67.9106 39.8265 67.9106 39.5392 66.8214C39.7449 65.5563 39.7449 65.5563 40.8941 64.5908C48.891 59.0188 59.2592 54.6712 69.1578 55.2748C69.5235 55.2874 69.8892 55.3001 70.266 55.3131C71.0178 55.3516 71.7695 55.3901 72.5213 55.4286C71.8247 53.4784 71.8247 53.4784 71.114 51.4889C70.2673 51.3804 69.4202 51.2748 68.573 51.1702C68.1013 51.1111 67.6296 51.0519 67.1437 50.991C58.1817 50.1686 48.9496 54.4901 41.6101 59.2198C40.4974 59.7308 39.5758 59.7349 38.3622 59.7118C37.8762 58.6519 37.8762 58.6519 37.3803 57.5705C39.9215 55.4888 42.5257 53.9182 45.4744 52.4809C46.0441 52.1951 46.0441 52.1951 46.6254 51.9035C54.068 48.2169 62.1736 46.0257 70.5005 46.8867C70.1727 45.3686 70.1727 45.3686 69.3059 43.8462C67.996 43.279 67.0269 42.9759 65.6535 42.7223C65.2975 42.6477 64.9414 42.5731 64.5746 42.4962C60.3018 41.6647 56.0587 41.6575 51.7193 41.8352C51.6842 41.6868 51.6491 41.5385 51.6129 41.3856Z" fill="#CED7E4"/>
<path d="M95.2737 31.0566C102.07 29.2057 108.451 27.9761 115.504 28.1696C115.978 28.1821 116.452 28.1947 116.94 28.2077C118.441 28.2562 119.94 28.3222 121.44 28.3972C121.905 28.4181 122.371 28.4389 122.851 28.4603C125.574 28.6346 127.502 29.0365 129.834 30.4764C130.72 31.5366 130.84 32.4746 131.158 33.8221C131.352 34.6408 131.352 34.6408 131.551 35.476C131.693 36.0846 131.835 36.6932 131.978 37.3018C132.128 37.9398 132.279 38.5777 132.43 39.2156C132.841 40.9506 133.249 42.6862 133.656 44.422C134.082 46.2347 134.51 48.0468 134.939 49.8589C135.749 53.292 136.558 56.7256 137.365 60.1595C138.285 64.0681 139.207 67.9762 140.129 71.8842C142.026 79.9246 143.92 87.9658 145.812 96.0074C145.136 96.0204 144.461 96.0323 143.786 96.0438C143.409 96.0505 143.033 96.0573 142.646 96.0642C140.325 96.0693 138.028 95.7762 135.721 95.5461C134.551 91.5932 134.551 91.5932 133.357 87.5603C122.875 86.7793 110.586 86.3641 101.98 93.5591C100.351 93.707 100.351 93.707 99.5167 93.1923C99.3212 92.4476 99.1429 91.6981 98.985 90.9445C99.7237 90.3903 100.465 89.84 101.208 89.2911C101.621 88.9842 102.033 88.6772 102.458 88.361C111.161 82.4878 122.748 82.3491 132.85 83.4077C132.499 81.9241 132.148 80.4405 131.786 78.912C131.44 78.9077 131.093 78.9034 130.736 78.899C130.257 78.893 129.777 78.8871 129.283 78.881C128.761 78.8749 128.238 78.8689 127.699 78.8626C126.664 78.849 125.629 78.8322 124.594 78.811C123.177 78.7843 121.762 78.7734 120.345 78.7702C119.947 78.7652 119.549 78.7603 119.139 78.7552C113.26 78.8542 107.252 80.2406 102.343 83.5168C101.125 84.2985 99.9833 84.8799 98.6089 85.3366C97.496 84.6505 97.496 84.6505 97.1871 83.596C97.4769 81.9376 98.2208 81.3164 99.5441 80.3273C108.884 74.242 120.047 74.0731 130.829 74.8658C130.478 73.3823 130.127 71.8987 129.765 70.3701C129.203 70.4223 129.203 70.4223 128.63 70.4756C126.258 70.5946 123.912 70.4512 121.543 70.3293C114.247 69.9958 105.46 71.4394 99.3997 75.7142C98.3033 76.424 97.4247 76.7085 96.138 76.9013C95.5815 76.5582 95.5815 76.5582 95.2809 75.4128C95.1665 74.8671 95.1665 74.8671 95.0497 74.3103C99.0494 70.7694 102.877 68.8684 108.093 67.6641C108.885 67.4788 108.885 67.4788 109.693 67.2897C116.139 65.8879 122.408 65.9142 128.914 66.7735C127.872 62.5345 126.824 58.2966 125.77 54.0602C125.281 52.0931 124.794 50.1255 124.31 48.1571C123.843 46.2575 123.372 44.3589 122.898 42.4611C122.717 41.7368 122.539 41.0121 122.362 40.2871C122.113 39.2717 121.86 38.2578 121.605 37.2441C121.462 36.6665 121.319 36.0889 121.172 35.4938C120.731 34.155 120.396 33.4246 119.375 32.476C115.962 31.21 111.859 31.398 108.27 31.2457C107.7 31.2161 107.129 31.1865 106.541 31.156C102.778 30.9867 99.1259 31.1131 95.3801 31.5062C95.345 31.3578 95.3099 31.2095 95.2737 31.0566Z" fill="#E7EFFE"/>
<path d="M51.6129 41.3855C57.6905 39.7391 63.2665 38.2662 69.5927 39.0309C70.1293 39.0925 70.6658 39.154 71.2187 39.2174C72.6851 39.4217 74.0895 39.6413 75.5258 40.001C75.8153 40.0479 76.1048 40.0949 76.4031 40.1433C77.5573 40.4376 78.2718 40.7575 79.2084 41.5034C80.182 43.4987 80.6038 45.6239 81.0714 47.7819C81.2257 48.4379 81.3813 49.0937 81.5383 49.7491C81.9598 51.5268 82.3617 53.3085 82.7603 55.0915C83.1803 56.9549 83.6182 58.8142 84.0543 60.6739C84.8769 64.1951 85.6835 67.7197 86.4843 71.2459C87.3969 75.2606 88.3274 79.2712 89.2594 83.2814C91.1759 91.5298 93.07 99.7831 94.9492 108.04C92.9065 107.75 90.9128 107.335 88.9066 106.859C88.5948 106.786 88.2829 106.714 87.9616 106.639C86.5576 106.308 85.2314 105.94 83.8768 105.437C83.4616 104.258 83.1584 103.161 82.889 101.946C82.7595 101.4 82.7595 101.4 82.6274 100.843C82.3429 99.6363 82.068 98.4274 81.7931 97.2183C81.598 96.3824 81.4023 95.5466 81.2061 94.711C80.6905 92.5087 80.1831 90.3046 79.6773 88.1001C79.16 85.8519 78.6351 83.6054 78.1108 81.3588C77.0828 76.9486 76.0633 72.5364 75.0492 68.123C74.1896 68.0155 73.3298 67.9101 72.4698 67.8055C71.991 67.7466 71.5122 67.6877 71.0189 67.6269C62.5967 66.808 53.3908 71.2499 46.38 75.4895C45.0578 76.181 43.8643 76.5162 42.4038 76.7955C41.9177 75.7355 41.9177 75.7355 41.4219 74.6541C42.7364 72.697 44.563 71.865 46.604 70.8171C46.9636 70.6307 47.3233 70.4442 47.6938 70.2521C48.768 69.6992 49.8456 69.1537 50.9236 68.6084C51.2097 68.4596 51.4957 68.3107 51.7905 68.1574C57.9367 64.97 64.6801 63.0894 71.6287 63.7101C72.2274 63.7545 72.8261 63.7989 73.4429 63.8447C73.8057 63.8861 74.1684 63.9276 74.5421 63.9704C74.1911 62.4868 73.8401 61.0032 73.4785 59.4746C62.6783 58.6522 54.3734 61.7573 45.0117 66.7469C42.3623 68.1117 42.3623 68.1117 40.9395 68.5967C39.8265 67.9105 39.8265 67.9105 39.5392 66.8214C39.7449 65.5562 39.7449 65.5562 40.8941 64.5908C48.891 59.0187 59.2592 54.6711 69.1578 55.2747C69.5235 55.2874 69.8892 55.3 70.266 55.313C71.0178 55.3515 71.7695 55.39 72.5213 55.4285C71.8247 53.4784 71.8247 53.4784 71.114 51.4888C70.2673 51.3804 69.4202 51.2747 68.573 51.1702C68.1013 51.111 67.6296 51.0519 67.1437 50.9909C58.1817 50.1685 48.9496 54.49 41.6101 59.2197C40.4974 59.7307 39.5758 59.7348 38.3622 59.7118C38.0382 59.0051 37.7142 58.2985 37.3803 57.5704C39.9215 55.4887 42.5257 53.9181 45.4744 52.4808C46.0441 52.195 46.0441 52.195 46.6254 51.9034C54.068 48.2168 62.1736 46.0257 70.5005 46.8866C70.1727 45.3685 70.1727 45.3685 69.3059 43.8461C67.996 43.279 67.0269 42.9758 65.6535 42.7222C65.2975 42.6476 64.9414 42.573 64.5746 42.4961C60.3018 41.6647 56.0587 41.6574 51.7193 41.8351C51.6842 41.6867 51.6491 41.5384 51.6129 41.3855Z" fill="#E7EFFE"/>
<path d="M134.413 83.9874C135.01 84.8086 135.01 84.8086 135.288 85.6792C135.21 86.0111 135.132 86.3429 135.051 86.6848C132.576 87.4013 130.543 87.4436 127.99 87.2277C119.276 86.6527 108.947 87.7337 101.98 93.5591C100.351 93.707 100.351 93.707 99.5167 93.1923C99.3212 92.4476 99.1429 91.6981 98.9849 90.9445C99.7237 90.3903 100.465 89.84 101.208 89.2911C101.621 88.9842 102.033 88.6773 102.458 88.361C110.383 83.0123 125.316 80.4016 134.413 83.9874Z" fill="#62A9E6"/>
<path d="M131.835 75.1024C132.386 75.442 132.386 75.442 132.948 75.7886C133.059 77.0086 133.059 77.0086 133.03 78.1429C131.111 79.2808 129.516 79.1236 127.383 78.8854C118.895 78.142 109.616 78.6629 102.343 83.5167C101.125 84.2985 99.9833 84.8799 98.6089 85.3366C97.496 84.6504 97.496 84.6504 97.1871 83.596C97.477 81.9375 98.2208 81.3163 99.5441 80.3272C108.929 74.2124 120.982 73.5979 131.835 75.1024Z" fill="#62A9E6"/>
<path d="M108.093 67.664C108.886 67.4788 108.886 67.4788 109.696 67.2899C114.828 66.1762 119.768 65.9989 124.994 66.2766C125.591 66.2995 126.188 66.3223 126.803 66.3459C129.406 66.5307 129.406 66.5307 130.371 66.9036C131.036 67.9331 131.036 67.9331 131.353 69.0449C131.126 69.4119 130.899 69.7789 130.666 70.1571C127.955 70.6251 125.349 70.5537 122.613 70.4005C114.922 69.9803 105.826 71.1811 99.3997 75.7141C98.3033 76.4239 97.4247 76.7084 96.138 76.9012C95.5815 76.5581 95.5815 76.5581 95.2809 75.4127C95.2046 75.0489 95.1283 74.6851 95.0497 74.3102C99.0492 70.7695 102.877 68.8679 108.093 67.664Z" fill="#62A9E6"/>
<path d="M71.6287 63.7101C72.0606 63.7511 72.4924 63.7921 72.9374 63.8344C75.8584 64.2305 75.8584 64.2305 76.9188 65.6037C77.087 66.6914 77.087 66.6914 76.3995 67.8035C74.4495 68.1204 72.6751 67.9107 70.7494 67.5824C62.3974 66.9119 53.3258 71.2892 46.38 75.4895C45.0578 76.181 43.8643 76.5161 42.4038 76.7955C42.0798 76.0888 41.7557 75.3822 41.4219 74.6541C42.7364 72.6969 44.563 71.8649 46.604 70.8171C46.9636 70.6306 47.3233 70.4441 47.6938 70.252C48.768 69.6992 49.8456 69.1537 50.9236 68.6084C51.2097 68.4595 51.4957 68.3107 51.7905 68.1573C57.8628 65.0083 64.7487 62.9803 71.6287 63.7101Z" fill="#62A9E6"/>
<path d="M72.0636 47.4664C72.6201 47.8094 72.6201 47.8094 72.9422 48.9201C73.1518 50.0573 73.1518 50.0573 72.8081 50.6134C70.7238 51.3316 68.9715 51.2218 66.8285 50.9617C58.0276 50.157 48.8025 54.5848 41.6101 59.2198C40.4974 59.7308 39.5758 59.7348 38.3622 59.7118C38.0382 59.0052 37.7142 58.2985 37.3803 57.5704C39.9215 55.4888 42.5257 53.9181 45.4744 52.4808C45.8542 52.2903 46.234 52.0998 46.6254 51.9035C54.7465 47.8808 63.0512 45.8698 72.0636 47.4664Z" fill="#62A9E6"/>
<path d="M69.1578 55.2748C69.625 55.3044 70.0921 55.334 70.5734 55.3645C70.9775 55.4127 71.3817 55.4609 71.7981 55.5106C72.2095 55.5534 72.621 55.5962 73.0449 55.6403C74.0844 56.0082 74.0844 56.0082 74.7612 57.0405C74.8619 57.4065 74.9625 57.7725 75.0663 58.1496C74.8394 58.5166 74.6125 58.8836 74.3788 59.2617C72.6959 59.5322 71.125 59.419 69.443 59.2425C67.4065 59.0474 65.5097 59.1057 63.4944 59.463C63.0739 59.5374 62.6534 59.6117 62.2202 59.6884C56.0615 60.961 50.5228 63.8096 45.0117 66.747C42.3623 68.1117 42.3623 68.1117 40.9395 68.5967C39.8265 67.9106 39.8265 67.9106 39.5392 66.8214C39.7449 65.5562 39.7449 65.5562 40.8941 64.5908C48.8687 59.0342 59.2796 54.6317 69.1578 55.2748Z" fill="#62A9E6"/>
<path d="M71.714 13.8429C72.7851 13.7008 72.7851 13.7008 74.0709 13.7601C74.956 14.4482 74.956 14.4482 75.7889 15.3713C77.6254 17.2233 79.3494 17.9621 81.8615 18.5633C81.9542 19.4259 81.9542 19.4259 81.8368 20.4681C81.11 21.1945 81.11 21.1945 80.1565 21.9041C78.0253 23.7035 77.5047 25.5702 77.0242 28.2529C75.9395 28.4001 75.9395 28.4001 74.6673 28.3357C73.877 27.6084 73.877 27.6084 73.1678 26.6432C71.6795 24.8495 70.5809 24.3746 68.2867 24.1243C67.4332 23.8756 67.4332 23.8756 66.8788 23.0072C66.7728 22.7355 66.6669 22.4637 66.5577 22.1838C66.9401 21.7996 66.9401 21.7996 67.3303 21.4076C69.5871 19.0324 70.9749 17.0486 71.714 13.8429Z" fill="#62A9E6"/>
<path d="M61.185 81.847C62.0328 81.7577 62.0328 81.7577 63.0918 81.8706C63.9329 82.5692 63.9329 82.5692 64.7817 83.4885C66.6314 85.3239 68.372 86.073 70.8824 86.6738C70.5183 88.7452 69.7332 89.4367 68.026 90.6727C67.7289 90.743 67.4319 90.8133 67.1258 90.8857C67.0819 91.2388 67.038 91.5919 66.9927 91.9557C66.7594 93.3346 66.3906 94.5921 65.9388 95.9138C65.0578 95.9962 65.0578 95.9962 64.032 95.8902C63.4269 95.2397 63.4269 95.2397 62.8736 94.384C61.2715 92.2801 59.3132 91.902 56.7979 91.4301C56.6575 90.8366 56.5171 90.2432 56.3725 89.6318C56.6115 89.4534 56.8506 89.2751 57.0968 89.0914C59.7 86.9734 60.5977 85.1265 61.185 81.847Z" fill="#62A9E6"/>
<path d="M105.773 43.2896C106.218 43.1842 106.664 43.0787 107.123 42.9701C107.937 43.7493 107.937 43.7493 108.838 44.8194C110.766 46.9103 112.122 47.4088 114.913 47.7733C115.146 48.7568 115.146 48.7568 114.995 50.1277C114.366 50.829 114.366 50.829 113.553 51.5666C111.723 53.248 111.118 54.9852 110.526 57.3564C109.659 57.4354 109.659 57.4354 108.62 57.3328C107.916 56.7055 107.916 56.7055 107.236 55.8798C105.43 53.9502 103.475 53.4747 100.935 52.9791C100.844 51.8344 100.811 51.2669 101.527 50.3394C103.585 48.5543 103.585 48.5543 104.586 48.3177C104.629 47.9646 104.673 47.6115 104.719 47.2478C104.955 45.8496 105.235 44.6032 105.773 43.2896Z" fill="#62A9E6"/>
</g>
<circle cx="2.5" cy="2.5" r="2.5" transform="matrix(-1 0 0 1 15 53)" fill="#F2FAF2"/>
<circle cx="2.5" cy="2.5" r="2.5" transform="matrix(-1 0 0 1 157 59)" fill="#F2FAF2"/>
<circle cx="2.5" cy="2.5" r="2.5" transform="matrix(-1 0 0 1 94 21)" fill="#F2FAF2"/>
<circle cx="2.5" cy="2.5" r="2.5" transform="matrix(-1 0 0 1 173 110)" fill="#F2FAF2"/>
<circle cx="2.5" cy="2.5" r="2.5" transform="matrix(-1 0 0 1 27 110)" fill="#F2FAF2"/>
<circle cx="1.5" cy="1.5" r="1.5" transform="matrix(-1 0 0 1 59 12)" fill="#F2FAF2"/>
<circle cx="1.5" cy="1.5" r="1.5" transform="matrix(-1 0 0 1 146 30)" fill="#F2FAF2"/>
<circle cx="1.5" cy="1.5" r="1.5" transform="matrix(-1 0 0 1 162 41)" fill="#F2FAF2"/>
<circle cx="1.5" cy="1.5" r="1.5" transform="matrix(-1 0 0 1 165 104)" fill="#F2FAF2"/>
<circle cx="1.5" cy="1.5" r="1.5" transform="matrix(-1 0 0 1 17 89)" fill="#F2FAF2"/>
<circle cx="1.5" cy="1.5" r="1.5" transform="matrix(-1 0 0 1 3 48)" fill="#F2FAF2"/>
<defs>
<clipPath id="clip0_88_109">
<rect width="118.409" height="118.267" fill="white" transform="translate(15 27.26) rotate(-13.31)"/>
</clipPath>
</defs>
</svg>
