<svg width="18" height="18" viewBox="0 0 18 18" fill="none" xmlns="http://www.w3.org/2000/svg">
<path d="M14.1683 9.04513L6.43669 16.7768C6.25421 16.9593 6.02221 17.0831 5.77066 17.1339L1.55813 17.9759C1.34775 18.0178 1.13027 18.0072 0.924995 17.9449C0.719717 17.8826 0.532982 17.7706 0.38136 17.6189C0.229737 17.4671 0.117915 17.2803 0.0558125 17.075C-0.00628982 16.8696 -0.0167517 16.6522 0.0253554 16.4418L0.867339 12.2293C0.91787 11.9775 1.04166 11.7462 1.22316 11.5646L8.95482 3.8316L14.1683 9.04513Z" fill="#BBE8FB"/>
<path d="M12.4048 0.381612C12.6493 0.137266 12.9807 0 13.3263 0C13.6719 0 14.0034 0.137266 14.2478 0.381612L17.6184 3.75216C17.8627 3.99658 18 4.32804 18 4.67365C18 5.01926 17.8627 5.35072 17.6184 5.59514L15.0898 8.12369L9.87628 2.91017L12.4048 0.381612Z" fill="#62A9E6"/>
</svg>
