<svg width="76" height="75" viewBox="0 0 76 75" fill="none" xmlns="http://www.w3.org/2000/svg">
<g clip-path="url(#clip0_26_2814)">
<g clip-path="url(#paint0_angular_26_2814_clip_path)" data-figma-skip-parse="true"><g transform="matrix(0 0.0370052 -0.0379303 0 37.9303 37.0052)"><foreignObject x="-1025" y="-1025" width="2050" height="2050"><div xmlns="http://www.w3.org/1999/xhtml" style="background:conic-gradient(from 90deg,rgba(253, 156, 137, 1) 0deg,rgba(253, 156, 137, 1) 48.4615deg,rgba(253, 156, 137, 1) 48.4975deg,rgba(255, 214, 206, 1) 335.769deg,rgba(253, 156, 137, 1) 360deg);height:100%;width:100%;opacity:1"></div></foreignObject></g></g><path d="M0 8.00111C0 3.58222 3.67178 0 8.20114 0H48.567H67.6594C72.1888 0 75.8606 3.58222 75.8606 8.00111V18.1727V66.0092C75.8606 70.4281 72.1888 74.0103 67.6594 74.0103H25.7336H8.20114C3.67178 74.0103 0 70.4281 0 66.0092V54.1V8.00111Z" data-figma-gradient-fill="{&#34;type&#34;:&#34;GRADIENT_ANGULAR&#34;,&#34;stops&#34;:[{&#34;color&#34;:{&#34;r&#34;:0.99215686321258545,&#34;g&#34;:0.61176472902297974,&#34;b&#34;:0.53725492954254150,&#34;a&#34;:1.0},&#34;position&#34;:0.0},{&#34;color&#34;:{&#34;r&#34;:0.99215686321258545,&#34;g&#34;:0.61176472902297974,&#34;b&#34;:0.53725492954254150,&#34;a&#34;:1.0},&#34;position&#34;:0.13461539149284363},{&#34;color&#34;:{&#34;r&#34;:0.99215686321258545,&#34;g&#34;:0.61176472902297974,&#34;b&#34;:0.53725492954254150,&#34;a&#34;:1.0},&#34;position&#34;:0.13471539318561554},{&#34;color&#34;:{&#34;r&#34;:1.0,&#34;g&#34;:0.84160304069519043,&#34;b&#34;:0.81057679653167725,&#34;a&#34;:1.0},&#34;position&#34;:0.93269228935241699}],&#34;stopsVar&#34;:[{&#34;color&#34;:{&#34;r&#34;:0.99215686321258545,&#34;g&#34;:0.61176472902297974,&#34;b&#34;:0.53725492954254150,&#34;a&#34;:1.0},&#34;position&#34;:0.0},{&#34;color&#34;:{&#34;r&#34;:0.99215686321258545,&#34;g&#34;:0.61176472902297974,&#34;b&#34;:0.53725492954254150,&#34;a&#34;:1.0},&#34;position&#34;:0.13461539149284363},{&#34;color&#34;:{&#34;r&#34;:0.99215686321258545,&#34;g&#34;:0.61176472902297974,&#34;b&#34;:0.53725492954254150,&#34;a&#34;:1.0},&#34;position&#34;:0.13471539318561554},{&#34;color&#34;:{&#34;r&#34;:1.0,&#34;g&#34;:0.84160304069519043,&#34;b&#34;:0.81057679653167725,&#34;a&#34;:1.0},&#34;position&#34;:0.93269228935241699}],&#34;transform&#34;:{&#34;m00&#34;:4.6451206359295841e-15,&#34;m01&#34;:-75.860572814941406,&#34;m02&#34;:75.860572814941406,&#34;m10&#34;:74.010314941406250,&#34;m11&#34;:4.5318248970366379e-15,&#34;m12&#34;:-4.5318248970366379e-15},&#34;opacity&#34;:1.0,&#34;blendMode&#34;:&#34;NORMAL&#34;,&#34;visible&#34;:true}"/>
<path fill-rule="evenodd" clip-rule="evenodd" d="M48.567 0L0 54.1V66.0092C0 70.4281 3.67178 74.0103 8.20114 74.0103H25.7336L75.8606 18.1727V8.00111C75.8606 3.58222 72.1888 0 67.6594 0H48.567Z" fill="url(#paint1_linear_26_2814)"/>
<g clip-path="url(#clip1_26_2814)">
<path d="M42.8218 21.9603C44.969 23.725 46.8551 27.1014 47.3406 29.8264C47.4086 29.7924 47.4765 29.7584 47.5466 29.7234C47.7823 29.7133 48.0183 29.7099 48.2542 29.7097C48.3241 29.7096 48.3939 29.7095 48.4659 29.7094C48.6137 29.7093 48.7615 29.7095 48.9092 29.7099C49.1353 29.7105 49.3613 29.7099 49.5873 29.7093C49.7309 29.7094 49.8744 29.7095 50.018 29.7097C50.1488 29.7098 50.2797 29.7099 50.4145 29.71C50.7394 29.7234 50.7394 29.7234 51.0483 29.8264C51.0767 29.7063 51.1052 29.5863 51.1344 29.4627C51.4668 28.138 52.0554 26.9062 52.6962 25.7066C52.7521 25.601 52.808 25.4953 52.8656 25.3864C53.6615 23.9533 54.8075 22.0822 56.404 21.4839C56.5165 21.4415 56.6291 21.399 56.7451 21.3552C58.2661 21.0458 59.4805 21.5847 60.7297 22.4109C61.8988 23.2568 62.9523 24.2727 63.7165 25.5007C63.7842 25.6062 63.8519 25.7118 63.9216 25.8205C65.3685 28.1928 65.8374 31.1264 65.2613 33.8431C65.0662 34.6108 64.8481 35.3782 64.5404 36.1089C64.5891 36.1642 64.6378 36.2194 64.688 36.2763C65.7293 37.5103 66.4284 38.9207 66.9104 40.458C67.2559 41.5633 67.2559 41.5633 68.0937 42.3142C68.4653 42.481 68.842 42.5639 69.2394 42.649C70.0705 42.8284 70.5331 43.1584 71.0289 43.8334C71.439 44.7073 71.3109 45.5535 71.0026 46.4337C70.2502 48.4218 69.2448 50.2917 67.9392 51.9698C67.8943 52.0278 67.8493 52.0858 67.8031 52.1455C65.3928 55.214 62.3774 57.0814 58.8758 58.6644C58.9257 58.7419 58.9756 58.8194 59.0271 58.8993C60.4677 61.1821 61.5651 63.6164 61.5922 66.3502C61.5937 66.457 61.5951 66.5639 61.5966 66.6739C61.5851 68.519 60.8659 70.031 59.5911 71.3446C57.3429 73.461 54.3543 74.0442 51.3819 74.0413C51.2085 74.0417 51.0351 74.0421 50.8618 74.0426C50.5004 74.0434 50.139 74.0434 49.7776 74.0428C49.3204 74.0422 48.8632 74.044 48.406 74.0463C48.0484 74.0479 47.6908 74.048 47.3331 74.0476C47.1649 74.0477 46.9966 74.0482 46.8283 74.0493C43.9374 74.0652 41.097 73.4159 38.8952 71.4355C38.83 71.3787 38.7648 71.3218 38.6976 71.2633C37.4518 70.1082 36.9732 68.631 36.7323 67.0068C36.7323 66.9048 36.7323 66.8029 36.7323 66.6978C36.6304 66.7318 36.5284 66.7658 36.4233 66.8008C33.0033 67.0609 29.4889 66.271 26.8313 64.0417C25.5144 62.8281 24.8077 61.0363 24.1258 59.4203C23.0241 56.8115 21.6646 54.5824 19.5003 52.7165C18.9381 52.2315 18.5522 51.7797 18.4644 51.0224C18.4469 50.1049 18.5372 49.3947 19.1809 48.705C20.8696 47.3002 23.3372 46.9028 25.4546 46.9103C25.6229 46.9097 25.6229 46.9097 25.7946 46.9091C26.3949 46.9098 26.9724 46.9354 27.566 47.0262C27.5288 46.9156 27.4916 46.805 27.4533 46.691C27.405 46.5431 27.3567 46.3952 27.3085 46.2473C27.2716 46.1384 27.2716 46.1384 27.234 46.0274C26.9674 45.2007 27.012 44.5235 27.36 43.7304C27.7597 43.1102 28.2932 42.7974 28.9998 42.6409C29.1425 42.612 29.2852 42.583 29.4279 42.554C30.1105 42.4029 30.6168 42.108 31.0575 41.5464C31.2812 41.1812 31.3809 40.7725 31.499 40.3638C31.9456 38.9321 32.557 37.5201 33.6116 36.4288C33.7728 36.2136 33.7728 36.2136 33.731 35.9251C33.6303 35.5484 33.5146 35.1784 33.3915 34.8086C32.5249 32.0754 32.757 29.1124 34.0466 26.5475C35.2174 24.2935 37.179 22.2456 39.6161 21.3809C40.7628 21.1033 41.8491 21.2823 42.8218 21.9603Z" fill="#FEF1CD"/>
<path d="M42.8218 21.9603C44.969 23.725 46.8551 27.1014 47.3406 29.8264C47.4085 29.7924 47.4765 29.7584 47.5466 29.7234C47.7823 29.7133 48.0183 29.7099 48.2542 29.7097C48.3241 29.7096 48.3939 29.7095 48.4659 29.7094C48.6137 29.7093 48.7614 29.7095 48.9092 29.7099C49.1353 29.7105 49.3613 29.7099 49.5873 29.7093C49.7309 29.7094 49.8744 29.7095 50.018 29.7097C50.1488 29.7098 50.2796 29.7099 50.4144 29.71C50.7393 29.7234 50.7393 29.7234 51.0483 29.8264C51.0767 29.7063 51.1051 29.5863 51.1344 29.4627C51.4668 28.138 52.0554 26.9062 52.6962 25.7066C52.7521 25.601 52.808 25.4953 52.8656 25.3864C53.6615 23.9533 54.8074 22.0822 56.4039 21.4839C56.5165 21.4415 56.6291 21.399 56.7451 21.3552C58.2661 21.0458 59.4805 21.5847 60.7296 22.4109C61.8988 23.2568 62.9523 24.2727 63.7164 25.5007C63.7841 25.6062 63.8519 25.7118 63.9216 25.8205C65.3685 28.1928 65.8374 31.1264 65.2613 33.8431C65.0662 34.6108 64.848 35.3782 64.5404 36.1089C64.5891 36.1642 64.6378 36.2194 64.688 36.2763C65.7304 37.5117 66.7943 39.1988 66.9092 40.8466C66.8454 40.8041 66.7815 40.7616 66.7157 40.7179C63.9433 38.9099 60.7979 37.7262 57.442 38.383C55.3977 38.8571 53.694 39.934 52.1812 41.3616C52.0663 41.4571 51.9505 41.5517 51.8336 41.6448C51.5579 41.863 51.5579 41.863 51.3766 42.134C50.9923 42.5732 50.4648 42.8263 49.9154 43.0094C48.9744 43.0716 48.1624 43.1059 47.4037 42.5061C46.9769 42.1316 46.5807 41.733 46.1883 41.3229C44.6014 39.7332 42.6385 38.7715 40.4401 38.3748C40.3431 38.3554 40.2462 38.336 40.1464 38.316C37.2329 37.9184 34.2446 38.8454 31.9045 40.5891C31.7965 40.6741 31.6889 40.7595 31.5827 40.8466C31.5147 40.8126 31.4467 40.7786 31.3767 40.7436C31.8183 39.1886 32.4743 37.6058 33.6115 36.4288C33.7728 36.2136 33.7728 36.2136 33.731 35.9251C33.6303 35.5484 33.5145 35.1784 33.3915 34.8086C32.5248 32.0754 32.7569 29.1124 34.0465 26.5475C35.2173 24.2935 37.179 22.2456 39.6161 21.3809C40.7628 21.1033 41.8491 21.2823 42.8218 21.9603Z" fill="#FF8870"/>
<path d="M31.9947 53.7207C32.3481 54.022 32.7005 54.324 33.0471 54.6332C36.3746 57.5798 40.633 59.2493 45.0233 59.7522C45.1328 59.7652 45.2423 59.7781 45.3552 59.7914C45.5724 59.8169 45.7898 59.8418 46.0072 59.8662C46.1928 59.8871 46.3783 59.9086 46.5636 59.9315C47.3592 60.0235 48.1564 60.0284 48.9563 60.029C49.0323 60.0291 49.1083 60.0292 49.1866 60.0292C52.1255 60.025 55.0722 59.7269 57.8578 58.7459C58.503 58.5232 58.503 58.5232 58.8758 58.6644C60.5233 60.7723 61.566 63.7044 61.5922 66.3502C61.5937 66.457 61.5951 66.5639 61.5966 66.6739C61.5851 68.519 60.8659 70.031 59.5911 71.3446C57.3429 73.461 54.3543 74.0442 51.3819 74.0413C51.2085 74.0417 51.0351 74.0421 50.8618 74.0426C50.5004 74.0434 50.139 74.0434 49.7776 74.0428C49.3204 74.0422 48.8633 74.044 48.406 74.0463C48.0484 74.0479 47.6908 74.048 47.3331 74.0476C47.1649 74.0477 46.9966 74.0482 46.8283 74.0493C43.9374 74.0652 41.097 73.4159 38.8952 71.4355C38.83 71.3787 38.7648 71.3218 38.6976 71.2633C37.4518 70.1082 36.9732 68.631 36.7323 67.0068C36.7323 66.9048 36.7323 66.8029 36.7323 66.6978C36.5794 66.7488 36.5794 66.7488 36.4233 66.8008C33.0033 67.0609 29.4889 66.271 26.8313 64.0417C25.9331 63.2139 25.3487 62.1054 24.8173 61.0203C24.7799 60.9459 24.7425 60.8715 24.7039 60.7948C24.4588 60.2736 24.4588 60.2736 24.5405 59.9711C25.0104 59.3944 25.489 59.1241 26.1756 58.8639C27.2568 58.4514 27.766 58.0685 28.2869 57.0165C28.3724 56.8069 28.4561 56.5966 28.538 56.3856C28.8637 55.5733 29.3631 54.9623 30.1408 54.5446C30.4778 54.4091 30.8164 54.2808 31.1582 54.158C31.4606 54.0373 31.7212 53.8964 31.9947 53.7207Z" fill="#FF876F"/>
<path d="M35.5994 38.6838C35.559 38.8134 35.5187 38.9429 35.4771 39.0764C35.4143 39.2887 35.3522 39.5011 35.2904 39.7137C35.2606 39.8148 35.2606 39.8148 35.2302 39.918C33.7481 45.0062 34.421 50.2748 36.9299 54.9112C37.5475 56.0211 38.2937 56.9708 39.1683 57.8895C39.3699 58.1061 39.5444 58.3236 39.7191 58.5614C39.0015 58.3661 38.3357 58.1174 37.6657 57.7954C37.5728 57.7508 37.48 57.7062 37.3843 57.6602C35.8574 56.9091 34.4909 55.9937 33.2306 54.8537C33.0741 54.7161 32.9175 54.5787 32.7607 54.4417C32.6712 54.362 32.6712 54.362 32.58 54.2808C32.391 54.1194 32.1948 53.9709 31.9946 53.8237C31.9162 53.8636 31.8377 53.9034 31.7569 53.9444C31.2659 54.192 30.7801 54.4365 30.2695 54.6412C29.2808 55.0819 28.886 55.7329 28.4929 56.7075C28.0043 57.7641 27.5407 58.4663 26.4198 58.8889C26.3052 58.9295 26.1906 58.9701 26.0726 59.012C25.5202 59.2128 25.1458 59.4485 24.7324 59.8637C24.5792 60.0033 24.5792 60.0033 24.3732 60.0033C24.3479 59.9418 24.3226 59.8803 24.2966 59.8169C23.1549 57.0597 21.7836 54.6851 19.5003 52.7166C18.9381 52.2315 18.5522 51.7797 18.4644 51.0224C18.4469 50.1049 18.5372 49.3948 19.1809 48.7051C20.8696 47.3002 23.3372 46.9028 25.4546 46.9103C25.5668 46.9099 25.679 46.9095 25.7946 46.9091C26.3949 46.9099 26.9724 46.9354 27.566 47.0262C27.5288 46.9156 27.4916 46.805 27.4533 46.6911C27.405 46.5432 27.3567 46.3953 27.3085 46.2473C27.2839 46.1748 27.2594 46.1022 27.234 46.0275C26.9674 45.2007 27.012 44.5235 27.36 43.7304C27.7597 43.1102 28.2932 42.7974 28.9998 42.641C29.1425 42.612 29.2852 42.583 29.4279 42.5541C30.2094 42.3811 30.7026 41.9987 31.1707 41.3616C31.1954 41.2803 31.2201 41.1991 31.2455 41.1154C31.4288 40.74 31.7164 40.5683 32.059 40.351C32.127 40.3068 32.195 40.2627 32.265 40.2172C34.6777 38.6838 34.6777 38.6838 35.5994 38.6838Z" fill="#FEDFBB"/>
<path d="M31.9947 53.7207C32.3481 54.022 32.7005 54.324 33.0471 54.6332C36.3746 57.5798 40.633 59.2493 45.0233 59.7522C45.1328 59.7652 45.2423 59.7781 45.3552 59.7914C45.5724 59.8169 45.7898 59.8418 46.0072 59.8662C46.1928 59.8871 46.3783 59.9086 46.5636 59.9315C47.3592 60.0235 48.1564 60.0284 48.9563 60.029C49.0323 60.0291 49.1083 60.0292 49.1866 60.0292C52.1255 60.025 55.0722 59.7269 57.8578 58.7459C58.5065 58.522 58.5065 58.522 58.8758 58.6644C59.0782 58.9347 59.0782 58.9347 59.2813 59.2823C59.3168 59.3427 59.3522 59.4031 59.3887 59.4654C59.4932 59.6442 59.5965 59.8237 59.6997 60.0033C59.7846 60.1403 59.7846 60.1403 59.8711 60.2801C59.9424 60.398 59.9424 60.398 60.0152 60.5182C60.0567 60.5862 60.0983 60.6542 60.1411 60.7242C60.2455 61.0163 60.2326 61.1589 60.1117 61.4452C59.8803 61.5805 59.6928 61.6637 59.4423 61.7477C59.3701 61.7731 59.2979 61.7985 59.2236 61.8247C56.5711 62.7201 53.6936 63.2071 50.8963 63.217C50.6981 63.2178 50.6981 63.2178 50.4959 63.2187C50.2166 63.2198 49.9374 63.2204 49.6581 63.2208C49.3773 63.2212 49.0966 63.2227 48.8158 63.225C47.0297 63.2397 45.2941 63.1776 43.5299 62.8871C43.4207 62.8692 43.4207 62.8692 43.3094 62.8509C42.9018 62.7818 42.498 62.6998 42.0944 62.6103C41.9767 62.5848 41.8591 62.5593 41.7378 62.533C40.4904 62.2517 39.2791 61.8623 38.0712 61.4452C37.3552 63.2108 36.9841 64.7966 36.8353 66.6978C34.298 67.422 30.8023 66.4849 28.5504 65.2631C26.7588 64.2439 25.7068 62.8365 24.8173 61.0203C24.7799 60.9459 24.7425 60.8715 24.7039 60.7948C24.4588 60.2736 24.4588 60.2736 24.5405 59.9711C25.0104 59.3944 25.489 59.1241 26.1756 58.8639C27.2568 58.4514 27.766 58.0685 28.2869 57.0165C28.3724 56.8069 28.4561 56.5966 28.538 56.3856C28.8637 55.5733 29.3631 54.9623 30.1408 54.5446C30.4778 54.4091 30.8164 54.2808 31.1582 54.158C31.4606 54.0373 31.7212 53.8964 31.9947 53.7207Z" fill="#FF6C53"/>
<path d="M60.7296 22.4109C62.8013 23.9098 62.8013 23.9098 63.0784 24.7101C63.085 24.7671 63.0916 24.824 63.0985 24.8827C62.9927 24.9326 62.8868 24.9826 62.7778 25.034C61.892 25.4596 61.0896 25.9151 60.3177 26.5306C60.2306 26.5971 60.1435 26.6636 60.0537 26.7322C58.8868 27.7103 58.1561 29.127 57.7418 30.565C57.6818 30.7678 57.6102 30.967 57.5369 31.1653C57.1228 31.3033 56.947 31.1908 56.5391 31.043C55.7156 30.7548 54.8855 30.5347 54.0351 30.3413C53.9042 30.3115 53.7733 30.2816 53.6384 30.2508C52.7722 30.0652 51.9327 29.9689 51.0483 29.9294C51.3167 28.4262 51.9819 27.0436 52.6962 25.7067C52.78 25.5481 52.78 25.5481 52.8656 25.3864C53.6615 23.9534 54.8074 22.0822 56.4039 21.484C56.5165 21.4415 56.6291 21.399 56.7451 21.3552C58.2661 21.0459 59.4805 21.5847 60.7296 22.4109Z" fill="#FF8870"/>
<path d="M42.8218 21.9603C44.9145 23.6803 46.9493 27.1376 47.3406 29.8264C47.1565 30.0105 46.9003 29.9649 46.6532 29.9854C44.8462 30.1373 43.1064 30.5422 41.4004 31.1512C41.058 31.2683 41.058 31.2683 40.852 31.2683C40.8146 31.1476 40.7771 31.0269 40.7386 30.9026C40.0132 28.6132 38.7735 26.7044 36.6156 25.5312C36.1466 25.2939 35.6776 25.0729 35.1874 24.8827C36.0371 23.2881 37.9428 21.9746 39.6161 21.3809C40.7628 21.1033 41.8491 21.2823 42.8218 21.9603Z" fill="#FF8870"/>
<path d="M63.0985 24.7797C63.5115 25.1608 63.797 25.5452 64.0705 26.0349C64.1102 26.1059 64.15 26.1769 64.191 26.25C65.6014 28.867 65.8246 31.9428 65.0103 34.7765C64.9786 34.8869 64.9786 34.8869 64.9462 34.9996C64.8226 35.4068 64.6741 35.7549 64.4374 36.1089C64.1821 35.8555 63.9291 35.601 63.6822 35.3393C61.9828 33.5649 59.8253 32.2482 57.5369 31.3713C57.5906 29.8412 58.3688 28.6211 59.2877 27.4575C59.3698 27.3533 59.4518 27.2491 59.5364 27.1417C59.8211 26.8187 60.1153 26.5514 60.4529 26.286C60.5142 26.2376 60.5755 26.1892 60.6386 26.1394C61.3343 25.6102 62.1003 25.244 62.8925 24.8827C62.9605 24.8487 63.0284 24.8147 63.0985 24.7797Z" fill="#FFDFBB"/>
<path d="M35.0844 24.8827C36.9161 25.1353 38.4047 26.567 39.5063 27.9668C40.0628 28.7896 40.8976 30.1031 40.836 31.1219C40.749 31.3712 40.749 31.3712 40.5461 31.5174C40.4578 31.5556 40.3696 31.5938 40.2787 31.6331C40.1806 31.6773 40.0825 31.7214 39.9814 31.7669C39.8757 31.8127 39.77 31.8584 39.6612 31.9055C38.0543 32.6386 36.7088 33.4927 35.3934 34.667C35.2411 34.7958 35.0887 34.9245 34.9364 35.0532C34.5686 35.3758 34.2607 35.7302 33.9515 36.1089C32.9705 35.1279 32.8912 32.864 32.8765 31.5515C32.8894 29.1569 33.5894 26.785 35.0844 24.8827Z" fill="#FFDFBB"/>
<path d="M31.9946 53.7207C32.3481 54.022 32.7005 54.324 33.0471 54.6332C34.8246 56.2072 36.8332 57.3476 39.0133 58.2711C39.2178 58.3614 39.4169 58.46 39.6161 58.5614C39.112 59.4945 38.5926 60.4187 38.0712 61.3422C34.5655 60.2447 31.7462 57.9458 29.2138 55.3686C29.634 54.8083 29.634 54.8083 29.9863 54.6476C30.0568 54.615 30.1273 54.5823 30.1999 54.5487C30.6028 54.3761 31.0075 54.2084 31.4141 54.045C31.7013 53.9294 31.7013 53.9294 31.9946 53.7207Z" fill="#FE583F"/>
<path d="M42.4999 45.0693C42.8057 45.2835 42.9905 45.4509 43.0593 45.8274C43.074 46.1206 43.0765 46.4109 43.0728 46.7043C43.0661 47.4755 43.1171 47.9183 43.5299 48.5711C43.6387 49.1527 43.6228 49.7302 43.3239 50.2512C42.7339 51.0438 42.0344 51.5619 41.058 51.7639C39.7791 51.8878 38.7551 51.7145 37.7305 50.8969C37.3182 50.5113 37.0677 50.0829 37.0131 49.5129C36.9897 48.7432 37.0286 48.2249 37.5563 47.6442C38.1361 47.0535 38.7776 46.6378 39.6253 46.6062C39.8734 46.6041 40.1212 46.6052 40.3693 46.6078C40.4554 46.6083 40.5415 46.6087 40.6302 46.6092C40.8414 46.6104 41.0527 46.6122 41.264 46.6142C41.2695 46.5154 41.2695 46.5154 41.2751 46.4145C41.3089 45.8788 41.3785 45.5606 41.779 45.1723C42.0509 45.0363 42.1975 45.0271 42.4999 45.0693Z" fill="#FEA0AB"/>
<path d="M56.2044 45.0693C56.5739 45.1951 56.7115 45.2492 56.9189 45.5843C56.9529 45.9644 56.9425 46.3367 56.9189 46.7172C57.0209 46.6832 57.1229 46.6492 57.2279 46.6142C58.4438 46.5223 59.5478 46.605 60.5237 47.4124C61.079 47.9597 61.3601 48.4426 61.412 49.2277C61.3813 49.9658 61.0572 50.5175 60.5341 51.0276C59.5465 51.8201 58.4831 51.8775 57.2662 51.7945C56.4112 51.6873 55.7241 51.2033 55.2027 50.5356C54.8461 49.9819 54.6647 49.4396 54.7561 48.7771C54.8374 48.6362 54.9215 48.4969 55.0071 48.3587C55.3723 47.7046 55.3285 47.0014 55.3183 46.271C55.3209 45.5418 55.3209 45.5418 55.615 45.2069C55.889 45.0693 55.889 45.0693 56.2044 45.0693Z" fill="#FEA0AB"/>
<path d="M24.2702 46.9232C24.6607 46.9171 25.0512 46.9135 25.4417 46.9103C25.6056 46.9077 25.6056 46.9077 25.7728 46.9051C26.0967 46.9031 26.4184 46.9097 26.742 46.9232C26.8387 46.9271 26.9354 46.931 27.035 46.9351C27.4215 46.9778 27.6771 47.0146 27.9318 47.3223C28.0716 47.583 28.1808 47.8444 28.2869 48.1205C28.3722 48.3189 28.4583 48.517 28.5452 48.7147C28.5877 48.8129 28.6302 48.9111 28.674 49.0123C29.4132 50.6299 30.6126 52.1511 31.8353 53.4302C31.9946 53.6177 31.9946 53.6177 31.9946 53.8237C30.8203 54.4198 30.8203 54.4198 30.2631 54.6541C29.8324 54.8403 29.4828 55.0837 29.1108 55.3686C28.8684 55.0613 28.6292 54.7514 28.3899 54.4417C28.3452 54.3847 28.3004 54.3278 28.2544 54.2692C26.5327 52.0752 25.1078 49.5934 24.2702 46.9232Z" fill="#FCD2A5"/>
<path d="M63.0985 24.7797C63.5116 25.1608 63.797 25.5452 64.0705 26.0349C64.1103 26.1059 64.15 26.1769 64.191 26.25C65.2389 28.1943 65.4898 30.2308 65.4673 32.4012C64.9982 32.4012 64.9863 32.3765 64.6756 32.0665C62.9529 30.4757 60.8255 29.3696 58.6698 28.4875C59.2016 26.9736 60.7657 25.9095 62.1458 25.2303C62.3936 25.1118 62.6425 24.9967 62.8925 24.8827C62.9605 24.8487 63.0285 24.8147 63.0985 24.7797Z" fill="#FFF1CD"/>
<path d="M35.0844 24.8827C36.9458 25.1394 38.3506 26.5689 39.493 27.9564C39.6161 28.1785 39.6161 28.1785 39.5946 28.3866C39.5131 28.5904 39.5131 28.5904 39.1554 28.7783C38.9984 28.8435 38.8407 28.9074 38.6827 28.9702C36.752 29.7862 34.9272 30.8814 33.4144 32.3448C33.2305 32.5042 33.2305 32.5042 33.0246 32.5042C32.9736 32.6061 32.9736 32.6061 32.9216 32.7101C32.821 29.8692 33.28 27.1786 35.0844 24.8827Z" fill="#FFF1CD"/>
<path d="M40.852 31.4743C40.7896 31.5292 40.7272 31.5842 40.6629 31.6408C38.5047 33.5599 36.6295 35.9025 35.7024 38.6838C35.4219 38.8059 35.1473 38.9114 34.8591 39.012C33.6603 39.4542 32.576 40.0322 31.5827 40.8466C31.5147 40.8126 31.4467 40.7786 31.3767 40.7436C31.8462 39.0905 32.5772 37.4896 33.7455 36.2119C33.8369 36.1085 33.9282 36.0049 34.0195 35.9013C34.5452 35.3103 35.085 34.7514 35.7024 34.2551C35.797 34.1771 35.8917 34.0992 35.9892 34.0189C37.1465 33.0846 38.4201 32.3571 39.7577 31.7124C39.8318 31.6762 39.906 31.64 39.9823 31.6027C40.5055 31.3588 40.5055 31.3588 40.852 31.4743Z" fill="#FF6D54"/>
<path d="M52.1812 26.8396C54.3867 26.9276 56.5094 27.6373 58.5668 28.3845C58.4503 28.676 58.3335 28.9674 58.2164 29.2587C57.9484 29.926 57.6818 30.5933 57.4339 31.2683C57.3798 31.252 57.3258 31.2356 57.2701 31.2188C57.0939 31.1657 56.9175 31.1131 56.7411 31.0607C56.5008 30.9884 56.261 30.9142 56.0217 30.8386C54.4017 30.3339 52.7479 29.9865 51.0483 29.9294C51.1587 29.3113 51.3381 28.7395 51.5568 28.1528C51.5959 28.0469 51.5959 28.0469 51.6357 27.9389C51.7848 27.547 51.9529 27.1914 52.1812 26.8396Z" fill="#FF6C53"/>
<path d="M46.3107 26.9426C46.4526 27.1636 46.4526 27.1636 46.5601 27.4528C46.5998 27.557 46.6395 27.6612 46.6804 27.7686C46.7198 27.8784 46.7593 27.9882 46.7999 28.1013C46.8409 28.2095 46.8819 28.3177 46.9242 28.4292C47.2743 29.3655 47.2743 29.3655 47.3406 29.8264C47.1565 30.0105 46.9004 29.965 46.6532 29.9854C44.8462 30.1374 43.1064 30.5422 41.4004 31.1512C41.058 31.2683 41.058 31.2683 40.852 31.2683C40.8122 31.1441 40.7724 31.0198 40.7313 30.8918C40.6772 30.7255 40.623 30.5592 40.5688 30.3929C40.5428 30.3114 40.5168 30.2298 40.49 30.1459C40.3543 29.732 40.2061 29.3422 40.0072 28.9542C39.8221 28.5905 39.8221 28.5905 39.8221 28.3845C41.0228 27.8755 42.2322 27.5369 43.5041 27.2645C43.6125 27.2412 43.6125 27.2412 43.7231 27.2174C45.8544 26.7629 45.8544 26.7629 46.3107 26.9426Z" fill="#FF6C53"/>
<path d="M46.0596 47.2193C46.484 47.3582 46.6013 47.4679 46.8256 47.8501C46.9011 48.0884 46.971 48.3286 47.0316 48.5711C47.1575 48.7196 47.1575 48.7196 47.5337 48.6998C47.7863 48.6944 47.9274 48.6907 48.1517 48.5711C48.2711 48.3588 48.3123 48.1898 48.3641 47.9531C48.4268 47.6808 48.4649 47.5521 48.6409 47.3287C49.0124 47.1821 49.3309 47.2189 49.7094 47.3352C49.9942 47.5724 50.0448 47.8299 50.1278 48.1784C50.1597 48.308 50.1916 48.4376 50.2244 48.5711C50.5385 48.7281 50.8055 48.6983 51.1513 48.6741C51.449 48.4996 51.4649 48.3482 51.5569 48.0111C51.6729 47.622 51.7471 47.4622 52.0783 47.2322C52.3808 47.1742 52.3808 47.1742 52.6962 47.2322C52.9923 47.4382 52.9923 47.4382 53.2112 47.7471C53.3318 48.4588 53.1041 49.0148 52.6962 49.601C52.1597 50.1267 51.571 50.4526 50.8102 50.4636C50.3209 50.457 49.9945 50.3603 49.5811 50.1031C49.3727 49.9823 49.3727 49.9823 48.9885 50.013C48.7807 50.1021 48.7807 50.1021 48.5701 50.219C48.017 50.471 47.5284 50.5339 46.9286 50.425C46.1401 50.1239 45.6635 49.6215 45.2807 48.8801C45.1527 48.496 45.1105 48.1454 45.1777 47.7471C45.4488 47.3447 45.5706 47.2365 46.0596 47.2193Z" fill="#4E5863"/>
<path d="M55.374 66.009C55.7889 66.1041 55.9331 66.2651 56.198 66.5948C56.4648 68.6811 55.3319 71.2918 54.0959 72.9003C53.875 73.1729 53.6515 73.4402 53.4172 73.7013C53.3737 73.7564 53.3303 73.8114 53.2856 73.8681C53.034 74.0697 52.8565 74.0455 52.5373 74.0405C52.4268 74.0395 52.3162 74.0385 52.2024 74.0374C52.0871 74.0349 51.9718 74.0323 51.853 74.0296C51.7365 74.0282 51.62 74.0268 51.4999 74.0254C51.212 74.0217 50.9242 74.0166 50.6364 74.0103C50.7976 73.5654 50.9302 73.3927 51.3316 73.1349C51.4241 73.0729 51.5166 73.0109 51.612 72.947C51.6979 72.89 51.7838 72.8331 51.8723 72.7744C53.2438 71.7793 53.9862 69.9622 54.3441 68.3457C54.408 67.9186 54.4449 67.4915 54.4728 67.0607C54.5846 66.5358 54.8199 66.136 55.374 66.009Z" fill="#FF6C53"/>
<path d="M43.0792 66.0799C43.4239 66.182 43.5218 66.2216 43.7358 66.4919C43.7989 66.6961 43.7989 66.6961 43.8344 66.93C43.856 67.0606 43.856 67.0606 43.878 67.1939C43.8927 67.2873 43.9074 67.3806 43.9225 67.4767C44.2732 69.4768 44.8856 71.5882 46.5774 72.8742C46.751 72.9946 46.9264 73.1125 47.104 73.227C47.3513 73.3999 47.5527 73.5784 47.7525 73.8044C47.7525 73.8723 47.7525 73.9403 47.7525 74.0103C47.3513 74.0253 46.9502 74.0345 46.5488 74.0425C46.4352 74.0468 46.3217 74.0512 46.2046 74.0556C45.3604 74.0684 45.3604 74.0684 44.975 73.7879C44.9059 73.6913 44.8369 73.5948 44.7658 73.4954C44.6844 73.4024 44.603 73.3095 44.5191 73.2138C43.1391 71.4926 42.1288 69.0975 42.1559 66.8636C42.1909 66.5949 42.1909 66.5949 42.4034 66.2601C42.7059 66.0799 42.7059 66.0799 43.0792 66.0799Z" fill="#FF6C53"/>
<path d="M49.1051 66.0377C49.2067 66.0554 49.2067 66.0554 49.3103 66.0735C49.3786 66.0829 49.4468 66.0923 49.5171 66.102C49.7887 66.2162 49.869 66.3404 50.0184 66.5949C50.0556 66.9259 50.0556 66.9259 50.0535 67.3224C50.0536 67.4309 50.0536 67.4309 50.0536 67.5417C50.0534 67.7802 50.051 68.0187 50.0486 68.2572C50.048 68.4229 50.0476 68.5886 50.0473 68.7542C50.0461 69.1897 50.043 69.6252 50.0396 70.0607C50.0365 70.5053 50.035 70.9499 50.0335 71.3945C50.0302 72.2665 50.0247 73.1384 50.0184 74.0104C49.4746 74.0104 48.9308 74.0104 48.3705 74.0104C48.3589 73.0524 48.3494 72.0945 48.3438 71.1365C48.3412 70.6916 48.3375 70.2468 48.3317 69.802C48.3261 69.3726 48.323 68.9432 48.3217 68.5138C48.3207 68.3501 48.3189 68.1863 48.3161 68.0226C48.3123 67.793 48.3118 67.5637 48.3121 67.334C48.3109 67.2035 48.3098 67.0729 48.3086 66.9383C48.3908 66.4825 48.6269 66.1296 49.1051 66.0377Z" fill="#FF6D54"/>
<path d="M42.4999 45.0693C42.7784 45.2779 42.9845 45.4423 43.0597 45.7937C43.073 46.0369 43.0699 46.2743 43.0599 46.5176C43.0593 46.6003 43.0587 46.6829 43.0581 46.7681C43.0495 47.1846 43.0345 47.4887 42.8089 47.8501C42.4999 48.0561 42.4999 48.0561 42.1394 48.0368C41.7765 47.9525 41.6842 47.9295 41.47 47.6441C41.4024 47.2891 41.4175 46.9299 41.4185 46.5691C41.4156 46.4708 41.4126 46.3725 41.4096 46.2712C41.4076 45.5502 41.4076 45.5502 41.7146 45.2109C42.0228 45.0495 42.1593 44.9927 42.4999 45.0693Z" fill="#4E5763"/>
<path d="M56.2044 45.0693C56.5651 45.1921 56.6927 45.277 56.9189 45.5843C56.9748 45.8946 56.9671 46.197 56.9575 46.5112C56.9574 46.5943 56.9573 46.6775 56.9571 46.7631C56.9509 47.1822 56.9407 47.4864 56.7129 47.8501C56.404 48.0561 56.404 48.0561 56.0435 48.0433C55.683 47.9531 55.683 47.9531 55.509 47.7713C55.2752 47.3727 55.3212 46.963 55.3225 46.5112C55.3196 46.4183 55.3167 46.3254 55.3137 46.2296C55.3117 45.5513 55.3117 45.5513 55.615 45.211C55.889 45.0693 55.889 45.0693 56.2044 45.0693Z" fill="#4D5762"/>
<path d="M70.823 43.7304C71.2461 44.1535 71.2509 44.4216 71.2543 44.9985C71.2557 45.1128 71.2572 45.2271 71.2587 45.3449C71.2343 45.6972 71.1547 45.9767 71.029 46.3052C70.995 46.3052 70.961 46.3052 70.926 46.3052C70.892 45.4555 70.858 44.6058 70.823 43.7304Z" fill="#FFE2BE"/>
</g>
</g>
<defs>
<clipPath id="paint0_angular_26_2814_clip_path"><path d="M0 8.00111C0 3.58222 3.67178 0 8.20114 0H48.567H67.6594C72.1888 0 75.8606 3.58222 75.8606 8.00111V18.1727V66.0092C75.8606 70.4281 72.1888 74.0103 67.6594 74.0103H25.7336H8.20114C3.67178 74.0103 0 70.4281 0 66.0092V54.1V8.00111Z"/></clipPath><linearGradient id="paint1_linear_26_2814" x1="37.9303" y1="0" x2="37.9303" y2="74.0103" gradientUnits="userSpaceOnUse">
<stop stop-color="white"/>
<stop offset="0.293269" stop-color="#FFDBD4"/>
<stop offset="1" stop-color="#FD9C89"/>
</linearGradient>
<clipPath id="clip0_26_2814">
<rect width="75.8606" height="74.0103" fill="white"/>
</clipPath>
<clipPath id="clip1_26_2814">
<rect width="52.7323" height="52.7323" fill="white" transform="translate(18.5026 21.278)"/>
</clipPath>
</defs>
</svg>
